<?plantuml 1.2026.2?><svg xmlns="http://www.w3.org/2000/svg" xmlns:xlink="http://www.w3.org/1999/xlink" contentStyleType="text/css" data-diagram-type="CLASS" height="964px" preserveAspectRatio="none" style="width:1338px;height:964px;background:#FFFFFF;" version="1.1" viewBox="0 0 1338 964" width="1338px" zoomAndPan="magnify"><defs/><g><!--cluster Browser--><g class="cluster" data-qualified-name="Browser" data-source-line="26" id="ent0002"><path d="M13.5,11 L66.519,11 A3.75,3.75 0 0 1 69.019,13.5 L76.019,33.3516 L947.5,33.3516 A2.5,2.5 0 0 1 950,35.8516 L950,603.5 A2.5,2.5 0 0 1 947.5,606 L13.5,606 A2.5,2.5 0 0 1 11,603.5 L11,13.5 A2.5,2.5 0 0 1 13.5,11" fill="#F8F8F8" style="stroke:#AAAAAA;stroke-width:1;"/><line style="stroke:#AAAAAA;stroke-width:1;" x1="11" x2="76.019" y1="33.3516" y2="33.3516"/><text fill="#333333" font-family="sans-serif" font-size="13" font-weight="bold" lengthAdjust="spacing" textLength="52.019" x="15" y="26.4951">Browser</text></g><!--cluster Solid Pod (user-owned)--><g class="cluster" data-qualified-name="Solid Pod .user-owned." data-source-line="76" id="ent0020"><path d="M976.5,296 L1122.6646,296 A3.75,3.75 0 0 1 1125.1646,298.5 L1132.1646,318.3516 L1328.5,318.3516 A2.5,2.5 0 0 1 1331,320.8516 L1331,954.5 A2.5,2.5 0 0 1 1328.5,957 L976.5,957 A2.5,2.5 0 0 1 974,954.5 L974,298.5 A2.5,2.5 0 0 1 976.5,296" fill="#F8F8F8" style="stroke:#AAAAAA;stroke-width:1;"/><line style="stroke:#AAAAAA;stroke-width:1;" x1="974" x2="1132.1646" y1="318.3516" y2="318.3516"/><text fill="#333333" font-family="sans-serif" font-size="13" font-weight="bold" lengthAdjust="spacing" textLength="145.1646" x="978" y="311.4951">Solid Pod (user-owned)</text></g><!--class App--><g class="entity" data-qualified-name="Browser.App" data-source-line="28" id="ent0003"><rect fill="#FFFFFF" height="58.1509" rx="2.5" ry="2.5" style="stroke:#555555;stroke-width:1;" width="113.3813" x="239.5" y="46"/><rect fill="#EEEEEE" height="42.1509" rx="2.5" ry="2.5" style="stroke:#EEEEEE;stroke-width:1;" width="113.3813" x="239.5" y="46"/><rect fill="#EEEEEE" height="2.5" style="stroke:#EEEEEE;stroke-width:1;" width="113.3813" x="239.5" y="85.6509"/><rect fill="none" height="58.1509" rx="2.5" ry="2.5" style="stroke:#555555;stroke-width:1;" width="113.3813" x="239.5" y="46"/><ellipse cx="252.5" cy="67.0754" fill="#FFFFFF" rx="9" ry="9" style="stroke:#000000;stroke-width:1;"/><path d="M253.9063,68.6536 L255.7188,69.2317 Q255.2969,70.7473 254.3281,71.4973 Q253.3594,72.2317 251.8594,72.2317 Q250,72.2317 248.7969,70.9661 Q247.6094,69.7004 247.6094,67.4973 Q247.6094,65.1848 248.8125,63.9036 Q250.0156,62.6067 251.9688,62.6067 Q253.6719,62.6067 254.75,63.6223 Q255.375,64.2161 255.7031,65.3411 L253.8438,65.7786 Q253.6719,65.0598 253.1406,64.6379 Q252.625,64.2161 251.875,64.2161 Q250.8438,64.2161 250.1875,64.9661 Q249.5469,65.7004 249.5469,67.3723 Q249.5469,69.1223 250.1875,69.8723 Q250.8281,70.6223 251.8438,70.6223 Q252.5938,70.6223 253.125,70.1536 Q253.6719,69.6692 253.9063,68.6536 Z " fill="#000000"/><text fill="#000000" font-family="Verdana" font-size="13" font-style="italic" lengthAdjust="spacing" textLength="89.3813" x="262.5" y="64.0698">&#171;component&#187;</text><text fill="#111111" font-family="sans-serif" font-size="13" lengthAdjust="spacing" textLength="23.1309" x="295.6252" y="80.2944">App</text><line style="stroke:#555555;stroke-width:1;" x1="240.5" x2="351.8813" y1="88.1509" y2="88.1509"/><line style="stroke:#555555;stroke-width:1;" x1="240.5" x2="351.8813" y1="96.1509" y2="96.1509"/></g><!--class Header--><g class="entity" data-qualified-name="Browser.Header" data-source-line="31" id="ent0004"><rect fill="#FFFFFF" height="90.854" rx="2.5" ry="2.5" style="stroke:#555555;stroke-width:1;" width="129.4063" x="97.5" y="172"/><rect fill="#EEEEEE" height="42.1509" rx="2.5" ry="2.5" style="stroke:#EEEEEE;stroke-width:1;" width="129.4063" x="97.5" y="172"/><rect fill="#EEEEEE" height="2.5" style="stroke:#EEEEEE;stroke-width:1;" width="129.4063" x="97.5" y="211.6509"/><rect fill="none" height="90.854" rx="2.5" ry="2.5" style="stroke:#555555;stroke-width:1;" width="129.4063" x="97.5" y="172"/><ellipse cx="117.7112" cy="193.0754" fill="#FFFFFF" rx="9" ry="9" style="stroke:#000000;stroke-width:1;"/><path d="M119.1175,194.6536 L120.93,195.2317 Q120.5081,196.7473 119.5393,197.4973 Q118.5706,198.2317 117.0706,198.2317 Q115.2112,198.2317 114.0081,196.9661 Q112.8206,195.7004 112.8206,193.4973 Q112.8206,191.1848 114.0237,189.9036 Q115.2268,188.6067 117.18,188.6067 Q118.8831,188.6067 119.9612,189.6223 Q120.5862,190.2161 120.9143,191.3411 L119.055,191.7786 Q118.8831,191.0598 118.3518,190.6379 Q117.8362,190.2161 117.0862,190.2161 Q116.055,190.2161 115.3987,190.9661 Q114.7581,191.7004 114.7581,193.3723 Q114.7581,195.1223 115.3987,195.8723 Q116.0393,196.6223 117.055,196.6223 Q117.805,196.6223 118.3362,196.1536 Q118.8831,195.6692 119.1175,194.6536 Z " fill="#000000"/><text fill="#000000" font-family="Verdana" font-size="13" font-style="italic" lengthAdjust="spacing" textLength="89.3813" x="129.3137" y="190.0698">&#171;component&#187;</text><text fill="#111111" font-family="sans-serif" font-size="13" lengthAdjust="spacing" textLength="42.6372" x="152.6858" y="206.2944">Header</text><line style="stroke:#555555;stroke-width:1;" x1="98.5" x2="225.9063" y1="214.1509" y2="214.1509"/><line style="stroke:#555555;stroke-width:1;" x1="98.5" x2="225.9063" y1="222.1509" y2="222.1509"/><text fill="#000000" font-family="sans-serif" font-size="13" lengthAdjust="spacing" textLength="117.4063" x="103.5" y="239.646">+login(issuer: string)</text><text fill="#000000" font-family="sans-serif" font-size="13" lengthAdjust="spacing" textLength="51.6699" x="103.5" y="255.9976">+logout()</text></g><!--class LanguageSwitcher--><g class="entity" data-qualified-name="Browser.LanguageSwitcher" data-source-line="36" id="ent0005"><rect fill="#FFFFFF" height="74.5024" rx="2.5" ry="2.5" style="stroke:#555555;stroke-width:1;" width="195.9424" x="64" y="331"/><rect fill="#EEEEEE" height="42.1509" rx="2.5" ry="2.5" style="stroke:#EEEEEE;stroke-width:1;" width="195.9424" x="64" y="331"/><rect fill="#EEEEEE" height="2.5" style="stroke:#EEEEEE;stroke-width:1;" width="195.9424" x="64" y="370.6509"/><rect fill="none" height="74.5024" rx="2.5" ry="2.5" style="stroke:#555555;stroke-width:1;" width="195.9424" x="64" y="331"/><ellipse cx="104.3772" cy="352.0754" fill="#FFFFFF" rx="9" ry="9" style="stroke:#000000;stroke-width:1;"/><path d="M105.7834,353.6536 L107.5959,354.2317 Q107.1741,355.7473 106.2053,356.4973 Q105.2366,357.2317 103.7366,357.2317 Q101.8772,357.2317 100.6741,355.9661 Q99.4866,354.7004 99.4866,352.4973 Q99.4866,350.1848 100.6897,348.9036 Q101.8928,347.6067 103.8459,347.6067 Q105.5491,347.6067 106.6272,348.6223 Q107.2522,349.2161 107.5803,350.3411 L105.7209,350.7786 Q105.5491,350.0598 105.0178,349.6379 Q104.5022,349.2161 103.7522,349.2161 Q102.7209,349.2161 102.0647,349.9661 Q101.4241,350.7004 101.4241,352.3723 Q101.4241,354.1223 102.0647,354.8723 Q102.7053,355.6223 103.7209,355.6223 Q104.4709,355.6223 105.0022,355.1536 Q105.5491,354.6692 105.7834,353.6536 Z " fill="#000000"/><text fill="#000000" font-family="Verdana" font-size="13" font-style="italic" lengthAdjust="spacing" textLength="89.3813" x="131.0305" y="349.0698">&#171;component&#187;</text><text fill="#111111" font-family="sans-serif" font-size="13" lengthAdjust="spacing" textLength="107.688" x="121.8772" y="365.2944">LanguageSwitcher</text><line style="stroke:#555555;stroke-width:1;" x1="65" x2="258.9424" y1="373.1509" y2="373.1509"/><line style="stroke:#555555;stroke-width:1;" x1="65" x2="258.9424" y1="381.1509" y2="381.1509"/><text fill="#000000" font-family="sans-serif" font-size="13" lengthAdjust="spacing" textLength="183.9424" x="70" y="398.646">+changeLanguage(code: string)</text></g><!--class FileExplorer--><g class="entity" data-qualified-name="Browser.FileExplorer" data-source-line="40" id="ent0006"><rect fill="#FFFFFF" height="107.2056" rx="2.5" ry="2.5" style="stroke:#555555;stroke-width:1;" width="238.4971" x="427" y="164"/><rect fill="#EEEEEE" height="42.1509" rx="2.5" ry="2.5" style="stroke:#EEEEEE;stroke-width:1;" width="238.4971" x="427" y="164"/><rect fill="#EEEEEE" height="2.5" style="stroke:#EEEEEE;stroke-width:1;" width="238.4971" x="427" y="203.6509"/><rect fill="none" height="107.2056" rx="2.5" ry="2.5" style="stroke:#555555;stroke-width:1;" width="238.4971" x="427" y="164"/><ellipse cx="499.8079" cy="185.0754" fill="#FFFFFF" rx="9" ry="9" style="stroke:#000000;stroke-width:1;"/><path d="M501.2141,186.6536 L503.0266,187.2317 Q502.6047,188.7473 501.636,189.4973 Q500.6672,190.2317 499.1672,190.2317 Q497.3079,190.2317 496.1047,188.9661 Q494.9172,187.7004 494.9172,185.4973 Q494.9172,183.1848 496.1204,181.9036 Q497.3235,180.6067 499.2766,180.6067 Q500.9797,180.6067 502.0579,181.6223 Q502.6829,182.2161 503.011,183.3411 L501.1516,183.7786 Q500.9797,183.0598 500.4485,182.6379 Q499.9329,182.2161 499.1829,182.2161 Q498.1516,182.2161 497.4954,182.9661 Q496.8547,183.7004 496.8547,185.3723 Q496.8547,187.1223 497.4954,187.8723 Q498.136,188.6223 499.1516,188.6223 Q499.9016,188.6223 500.4329,188.1536 Q500.9797,187.6692 501.2141,186.6536 Z " fill="#000000"/><text fill="#000000" font-family="Verdana" font-size="13" font-style="italic" lengthAdjust="spacing" textLength="89.3813" x="515.3079" y="182.0698">&#171;component&#187;</text><text fill="#111111" font-family="sans-serif" font-size="13" lengthAdjust="spacing" textLength="69.3545" x="525.3213" y="198.2944">FileExplorer</text><line style="stroke:#555555;stroke-width:1;" x1="428" x2="664.4971" y1="206.1509" y2="206.1509"/><line style="stroke:#555555;stroke-width:1;" x1="428" x2="664.4971" y1="214.1509" y2="214.1509"/><text fill="#000000" font-family="sans-serif" font-size="13" lengthAdjust="spacing" textLength="118.8599" x="433" y="231.646">+navigate(uri: string)</text><text fill="#000000" font-family="sans-serif" font-size="13" lengthAdjust="spacing" textLength="226.4971" x="433" y="247.9976">+breadcrumbClick(index: int, uri: string)</text><text fill="#000000" font-family="sans-serif" font-size="13" lengthAdjust="spacing" textLength="52.3872" x="433" y="264.3491">+reload()</text></g><!--class FileUpload--><g class="entity" data-qualified-name="Browser.FileUpload" data-source-line="46" id="ent0007"><rect fill="#FFFFFF" height="74.5024" rx="2.5" ry="2.5" style="stroke:#555555;stroke-width:1;" width="286.8979" x="646.5" y="331"/><rect fill="#EEEEEE" height="42.1509" rx="2.5" ry="2.5" style="stroke:#EEEEEE;stroke-width:1;" width="286.8979" x="646.5" y="331"/><rect fill="#EEEEEE" height="2.5" style="stroke:#EEEEEE;stroke-width:1;" width="286.8979" x="646.5" y="370.6509"/><rect fill="none" height="74.5024" rx="2.5" ry="2.5" style="stroke:#555555;stroke-width:1;" width="286.8979" x="646.5" y="331"/><ellipse cx="743.5083" cy="352.0754" fill="#FFFFFF" rx="9" ry="9" style="stroke:#000000;stroke-width:1;"/><path d="M744.9146,353.6536 L746.7271,354.2317 Q746.3052,355.7473 745.3364,356.4973 Q744.3677,357.2317 742.8677,357.2317 Q741.0083,357.2317 739.8052,355.9661 Q738.6177,354.7004 738.6177,352.4973 Q738.6177,350.1848 739.8208,348.9036 Q741.0239,347.6067 742.9771,347.6067 Q744.6802,347.6067 745.7583,348.6223 Q746.3833,349.2161 746.7114,350.3411 L744.8521,350.7786 Q744.6802,350.0598 744.1489,349.6379 Q743.6333,349.2161 742.8833,349.2161 Q741.8521,349.2161 741.1958,349.9661 Q740.5552,350.7004 740.5552,352.3723 Q740.5552,354.1223 741.1958,354.8723 Q741.8364,355.6223 742.8521,355.6223 Q743.6021,355.6223 744.1333,355.1536 Q744.6802,354.6692 744.9146,353.6536 Z " fill="#000000"/><text fill="#000000" font-family="Verdana" font-size="13" font-style="italic" lengthAdjust="spacing" textLength="89.3813" x="759.0083" y="349.0698">&#171;component&#187;</text><text fill="#111111" font-family="sans-serif" font-size="13" lengthAdjust="spacing" textLength="62.1436" x="772.6272" y="365.2944">FileUpload</text><line style="stroke:#555555;stroke-width:1;" x1="647.5" x2="932.3979" y1="373.1509" y2="373.1509"/><line style="stroke:#555555;stroke-width:1;" x1="647.5" x2="932.3979" y1="381.1509" y2="381.1509"/><text fill="#000000" font-family="sans-serif" font-size="13" lengthAdjust="spacing" textLength="274.8979" x="652.5" y="398.646">+submit(file: File, title: string, description: string)</text></g><!--class FileCard--><g class="entity" data-qualified-name="Browser.FileCard" data-source-line="50" id="ent0008"><rect fill="#FFFFFF" height="74.5024" rx="2.5" ry="2.5" style="stroke:#555555;stroke-width:1;" width="113.3813" x="332.5" y="331"/><rect fill="#EEEEEE" height="42.1509" rx="2.5" ry="2.5" style="stroke:#EEEEEE;stroke-width:1;" width="113.3813" x="332.5" y="331"/><rect fill="#EEEEEE" height="2.5" style="stroke:#EEEEEE;stroke-width:1;" width="113.3813" x="332.5" y="370.6509"/><rect fill="none" height="74.5024" rx="2.5" ry="2.5" style="stroke:#555555;stroke-width:1;" width="113.3813" x="332.5" y="331"/><ellipse cx="345.5" cy="352.0754" fill="#FFFFFF" rx="9" ry="9" style="stroke:#000000;stroke-width:1;"/><path d="M346.9063,353.6536 L348.7188,354.2317 Q348.2969,355.7473 347.3281,356.4973 Q346.3594,357.2317 344.8594,357.2317 Q343,357.2317 341.7969,355.9661 Q340.6094,354.7004 340.6094,352.4973 Q340.6094,350.1848 341.8125,348.9036 Q343.0156,347.6067 344.9688,347.6067 Q346.6719,347.6067 347.75,348.6223 Q348.375,349.2161 348.7031,350.3411 L346.8438,350.7786 Q346.6719,350.0598 346.1406,349.6379 Q345.625,349.2161 344.875,349.2161 Q343.8438,349.2161 343.1875,349.9661 Q342.5469,350.7004 342.5469,352.3723 Q342.5469,354.1223 343.1875,354.8723 Q343.8281,355.6223 344.8438,355.6223 Q345.5938,355.6223 346.125,355.1536 Q346.6719,354.6692 346.9063,353.6536 Z " fill="#000000"/><text fill="#000000" font-family="Verdana" font-size="13" font-style="italic" lengthAdjust="spacing" textLength="89.3813" x="355.5" y="349.0698">&#171;component&#187;</text><text fill="#111111" font-family="sans-serif" font-size="13" lengthAdjust="spacing" textLength="49.1245" x="375.6284" y="365.2944">FileCard</text><line style="stroke:#555555;stroke-width:1;" x1="333.5" x2="444.8813" y1="373.1509" y2="373.1509"/><line style="stroke:#555555;stroke-width:1;" x1="333.5" x2="444.8813" y1="381.1509" y2="381.1509"/><text fill="#000000" font-family="sans-serif" font-size="13" lengthAdjust="spacing" textLength="51.6699" x="338.5" y="398.646">+delete()</text></g><!--class FolderEntry--><g class="entity" data-qualified-name="Browser.FolderEntry" data-source-line="54" id="ent0009"><rect fill="#FFFFFF" height="74.5024" rx="2.5" ry="2.5" style="stroke:#555555;stroke-width:1;" width="130.8599" x="480.5" y="331"/><rect fill="#EEEEEE" height="42.1509" rx="2.5" ry="2.5" style="stroke:#EEEEEE;stroke-width:1;" width="130.8599" x="480.5" y="331"/><rect fill="#EEEEEE" height="2.5" style="stroke:#EEEEEE;stroke-width:1;" width="130.8599" x="480.5" y="370.6509"/><rect fill="none" height="74.5024" rx="2.5" ry="2.5" style="stroke:#555555;stroke-width:1;" width="130.8599" x="480.5" y="331"/><ellipse cx="501.3653" cy="352.0754" fill="#FFFFFF" rx="9" ry="9" style="stroke:#000000;stroke-width:1;"/><path d="M502.7716,353.6536 L504.5841,354.2317 Q504.1622,355.7473 503.1935,356.4973 Q502.2247,357.2317 500.7247,357.2317 Q498.8653,357.2317 497.6622,355.9661 Q496.4747,354.7004 496.4747,352.4973 Q496.4747,350.1848 497.6778,348.9036 Q498.881,347.6067 500.8341,347.6067 Q502.5372,347.6067 503.6153,348.6223 Q504.2403,349.2161 504.5685,350.3411 L502.7091,350.7786 Q502.5372,350.0598 502.006,349.6379 Q501.4903,349.2161 500.7403,349.2161 Q499.7091,349.2161 499.0528,349.9661 Q498.4122,350.7004 498.4122,352.3723 Q498.4122,354.1223 499.0528,354.8723 Q499.6935,355.6223 500.7091,355.6223 Q501.4591,355.6223 501.9903,355.1536 Q502.5372,354.6692 502.7716,353.6536 Z " fill="#000000"/><text fill="#000000" font-family="Verdana" font-size="13" font-style="italic" lengthAdjust="spacing" textLength="89.3813" x="513.1132" y="349.0698">&#171;component&#187;</text><text fill="#111111" font-family="sans-serif" font-size="13" lengthAdjust="spacing" textLength="67.1899" x="524.2089" y="365.2944">FolderEntry</text><line style="stroke:#555555;stroke-width:1;" x1="481.5" x2="610.3599" y1="373.1509" y2="373.1509"/><line style="stroke:#555555;stroke-width:1;" x1="481.5" x2="610.3599" y1="381.1509" y2="381.1509"/><text fill="#000000" font-family="sans-serif" font-size="13" lengthAdjust="spacing" textLength="118.8599" x="486.5" y="398.646">+navigate(uri: string)</text></g><!--class i18n--><g class="entity" data-qualified-name="Browser.i18n" data-source-line="58" id="ent0010"><rect fill="#FFFFFF" height="123.5571" rx="2.5" ry="2.5" style="stroke:#555555;stroke-width:1;" width="220.5396" x="51.5" y="466"/><rect fill="#EEEEEE" height="42.1509" rx="2.5" ry="2.5" style="stroke:#EEEEEE;stroke-width:1;" width="220.5396" x="51.5" y="466"/><rect fill="#EEEEEE" height="2.5" style="stroke:#EEEEEE;stroke-width:1;" width="220.5396" x="51.5" y="505.6509"/><rect fill="none" height="123.5571" rx="2.5" ry="2.5" style="stroke:#555555;stroke-width:1;" width="220.5396" x="51.5" y="466"/><ellipse cx="127.5515" cy="487.0754" fill="#FFFFFF" rx="9" ry="9" style="stroke:#000000;stroke-width:1;"/><path d="M128.9578,488.6536 L130.7703,489.2317 Q130.3484,490.7473 129.3796,491.4973 Q128.4109,492.2317 126.9109,492.2317 Q125.0515,492.2317 123.8484,490.9661 Q122.6609,489.7004 122.6609,487.4973 Q122.6609,485.1848 123.864,483.9036 Q125.0671,482.6067 127.0203,482.6067 Q128.7234,482.6067 129.8015,483.6223 Q130.4265,484.2161 130.7546,485.3411 L128.8953,485.7786 Q128.7234,485.0598 128.1921,484.6379 Q127.6765,484.2161 126.9265,484.2161 Q125.8953,484.2161 125.239,484.9661 Q124.5984,485.7004 124.5984,487.3723 Q124.5984,489.1223 125.239,489.8723 Q125.8796,490.6223 126.8953,490.6223 Q127.6453,490.6223 128.1765,490.1536 Q128.7234,489.6692 128.9578,488.6536 Z " fill="#000000"/><text fill="#000000" font-family="Verdana" font-size="13" font-style="italic" lengthAdjust="spacing" textLength="64.9365" x="143.0515" y="484.0698">&#171;module&#187;</text><text fill="#111111" font-family="sans-serif" font-size="13" lengthAdjust="spacing" textLength="24.5781" x="163.2307" y="500.2944">i18n</text><line style="stroke:#555555;stroke-width:1;" x1="52.5" x2="271.0396" y1="508.1509" y2="508.1509"/><text fill="#000000" font-family="sans-serif" font-size="13" lengthAdjust="spacing" textLength="139.8389" x="57.5" y="525.646">+supportedLngs: string[]</text><text fill="#000000" font-family="sans-serif" font-size="13" lengthAdjust="spacing" textLength="112.3726" x="57.5" y="541.9976">+fallbackLng: string</text><text fill="#000000" font-family="sans-serif" font-size="13" lengthAdjust="spacing" textLength="196.7012" x="57.5" y="558.3491">+detection: localStorage|navigator</text><text fill="#000000" font-family="sans-serif" font-size="13" lengthAdjust="spacing" textLength="208.5396" x="57.5" y="574.7007">+backend: /locales/{{lng}}/{{ns}}.json</text><line style="stroke:#555555;stroke-width:1;" x1="52.5" x2="271.0396" y1="581.5571" y2="581.5571"/></g><!--class PodStorage--><g class="entity" data-qualified-name="Solid Pod .user-owned..PodStorage" data-source-line="78" id="ent0021"><rect fill="#FFFFFF" height="74.5024" rx="2.5" ry="2.5" style="stroke:#555555;stroke-width:1;" width="101.6636" x="997" y="331"/><rect fill="#EEEEEE" height="42.1509" rx="2.5" ry="2.5" style="stroke:#EEEEEE;stroke-width:1;" width="101.6636" x="997" y="331"/><rect fill="#EEEEEE" height="2.5" style="stroke:#EEEEEE;stroke-width:1;" width="101.6636" x="997" y="370.6509"/><rect fill="none" height="74.5024" rx="2.5" ry="2.5" style="stroke:#555555;stroke-width:1;" width="101.6636" x="997" y="331"/><ellipse cx="1010" cy="352.0754" fill="#FFFFFF" rx="9" ry="9" style="stroke:#000000;stroke-width:1;"/><path d="M1011.4063,353.6536 L1013.2188,354.2317 Q1012.7969,355.7473 1011.8281,356.4973 Q1010.8594,357.2317 1009.3594,357.2317 Q1007.5,357.2317 1006.2969,355.9661 Q1005.1094,354.7004 1005.1094,352.4973 Q1005.1094,350.1848 1006.3125,348.9036 Q1007.5156,347.6067 1009.4688,347.6067 Q1011.1719,347.6067 1012.25,348.6223 Q1012.875,349.2161 1013.2031,350.3411 L1011.3438,350.7786 Q1011.1719,350.0598 1010.6406,349.6379 Q1010.125,349.2161 1009.375,349.2161 Q1008.3438,349.2161 1007.6875,349.9661 Q1007.0469,350.7004 1007.0469,352.3723 Q1007.0469,354.1223 1007.6875,354.8723 Q1008.3281,355.6223 1009.3438,355.6223 Q1010.0938,355.6223 1010.625,355.1536 Q1011.1719,354.6692 1011.4063,353.6536 Z " fill="#000000"/><text fill="#000000" font-family="Verdana" font-size="13" font-style="italic" lengthAdjust="spacing" textLength="77.6636" x="1020" y="349.0698">&#171;container&#187;</text><text fill="#111111" font-family="sans-serif" font-size="13" lengthAdjust="spacing" textLength="68.6626" x="1024.5005" y="365.2944">PodStorage</text><line style="stroke:#555555;stroke-width:1;" x1="998" x2="1097.6636" y1="373.1509" y2="373.1509"/><text fill="#000000" font-family="sans-serif" font-size="13" lengthAdjust="spacing" textLength="61.0518" x="1003" y="390.646">+uri: string</text><line style="stroke:#555555;stroke-width:1;" x1="998" x2="1097.6636" y1="397.5024" y2="397.5024"/></g><!--class AppContainer--><g class="entity" data-qualified-name="Solid Pod .user-owned..AppContainer" data-source-line="82" id="ent0022"><rect fill="#FFFFFF" height="74.5024" rx="2.5" ry="2.5" style="stroke:#555555;stroke-width:1;" width="130.1426" x="990" y="490.5"/><rect fill="#EEEEEE" height="42.1509" rx="2.5" ry="2.5" style="stroke:#EEEEEE;stroke-width:1;" width="130.1426" x="990" y="490.5"/><rect fill="#EEEEEE" height="2.5" style="stroke:#EEEEEE;stroke-width:1;" width="130.1426" x="990" y="530.1509"/><rect fill="none" height="74.5024" rx="2.5" ry="2.5" style="stroke:#555555;stroke-width:1;" width="130.1426" x="990" y="490.5"/><ellipse cx="1013.19" cy="511.5754" fill="#FFFFFF" rx="9" ry="9" style="stroke:#000000;stroke-width:1;"/><path d="M1014.5963,513.1536 L1016.4088,513.7317 Q1015.9869,515.2473 1015.0182,515.9973 Q1014.0494,516.7317 1012.5494,516.7317 Q1010.69,516.7317 1009.4869,515.4661 Q1008.2994,514.2004 1008.2994,511.9973 Q1008.2994,509.6848 1009.5025,508.4036 Q1010.7057,507.1067 1012.6588,507.1067 Q1014.3619,507.1067 1015.44,508.1223 Q1016.065,508.7161 1016.3932,509.8411 L1014.5338,510.2786 Q1014.3619,509.5598 1013.8307,509.1379 Q1013.315,508.7161 1012.565,508.7161 Q1011.5338,508.7161 1010.8775,509.4661 Q1010.2369,510.2004 1010.2369,511.8723 Q1010.2369,513.6223 1010.8775,514.3723 Q1011.5182,515.1223 1012.5338,515.1223 Q1013.2838,515.1223 1013.815,514.6536 Q1014.3619,514.1692 1014.5963,513.1536 Z " fill="#000000"/><text fill="#000000" font-family="Verdana" font-size="13" font-style="italic" lengthAdjust="spacing" textLength="77.6636" x="1028.3717" y="508.5698">&#171;container&#187;</text><text fill="#111111" font-family="sans-serif" font-size="13" lengthAdjust="spacing" textLength="79.498" x="1027.4545" y="524.7944">AppContainer</text><line style="stroke:#555555;stroke-width:1;" x1="991" x2="1119.1426" y1="532.6509" y2="532.6509"/><text fill="#000000" font-family="sans-serif" font-size="13" lengthAdjust="spacing" textLength="118.1426" x="996" y="550.146">+path: my-solid-app/</text><line style="stroke:#555555;stroke-width:1;" x1="991" x2="1119.1426" y1="557.0024" y2="557.0024"/></g><!--class FileContainer--><g class="entity" data-qualified-name="Solid Pod .user-owned..FileContainer" data-source-line="86" id="ent0023"><rect fill="#FFFFFF" height="74.5024" rx="2.5" ry="2.5" style="stroke:#555555;stroke-width:1;" width="105.3145" x="1008.5" y="650"/><rect fill="#EEEEEE" height="42.1509" rx="2.5" ry="2.5" style="stroke:#EEEEEE;stroke-width:1;" width="105.3145" x="1008.5" y="650"/><rect fill="#EEEEEE" height="2.5" style="stroke:#EEEEEE;stroke-width:1;" width="105.3145" x="1008.5" y="689.6509"/><rect fill="none" height="74.5024" rx="2.5" ry="2.5" style="stroke:#555555;stroke-width:1;" width="105.3145" x="1008.5" y="650"/><ellipse cx="1021.5" cy="671.0754" fill="#FFFFFF" rx="9" ry="9" style="stroke:#000000;stroke-width:1;"/><path d="M1022.9063,672.6536 L1024.7188,673.2317 Q1024.2969,674.7473 1023.3281,675.4973 Q1022.3594,676.2317 1020.8594,676.2317 Q1019,676.2317 1017.7969,674.9661 Q1016.6094,673.7004 1016.6094,671.4973 Q1016.6094,669.1848 1017.8125,667.9036 Q1019.0156,666.6067 1020.9688,666.6067 Q1022.6719,666.6067 1023.75,667.6223 Q1024.375,668.2161 1024.7031,669.3411 L1022.8438,669.7786 Q1022.6719,669.0598 1022.1406,668.6379 Q1021.625,668.2161 1020.875,668.2161 Q1019.8438,668.2161 1019.1875,668.9661 Q1018.5469,669.7004 1018.5469,671.3723 Q1018.5469,673.1223 1019.1875,673.8723 Q1019.8281,674.6223 1020.8438,674.6223 Q1021.5938,674.6223 1022.125,674.1536 Q1022.6719,673.6692 1022.9063,672.6536 Z " fill="#000000"/><text fill="#000000" font-family="Verdana" font-size="13" font-style="italic" lengthAdjust="spacing" textLength="77.6636" x="1033.3254" y="668.0698">&#171;container&#187;</text><text fill="#111111" font-family="sans-serif" font-size="13" lengthAdjust="spacing" textLength="77.3145" x="1033.5" y="684.2944">FileContainer</text><line style="stroke:#555555;stroke-width:1;" x1="1009.5" x2="1112.8145" y1="692.1509" y2="692.1509"/><text fill="#000000" font-family="sans-serif" font-size="13" lengthAdjust="spacing" textLength="67.5771" x="1014.5" y="709.646">+path: slug/</text><line style="stroke:#555555;stroke-width:1;" x1="1009.5" x2="1112.8145" y1="716.5024" y2="716.5024"/></g><!--class IndexTTL--><g class="entity" data-qualified-name="Solid Pod .user-owned..IndexTTL" data-source-line="90" id="ent0024"><rect fill="#FFFFFF" height="156.2603" rx="2.5" ry="2.5" style="stroke:#555555;stroke-width:1;" width="152.5435" x="990.5" y="785"/><rect fill="#EEEEEE" height="42.1509" rx="2.5" ry="2.5" style="stroke:#EEEEEE;stroke-width:1;" width="152.5435" x="990.5" y="785"/><rect fill="#EEEEEE" height="2.5" style="stroke:#EEEEEE;stroke-width:1;" width="152.5435" x="990.5" y="824.6509"/><rect fill="none" height="156.2603" rx="2.5" ry="2.5" style="stroke:#555555;stroke-width:1;" width="152.5435" x="990.5" y="785"/><ellipse cx="1028.5195" cy="806.0754" fill="#FFFFFF" rx="9" ry="9" style="stroke:#000000;stroke-width:1;"/><path d="M1029.9258,807.6536 L1031.7383,808.2317 Q1031.3164,809.7473 1030.3477,810.4973 Q1029.3789,811.2317 1027.8789,811.2317 Q1026.0195,811.2317 1024.8164,809.9661 Q1023.6289,808.7004 1023.6289,806.4973 Q1023.6289,804.1848 1024.832,802.9036 Q1026.0352,801.6067 1027.9883,801.6067 Q1029.6914,801.6067 1030.7695,802.6223 Q1031.3945,803.2161 1031.7227,804.3411 L1029.8633,804.7786 Q1029.6914,804.0598 1029.1602,803.6379 Q1028.6445,803.2161 1027.8945,803.2161 Q1026.8633,803.2161 1026.207,803.9661 Q1025.5664,804.7004 1025.5664,806.3723 Q1025.5664,808.1223 1026.207,808.8723 Q1026.8477,809.6223 1027.8633,809.6223 Q1028.6133,809.6223 1029.1445,809.1536 Q1029.6914,808.6692 1029.9258,807.6536 Z " fill="#000000"/><text fill="#000000" font-family="Verdana" font-size="13" font-style="italic" lengthAdjust="spacing" textLength="73.0044" x="1044.0195" y="803.0698">&#171;resource&#187;</text><text fill="#111111" font-family="sans-serif" font-size="13" lengthAdjust="spacing" textLength="54.9136" x="1053.0649" y="819.2944">IndexTTL</text><line style="stroke:#555555;stroke-width:1;" x1="991.5" x2="1142.0435" y1="827.1509" y2="827.1509"/><text fill="#000000" font-family="sans-serif" font-size="13" lengthAdjust="spacing" textLength="79.1235" x="996.5" y="844.646">+name: string</text><text fill="#000000" font-family="sans-serif" font-size="13" lengthAdjust="spacing" textLength="109.4717" x="996.5" y="860.9976">+description: string</text><text fill="#000000" font-family="sans-serif" font-size="13" lengthAdjust="spacing" textLength="140.5435" x="996.5" y="877.3491">+encodingFormat: string</text><text fill="#000000" font-family="sans-serif" font-size="13" lengthAdjust="spacing" textLength="114.5371" x="996.5" y="893.7007">+contentSize: string</text><text fill="#000000" font-family="sans-serif" font-size="13" lengthAdjust="spacing" textLength="106.6152" x="996.5" y="910.0522">+uploadDate: date</text><text fill="#000000" font-family="sans-serif" font-size="13" lengthAdjust="spacing" textLength="84.1826" x="996.5" y="926.4038">+publisher: IRI</text><line style="stroke:#555555;stroke-width:1;" x1="991.5" x2="1142.0435" y1="933.2603" y2="933.2603"/></g><!--class BinaryFile--><g class="entity" data-qualified-name="Solid Pod .user-owned..BinaryFile" data-source-line="99" id="ent0025"><rect fill="#FFFFFF" height="74.5024" rx="2.5" ry="2.5" style="stroke:#555555;stroke-width:1;" width="135.9316" x="1179" y="825.5"/><rect fill="#EEEEEE" height="42.1509" rx="2.5" ry="2.5" style="stroke:#EEEEEE;stroke-width:1;" width="135.9316" x="1179" y="825.5"/><rect fill="#EEEEEE" height="2.5" style="stroke:#EEEEEE;stroke-width:1;" width="135.9316" x="1179" y="865.1509"/><rect fill="none" height="74.5024" rx="2.5" ry="2.5" style="stroke:#555555;stroke-width:1;" width="135.9316" x="1179" y="825.5"/><ellipse cx="1209.5173" cy="846.5754" fill="#FFFFFF" rx="9" ry="9" style="stroke:#000000;stroke-width:1;"/><path d="M1210.9235,848.1536 L1212.736,848.7317 Q1212.3141,850.2473 1211.3454,850.9973 Q1210.3766,851.7317 1208.8766,851.7317 Q1207.0173,851.7317 1205.8141,850.4661 Q1204.6266,849.2004 1204.6266,846.9973 Q1204.6266,844.6848 1205.8298,843.4036 Q1207.0329,842.1067 1208.986,842.1067 Q1210.6891,842.1067 1211.7673,843.1223 Q1212.3923,843.7161 1212.7204,844.8411 L1210.861,845.2786 Q1210.6891,844.5598 1210.1579,844.1379 Q1209.6423,843.7161 1208.8923,843.7161 Q1207.861,843.7161 1207.2048,844.4661 Q1206.5641,845.2004 1206.5641,846.8723 Q1206.5641,848.6223 1207.2048,849.3723 Q1207.8454,850.1223 1208.861,850.1223 Q1209.611,850.1223 1210.1423,849.6536 Q1210.6891,849.1692 1210.9235,848.1536 Z " fill="#000000"/><text fill="#000000" font-family="Verdana" font-size="13" font-style="italic" lengthAdjust="spacing" textLength="73.0044" x="1223.41" y="843.5698">&#171;resource&#187;</text><text fill="#111111" font-family="sans-serif" font-size="13" lengthAdjust="spacing" textLength="57.7954" x="1231.0145" y="859.7944">BinaryFile</text><line style="stroke:#555555;stroke-width:1;" x1="1180" x2="1313.9316" y1="867.6509" y2="867.6509"/><text fill="#000000" font-family="sans-serif" font-size="13" lengthAdjust="spacing" textLength="123.9316" x="1185" y="885.146">+path: original-file.ext</text><line style="stroke:#555555;stroke-width:1;" x1="1180" x2="1313.9316" y1="892.0024" y2="892.0024"/></g><!--link App to Header--><g class="link" data-entity-1="ent0003" data-entity-2="ent0004" data-link-type="dependency" data-source-line="65" id="lnk11"><path codeLine="65" d="M249.75,104.28 C249.75,146.12 249.75,218 249.75,218 C249.75,218 245.85,218 232.69,218" fill="none" id="App-to-Header" style="stroke:#000000;stroke-width:1;"/><polygon fill="#000000" points="226.69,218,235.69,222,231.69,218,235.69,214,226.69,218" style="stroke:#000000;stroke-width:1;"/></g><!--link App to FileExplorer--><g class="link" data-entity-1="ent0003" data-entity-2="ent0006" data-link-type="dependency" data-source-line="66" id="lnk12"><path codeLine="66" d="M342.5,104.17 C342.5,131.44 342.5,168 342.5,168 C342.5,168 376.33,168 420.74,168" fill="none" id="App-to-FileExplorer" style="stroke:#000000;stroke-width:1;"/><polygon fill="#000000" points="426.74,168,417.74,164,421.74,168,417.74,172,426.74,168" style="stroke:#000000;stroke-width:1;"/></g><!--link Header to LanguageSwitcher--><g class="link" data-entity-1="ent0004" data-entity-2="ent0005" data-link-type="dependency" data-source-line="67" id="lnk13"><path codeLine="67" d="M162,263.21 C162,284.74 162,304.12 162,324.56" fill="none" id="Header-to-LanguageSwitcher" style="stroke:#000000;stroke-width:1;"/><polygon fill="#000000" points="162,330.56,166,321.56,162,325.56,158,321.56,162,330.56" style="stroke:#000000;stroke-width:1;"/></g><!--link FileExplorer to FileUpload--><g class="link" data-entity-1="ent0006" data-entity-2="ent0007" data-link-type="dependency" data-source-line="68" id="lnk14"><path codeLine="68" d="M655.75,271.16 C655.75,290.83 655.75,306.66 655.75,324.65" fill="none" id="FileExplorer-to-FileUpload" style="stroke:#000000;stroke-width:1;"/><polygon fill="#000000" points="655.75,330.65,659.75,321.65,655.75,325.65,651.75,321.65,655.75,330.65" style="stroke:#000000;stroke-width:1;"/></g><!--link FileExplorer to FileCard--><g class="link" data-entity-1="ent0006" data-entity-2="ent0008" data-link-type="dependency" data-source-line="69" id="lnk15"><path codeLine="69" d="M436.25,271.16 C436.25,290.83 436.25,306.66 436.25,324.65" fill="none" id="FileExplorer-to-FileCard" style="stroke:#000000;stroke-width:1;"/><polygon fill="#000000" points="436.25,330.65,440.25,321.65,436.25,325.65,432.25,321.65,436.25,330.65" style="stroke:#000000;stroke-width:1;"/></g><!--link FileExplorer to FolderEntry--><g class="link" data-entity-1="ent0006" data-entity-2="ent0009" data-link-type="dependency" data-source-line="70" id="lnk16"><path codeLine="70" d="M546,271.16 C546,290.83 546,306.66 546,324.65" fill="none" id="FileExplorer-to-FolderEntry" style="stroke:#000000;stroke-width:1;"/><polygon fill="#000000" points="546,330.65,550,321.65,546,325.65,542,321.65,546,330.65" style="stroke:#000000;stroke-width:1;"/></g><!--link App to i18n--><g class="link" data-entity-1="ent0003" data-entity-2="ent0010" data-link-type="dependency" data-source-line="71" id="lnk17"><path codeLine="71" d="M266.25,104.03 C266.25,176.47 266.25,360.54 266.25,459.73" fill="none" id="App-to-i18n" style="stroke:#000000;stroke-width:1;stroke-dasharray:7,7;"/><polygon fill="#000000" points="266.25,465.73,270.25,456.73,266.25,460.73,262.25,456.73,266.25,465.73" style="stroke:#000000;stroke-width:1;"/><text fill="#000000" font-family="sans-serif" font-size="13" lengthAdjust="spacing" textLength="27.46" x="238.25" y="281.3751">uses</text></g><!--link Header to i18n--><g class="link" data-entity-1="ent0004" data-entity-2="ent0010" data-link-type="dependency" data-source-line="72" id="lnk18"><path codeLine="72" d="M97.46,218 C76.13,218 57.75,218 57.75,218 C57.75,218 57.75,369.11 57.75,459.64" fill="none" id="Header-to-i18n" style="stroke:#000000;stroke-width:1;stroke-dasharray:7,7;"/><polygon fill="#000000" points="57.75,465.64,61.75,456.64,57.75,460.64,53.75,456.64,57.75,465.64" style="stroke:#000000;stroke-width:1;"/><text fill="#000000" font-family="sans-serif" font-size="13" lengthAdjust="spacing" textLength="27.46" x="29.75" y="318.4551">uses</text></g><!--link LanguageSwitcher to i18n--><g class="link" data-entity-1="ent0005" data-entity-2="ent0010" data-link-type="dependency" data-source-line="73" id="lnk19"><path codeLine="73" d="M162,406.3 C162,424.08 162,439.75 162,459.85" fill="none" id="LanguageSwitcher-to-i18n" style="stroke:#000000;stroke-width:1;stroke-dasharray:7,7;"/><polygon fill="#000000" points="162,465.85,166,456.85,162,460.85,158,456.85,162,465.85" style="stroke:#000000;stroke-width:1;"/><text fill="#000000" font-family="sans-serif" font-size="13" lengthAdjust="spacing" textLength="27.46" x="134" y="432.5651">uses</text></g><!--link PodStorage to AppContainer--><g class="link" data-entity-1="ent0021" data-entity-2="ent0022" data-link-type="dependency" data-source-line="103" id="lnk26"><path codeLine="103" d="M1048,406.3 C1048,431.72 1048,459.1 1048,484.47" fill="none" id="PodStorage-to-AppContainer" style="stroke:#000000;stroke-width:1;"/><polygon fill="#000000" points="1048,490.47,1052,481.47,1048,485.47,1044,481.47,1048,490.47" style="stroke:#000000;stroke-width:1;"/></g><!--link AppContainer to FileContainer--><g class="link" data-entity-1="ent0022" data-entity-2="ent0023" data-link-type="dependency" data-source-line="104" id="lnk27"><path codeLine="104" d="M1061,565.8 C1061,591.22 1061,618.6 1061,643.97" fill="none" id="AppContainer-to-FileContainer" style="stroke:#000000;stroke-width:1;"/><polygon fill="#000000" points="1061,649.97,1065,640.97,1061,644.97,1057,640.97,1061,649.97" style="stroke:#000000;stroke-width:1;"/><text fill="#000000" font-family="sans-serif" font-size="13" lengthAdjust="spacing" textLength="19.5127" x="1040.2667" y="639.1488">1..*</text></g><!--link FileContainer to IndexTTL--><g class="link" data-entity-1="ent0023" data-entity-2="ent0024" data-link-type="dependency" data-source-line="105" id="lnk28"><path codeLine="105" d="M1061,725.15 C1061,742.57 1061,757.96 1061,778.64" fill="none" id="FileContainer-to-IndexTTL" style="stroke:#000000;stroke-width:1;"/><polygon fill="#000000" points="1061,784.64,1065,775.64,1061,779.64,1057,775.64,1061,784.64" style="stroke:#000000;stroke-width:1;"/></g><!--link FileContainer to BinaryFile--><g class="link" data-entity-1="ent0023" data-entity-2="ent0025" data-link-type="dependency" data-source-line="106" id="lnk29"><path codeLine="106" d="M1113.8,688 C1168.79,688 1247,688 1247,688 C1247,688 1247,768.04 1247,819.46" fill="none" id="FileContainer-to-BinaryFile" style="stroke:#000000;stroke-width:1;"/><polygon fill="#000000" points="1247,825.46,1251,816.46,1247,820.46,1243,816.46,1247,825.46" style="stroke:#000000;stroke-width:1;"/></g><!--link FileExplorer to PodStorage--><g class="link" data-entity-1="ent0006" data-entity-2="ent0021" data-link-type="dependency" data-source-line="109" id="lnk30"><path codeLine="109" d="M665.29,218 C813.75,218 1048,218 1048,218 C1048,218 1048,280.33 1048,324.91" fill="none" id="FileExplorer-to-PodStorage" style="stroke:#000000;stroke-width:1;stroke-dasharray:7,7;"/><polygon fill="#000000" points="1048,330.91,1052,321.91,1048,325.91,1044,321.91,1048,330.91" style="stroke:#000000;stroke-width:1;"/><text fill="#000000" font-family="sans-serif" font-size="13" lengthAdjust="spacing" textLength="48.4072" x="864.1" y="214.4951">browses</text></g><!--link FileUpload to AppContainer--><g class="link" data-entity-1="ent0007" data-entity-2="ent0022" data-link-type="dependency" data-source-line="110" id="lnk31"><path codeLine="110" d="M933.54,369 C967.22,369 993.5,369 993.5,369 C993.5,369 993.5,437.3 993.5,484.32" fill="none" id="FileUpload-to-AppContainer" style="stroke:#000000;stroke-width:1;stroke-dasharray:7,7;"/><polygon fill="#000000" points="993.5,490.32,997.5,481.32,993.5,485.32,989.5,481.32,993.5,490.32" style="stroke:#000000;stroke-width:1;"/><text fill="#000000" font-family="sans-serif" font-size="13" lengthAdjust="spacing" textLength="59.9917" x="933.5" y="414.1751">uploads to</text></g><!--link FileCard to FileContainer--><g class="link" data-entity-1="ent0008" data-entity-2="ent0023" data-link-type="dependency" data-source-line="111" id="lnk32"><path codeLine="111" d="M389,406.09 C389,490.55 389,688 389,688 C389,688 843.85,688 1002.27,688" fill="none" id="FileCard-to-FileContainer" style="stroke:#000000;stroke-width:1;stroke-dasharray:7,7;"/><polygon fill="#000000" points="1008.27,688,999.27,684,1003.27,688,999.27,692,1008.27,688" style="stroke:#000000;stroke-width:1;"/><text fill="#000000" font-family="sans-serif" font-size="13" lengthAdjust="spacing" textLength="32.519" x="524.68" y="684.4951">reads</text></g><?plantuml-src bLLTRzCm57tlhp3TImPhnpGXJT5KQIkhg3GXH8TuG3ouoMrgvjYMFzZAw7_dsabQ9qqHU0zJVSwzzzmlvvLTGmb4SSh4m3moeQYc9SbXHHstCodiHugueSAC36YswYSjs2yW5vSHo9a0kr50fBPh6G4PfyRSMAlPqbcOPr84uxU3BeUy30YvfTbZeQKJ-LHogSdNDRFWxwNEGLTt9-_2mLilfRwx20VlFW15PjVFoLquWsqSLY695j0R-6HsvV-weM_2QOU-3AU-MzWD1xJXUJkMaFPO87_U7Wc4FXgLmrijdx0dGtI3xAfcDqgHw-jCbaeA47Oo2J6sUq9LZXuE8M-uB9X8c34ET4eCjaWKfpj8EfkSjftTKr4urB9uOZPR7tERhP463JV9P0wnzyZVZ76uUrQOy35VWlva1RMGECqw4fSQKykqAvTJphB7X8aSdbF2X3qZXsmDND8ywH7mHNcaFxnnovBPP8MqD93FY6MMx_8vmwKmcMRACYd-akIKwYCHSk20wNLjS7v0tmchD_zNbyW7kxWIQ5pAt768Kr8ATnJoUr6OnlJRzmfSKSwNE6-8DL0Zqq9M9SbbHld2IetD_LthaBhk2Tg2o5Do7bXWpbzUk2YsM_mlp7Ox_c6aQ6JwsHsD9lM8HXVnMEmsEY3T0VHB5yzGOrtrz1Zgkz6BxQjUgncF9rKTK-8CcBsOG-1WDxgKU9KNahESV98vIH3J8_aa83zjRJQ2TP7310YBBpReVH-ZnhVxZhgd3RtVL56xJacv6HalOqILEkyPsN_nORWhEhPpluOF3_Tefi58fpE8nxQ4xc0Tx4y5WC270t_Df2wfRMDU3rHVeJRWGj_VusAa9AVXo-6rkYLdPkqVkVddULlkBHDKRtp2lOAhDALc-59IFl8FmHYURUCZQf8VeBZqrGJjg-ZnuSLu_7hOBcyzY6rYKyHUS2_PprHhYltCHPfIiWpV33E87ZhFQId3-Go88LOETg-LfxLZfyI_k6Rm1m00?></g></svg>