<?plantuml 1.2026.2?><svg xmlns="http://www.w3.org/2000/svg" xmlns:xlink="http://www.w3.org/1999/xlink" contentStyleType="text/css" data-diagram-type="CLASS" height="915px" preserveAspectRatio="none" style="width:1033px;height:915px;background:#FFFFFF;" version="1.1" viewBox="0 0 1033 915" width="1033px" zoomAndPan="magnify"><defs/><g><!--cluster Browser--><g class="cluster" data-qualified-name="Browser" data-source-line="26" id="ent0002"><path d="M394.5,11 L447.519,11 A3.75,3.75 0 0 1 450.019,13.5 L457.019,33.3516 L1023.5,33.3516 A2.5,2.5 0 0 1 1026,35.8516 L1026,419.5 A2.5,2.5 0 0 1 1023.5,422 L394.5,422 A2.5,2.5 0 0 1 392,419.5 L392,13.5 A2.5,2.5 0 0 1 394.5,11" fill="#F8F8F8" style="stroke:#AAAAAA;stroke-width:1;"/><line style="stroke:#AAAAAA;stroke-width:1;" x1="392" x2="457.019" y1="33.3516" y2="33.3516"/><text fill="#333333" font-family="sans-serif" font-size="13" font-weight="bold" lengthAdjust="spacing" textLength="52.019" x="396" y="26.4951">Browser</text></g><!--cluster Solid Pod (user-owned)--><g class="cluster" data-qualified-name="Solid Pod .user-owned." data-source-line="61" id="ent0014"><path d="M13.5,296 L159.6646,296 A3.75,3.75 0 0 1 162.1646,298.5 L169.1646,318.3516 L365.5,318.3516 A2.5,2.5 0 0 1 368,320.8516 L368,905.5 A2.5,2.5 0 0 1 365.5,908 L13.5,908 A2.5,2.5 0 0 1 11,905.5 L11,298.5 A2.5,2.5 0 0 1 13.5,296" fill="#F8F8F8" style="stroke:#AAAAAA;stroke-width:1;"/><line style="stroke:#AAAAAA;stroke-width:1;" x1="11" x2="169.1646" y1="318.3516" y2="318.3516"/><text fill="#333333" font-family="sans-serif" font-size="13" font-weight="bold" lengthAdjust="spacing" textLength="145.1646" x="15" y="311.4951">Solid Pod (user-owned)</text></g><!--class App--><g class="entity" data-qualified-name="Browser.App" data-source-line="28" id="ent0003"><rect fill="#FFFFFF" height="58.1509" rx="2.5" ry="2.5" style="stroke:#555555;stroke-width:1;" width="113.3813" x="572.5" y="46"/><rect fill="#EEEEEE" height="42.1509" rx="2.5" ry="2.5" style="stroke:#EEEEEE;stroke-width:1;" width="113.3813" x="572.5" y="46"/><rect fill="#EEEEEE" height="2.5" style="stroke:#EEEEEE;stroke-width:1;" width="113.3813" x="572.5" y="85.6509"/><rect fill="none" height="58.1509" rx="2.5" ry="2.5" style="stroke:#555555;stroke-width:1;" width="113.3813" x="572.5" y="46"/><ellipse cx="585.5" cy="67.0754" fill="#FFFFFF" rx="9" ry="9" style="stroke:#000000;stroke-width:1;"/><path d="M586.9063,68.6536 L588.7188,69.2317 Q588.2969,70.7473 587.3281,71.4973 Q586.3594,72.2317 584.8594,72.2317 Q583,72.2317 581.7969,70.9661 Q580.6094,69.7004 580.6094,67.4973 Q580.6094,65.1848 581.8125,63.9036 Q583.0156,62.6067 584.9688,62.6067 Q586.6719,62.6067 587.75,63.6223 Q588.375,64.2161 588.7031,65.3411 L586.8438,65.7786 Q586.6719,65.0598 586.1406,64.6379 Q585.625,64.2161 584.875,64.2161 Q583.8438,64.2161 583.1875,64.9661 Q582.5469,65.7004 582.5469,67.3723 Q582.5469,69.1223 583.1875,69.8723 Q583.8281,70.6223 584.8438,70.6223 Q585.5938,70.6223 586.125,70.1536 Q586.6719,69.6692 586.9063,68.6536 Z " fill="#000000"/><text fill="#000000" font-family="Verdana" font-size="13" font-style="italic" lengthAdjust="spacing" textLength="89.3813" x="595.5" y="64.0698">&#171;component&#187;</text><text fill="#111111" font-family="sans-serif" font-size="13" lengthAdjust="spacing" textLength="23.1309" x="628.6252" y="80.2944">App</text><line style="stroke:#555555;stroke-width:1;" x1="573.5" x2="684.8813" y1="88.1509" y2="88.1509"/><line style="stroke:#555555;stroke-width:1;" x1="573.5" x2="684.8813" y1="96.1509" y2="96.1509"/></g><!--class Header--><g class="entity" data-qualified-name="Browser.Header" data-source-line="31" id="ent0004"><rect fill="#FFFFFF" height="90.854" rx="2.5" ry="2.5" style="stroke:#555555;stroke-width:1;" width="129.4063" x="455.5" y="172"/><rect fill="#EEEEEE" height="42.1509" rx="2.5" ry="2.5" style="stroke:#EEEEEE;stroke-width:1;" width="129.4063" x="455.5" y="172"/><rect fill="#EEEEEE" height="2.5" style="stroke:#EEEEEE;stroke-width:1;" width="129.4063" x="455.5" y="211.6509"/><rect fill="none" height="90.854" rx="2.5" ry="2.5" style="stroke:#555555;stroke-width:1;" width="129.4063" x="455.5" y="172"/><ellipse cx="475.7112" cy="193.0754" fill="#FFFFFF" rx="9" ry="9" style="stroke:#000000;stroke-width:1;"/><path d="M477.1175,194.6536 L478.93,195.2317 Q478.5081,196.7473 477.5393,197.4973 Q476.5706,198.2317 475.0706,198.2317 Q473.2112,198.2317 472.0081,196.9661 Q470.8206,195.7004 470.8206,193.4973 Q470.8206,191.1848 472.0237,189.9036 Q473.2268,188.6067 475.18,188.6067 Q476.8831,188.6067 477.9612,189.6223 Q478.5862,190.2161 478.9143,191.3411 L477.055,191.7786 Q476.8831,191.0598 476.3518,190.6379 Q475.8362,190.2161 475.0862,190.2161 Q474.055,190.2161 473.3987,190.9661 Q472.7581,191.7004 472.7581,193.3723 Q472.7581,195.1223 473.3987,195.8723 Q474.0393,196.6223 475.055,196.6223 Q475.805,196.6223 476.3362,196.1536 Q476.8831,195.6692 477.1175,194.6536 Z " fill="#000000"/><text fill="#000000" font-family="Verdana" font-size="13" font-style="italic" lengthAdjust="spacing" textLength="89.3813" x="487.3137" y="190.0698">&#171;component&#187;</text><text fill="#111111" font-family="sans-serif" font-size="13" lengthAdjust="spacing" textLength="42.6372" x="510.6858" y="206.2944">Header</text><line style="stroke:#555555;stroke-width:1;" x1="456.5" x2="583.9063" y1="214.1509" y2="214.1509"/><line style="stroke:#555555;stroke-width:1;" x1="456.5" x2="583.9063" y1="222.1509" y2="222.1509"/><text fill="#000000" font-family="sans-serif" font-size="13" lengthAdjust="spacing" textLength="117.4063" x="461.5" y="239.646">+login(issuer: string)</text><text fill="#000000" font-family="sans-serif" font-size="13" lengthAdjust="spacing" textLength="51.6699" x="461.5" y="255.9976">+logout()</text></g><!--class FileExplorer--><g class="entity" data-qualified-name="Browser.FileExplorer" data-source-line="36" id="ent0005"><rect fill="#FFFFFF" height="107.2056" rx="2.5" ry="2.5" style="stroke:#555555;stroke-width:1;" width="238.4971" x="620" y="164"/><rect fill="#EEEEEE" height="42.1509" rx="2.5" ry="2.5" style="stroke:#EEEEEE;stroke-width:1;" width="238.4971" x="620" y="164"/><rect fill="#EEEEEE" height="2.5" style="stroke:#EEEEEE;stroke-width:1;" width="238.4971" x="620" y="203.6509"/><rect fill="none" height="107.2056" rx="2.5" ry="2.5" style="stroke:#555555;stroke-width:1;" width="238.4971" x="620" y="164"/><ellipse cx="692.8079" cy="185.0754" fill="#FFFFFF" rx="9" ry="9" style="stroke:#000000;stroke-width:1;"/><path d="M694.2141,186.6536 L696.0266,187.2317 Q695.6047,188.7473 694.636,189.4973 Q693.6672,190.2317 692.1672,190.2317 Q690.3079,190.2317 689.1047,188.9661 Q687.9172,187.7004 687.9172,185.4973 Q687.9172,183.1848 689.1204,181.9036 Q690.3235,180.6067 692.2766,180.6067 Q693.9797,180.6067 695.0579,181.6223 Q695.6829,182.2161 696.011,183.3411 L694.1516,183.7786 Q693.9797,183.0598 693.4485,182.6379 Q692.9329,182.2161 692.1829,182.2161 Q691.1516,182.2161 690.4954,182.9661 Q689.8547,183.7004 689.8547,185.3723 Q689.8547,187.1223 690.4954,187.8723 Q691.136,188.6223 692.1516,188.6223 Q692.9016,188.6223 693.4329,188.1536 Q693.9797,187.6692 694.2141,186.6536 Z " fill="#000000"/><text fill="#000000" font-family="Verdana" font-size="13" font-style="italic" lengthAdjust="spacing" textLength="89.3813" x="708.3079" y="182.0698">&#171;component&#187;</text><text fill="#111111" font-family="sans-serif" font-size="13" lengthAdjust="spacing" textLength="69.3545" x="718.3213" y="198.2944">FileExplorer</text><line style="stroke:#555555;stroke-width:1;" x1="621" x2="857.4971" y1="206.1509" y2="206.1509"/><line style="stroke:#555555;stroke-width:1;" x1="621" x2="857.4971" y1="214.1509" y2="214.1509"/><text fill="#000000" font-family="sans-serif" font-size="13" lengthAdjust="spacing" textLength="118.8599" x="626" y="231.646">+navigate(uri: string)</text><text fill="#000000" font-family="sans-serif" font-size="13" lengthAdjust="spacing" textLength="226.4971" x="626" y="247.9976">+breadcrumbClick(index: int, uri: string)</text><text fill="#000000" font-family="sans-serif" font-size="13" lengthAdjust="spacing" textLength="52.3872" x="626" y="264.3491">+reload()</text></g><!--class FileUpload--><g class="entity" data-qualified-name="Browser.FileUpload" data-source-line="42" id="ent0006"><rect fill="#FFFFFF" height="74.5024" rx="2.5" ry="2.5" style="stroke:#555555;stroke-width:1;" width="286.8979" x="408.5" y="331"/><rect fill="#EEEEEE" height="42.1509" rx="2.5" ry="2.5" style="stroke:#EEEEEE;stroke-width:1;" width="286.8979" x="408.5" y="331"/><rect fill="#EEEEEE" height="2.5" style="stroke:#EEEEEE;stroke-width:1;" width="286.8979" x="408.5" y="370.6509"/><rect fill="none" height="74.5024" rx="2.5" ry="2.5" style="stroke:#555555;stroke-width:1;" width="286.8979" x="408.5" y="331"/><ellipse cx="505.5083" cy="352.0754" fill="#FFFFFF" rx="9" ry="9" style="stroke:#000000;stroke-width:1;"/><path d="M506.9146,353.6536 L508.7271,354.2317 Q508.3052,355.7473 507.3364,356.4973 Q506.3677,357.2317 504.8677,357.2317 Q503.0083,357.2317 501.8052,355.9661 Q500.6177,354.7004 500.6177,352.4973 Q500.6177,350.1848 501.8208,348.9036 Q503.0239,347.6067 504.9771,347.6067 Q506.6802,347.6067 507.7583,348.6223 Q508.3833,349.2161 508.7114,350.3411 L506.8521,350.7786 Q506.6802,350.0598 506.1489,349.6379 Q505.6333,349.2161 504.8833,349.2161 Q503.8521,349.2161 503.1958,349.9661 Q502.5552,350.7004 502.5552,352.3723 Q502.5552,354.1223 503.1958,354.8723 Q503.8364,355.6223 504.8521,355.6223 Q505.6021,355.6223 506.1333,355.1536 Q506.6802,354.6692 506.9146,353.6536 Z " fill="#000000"/><text fill="#000000" font-family="Verdana" font-size="13" font-style="italic" lengthAdjust="spacing" textLength="89.3813" x="521.0083" y="349.0698">&#171;component&#187;</text><text fill="#111111" font-family="sans-serif" font-size="13" lengthAdjust="spacing" textLength="62.1436" x="534.6272" y="365.2944">FileUpload</text><line style="stroke:#555555;stroke-width:1;" x1="409.5" x2="694.3979" y1="373.1509" y2="373.1509"/><line style="stroke:#555555;stroke-width:1;" x1="409.5" x2="694.3979" y1="381.1509" y2="381.1509"/><text fill="#000000" font-family="sans-serif" font-size="13" lengthAdjust="spacing" textLength="274.8979" x="414.5" y="398.646">+submit(file: File, title: string, description: string)</text></g><!--class FileCard--><g class="entity" data-qualified-name="Browser.FileCard" data-source-line="46" id="ent0007"><rect fill="#FFFFFF" height="74.5024" rx="2.5" ry="2.5" style="stroke:#555555;stroke-width:1;" width="113.3813" x="730.5" y="331"/><rect fill="#EEEEEE" height="42.1509" rx="2.5" ry="2.5" style="stroke:#EEEEEE;stroke-width:1;" width="113.3813" x="730.5" y="331"/><rect fill="#EEEEEE" height="2.5" style="stroke:#EEEEEE;stroke-width:1;" width="113.3813" x="730.5" y="370.6509"/><rect fill="none" height="74.5024" rx="2.5" ry="2.5" style="stroke:#555555;stroke-width:1;" width="113.3813" x="730.5" y="331"/><ellipse cx="743.5" cy="352.0754" fill="#FFFFFF" rx="9" ry="9" style="stroke:#000000;stroke-width:1;"/><path d="M744.9063,353.6536 L746.7188,354.2317 Q746.2969,355.7473 745.3281,356.4973 Q744.3594,357.2317 742.8594,357.2317 Q741,357.2317 739.7969,355.9661 Q738.6094,354.7004 738.6094,352.4973 Q738.6094,350.1848 739.8125,348.9036 Q741.0156,347.6067 742.9688,347.6067 Q744.6719,347.6067 745.75,348.6223 Q746.375,349.2161 746.7031,350.3411 L744.8438,350.7786 Q744.6719,350.0598 744.1406,349.6379 Q743.625,349.2161 742.875,349.2161 Q741.8438,349.2161 741.1875,349.9661 Q740.5469,350.7004 740.5469,352.3723 Q740.5469,354.1223 741.1875,354.8723 Q741.8281,355.6223 742.8438,355.6223 Q743.5938,355.6223 744.125,355.1536 Q744.6719,354.6692 744.9063,353.6536 Z " fill="#000000"/><text fill="#000000" font-family="Verdana" font-size="13" font-style="italic" lengthAdjust="spacing" textLength="89.3813" x="753.5" y="349.0698">&#171;component&#187;</text><text fill="#111111" font-family="sans-serif" font-size="13" lengthAdjust="spacing" textLength="49.1245" x="773.6284" y="365.2944">FileCard</text><line style="stroke:#555555;stroke-width:1;" x1="731.5" x2="842.8813" y1="373.1509" y2="373.1509"/><line style="stroke:#555555;stroke-width:1;" x1="731.5" x2="842.8813" y1="381.1509" y2="381.1509"/><text fill="#000000" font-family="sans-serif" font-size="13" lengthAdjust="spacing" textLength="51.6699" x="736.5" y="398.646">+delete()</text></g><!--class FolderEntry--><g class="entity" data-qualified-name="Browser.FolderEntry" data-source-line="50" id="ent0008"><rect fill="#FFFFFF" height="74.5024" rx="2.5" ry="2.5" style="stroke:#555555;stroke-width:1;" width="130.8599" x="878.5" y="331"/><rect fill="#EEEEEE" height="42.1509" rx="2.5" ry="2.5" style="stroke:#EEEEEE;stroke-width:1;" width="130.8599" x="878.5" y="331"/><rect fill="#EEEEEE" height="2.5" style="stroke:#EEEEEE;stroke-width:1;" width="130.8599" x="878.5" y="370.6509"/><rect fill="none" height="74.5024" rx="2.5" ry="2.5" style="stroke:#555555;stroke-width:1;" width="130.8599" x="878.5" y="331"/><ellipse cx="899.3653" cy="352.0754" fill="#FFFFFF" rx="9" ry="9" style="stroke:#000000;stroke-width:1;"/><path d="M900.7716,353.6536 L902.5841,354.2317 Q902.1622,355.7473 901.1935,356.4973 Q900.2247,357.2317 898.7247,357.2317 Q896.8653,357.2317 895.6622,355.9661 Q894.4747,354.7004 894.4747,352.4973 Q894.4747,350.1848 895.6778,348.9036 Q896.881,347.6067 898.8341,347.6067 Q900.5372,347.6067 901.6153,348.6223 Q902.2403,349.2161 902.5685,350.3411 L900.7091,350.7786 Q900.5372,350.0598 900.006,349.6379 Q899.4903,349.2161 898.7403,349.2161 Q897.7091,349.2161 897.0528,349.9661 Q896.4122,350.7004 896.4122,352.3723 Q896.4122,354.1223 897.0528,354.8723 Q897.6935,355.6223 898.7091,355.6223 Q899.4591,355.6223 899.9903,355.1536 Q900.5372,354.6692 900.7716,353.6536 Z " fill="#000000"/><text fill="#000000" font-family="Verdana" font-size="13" font-style="italic" lengthAdjust="spacing" textLength="89.3813" x="911.1132" y="349.0698">&#171;component&#187;</text><text fill="#111111" font-family="sans-serif" font-size="13" lengthAdjust="spacing" textLength="67.1899" x="922.2089" y="365.2944">FolderEntry</text><line style="stroke:#555555;stroke-width:1;" x1="879.5" x2="1008.3599" y1="373.1509" y2="373.1509"/><line style="stroke:#555555;stroke-width:1;" x1="879.5" x2="1008.3599" y1="381.1509" y2="381.1509"/><text fill="#000000" font-family="sans-serif" font-size="13" lengthAdjust="spacing" textLength="118.8599" x="884.5" y="398.646">+navigate(uri: string)</text></g><!--class PodStorage--><g class="entity" data-qualified-name="Solid Pod .user-owned..PodStorage" data-source-line="63" id="ent0015"><rect fill="#FFFFFF" height="74.5024" rx="2.5" ry="2.5" style="stroke:#555555;stroke-width:1;" width="101.6636" x="243" y="331"/><rect fill="#EEEEEE" height="42.1509" rx="2.5" ry="2.5" style="stroke:#EEEEEE;stroke-width:1;" width="101.6636" x="243" y="331"/><rect fill="#EEEEEE" height="2.5" style="stroke:#EEEEEE;stroke-width:1;" width="101.6636" x="243" y="370.6509"/><rect fill="none" height="74.5024" rx="2.5" ry="2.5" style="stroke:#555555;stroke-width:1;" width="101.6636" x="243" y="331"/><ellipse cx="256" cy="352.0754" fill="#FFFFFF" rx="9" ry="9" style="stroke:#000000;stroke-width:1;"/><path d="M257.4063,353.6536 L259.2188,354.2317 Q258.7969,355.7473 257.8281,356.4973 Q256.8594,357.2317 255.3594,357.2317 Q253.5,357.2317 252.2969,355.9661 Q251.1094,354.7004 251.1094,352.4973 Q251.1094,350.1848 252.3125,348.9036 Q253.5156,347.6067 255.4688,347.6067 Q257.1719,347.6067 258.25,348.6223 Q258.875,349.2161 259.2031,350.3411 L257.3438,350.7786 Q257.1719,350.0598 256.6406,349.6379 Q256.125,349.2161 255.375,349.2161 Q254.3438,349.2161 253.6875,349.9661 Q253.0469,350.7004 253.0469,352.3723 Q253.0469,354.1223 253.6875,354.8723 Q254.3281,355.6223 255.3438,355.6223 Q256.0938,355.6223 256.625,355.1536 Q257.1719,354.6692 257.4063,353.6536 Z " fill="#000000"/><text fill="#000000" font-family="Verdana" font-size="13" font-style="italic" lengthAdjust="spacing" textLength="77.6636" x="266" y="349.0698">&#171;container&#187;</text><text fill="#111111" font-family="sans-serif" font-size="13" lengthAdjust="spacing" textLength="68.6626" x="270.5005" y="365.2944">PodStorage</text><line style="stroke:#555555;stroke-width:1;" x1="244" x2="343.6636" y1="373.1509" y2="373.1509"/><text fill="#000000" font-family="sans-serif" font-size="13" lengthAdjust="spacing" textLength="61.0518" x="249" y="390.646">+uri: string</text><line style="stroke:#555555;stroke-width:1;" x1="244" x2="343.6636" y1="397.5024" y2="397.5024"/></g><!--class AppContainer--><g class="entity" data-qualified-name="Solid Pod .user-owned..AppContainer" data-source-line="67" id="ent0016"><rect fill="#FFFFFF" height="74.5024" rx="2.5" ry="2.5" style="stroke:#555555;stroke-width:1;" width="130.1426" x="222" y="466"/><rect fill="#EEEEEE" height="42.1509" rx="2.5" ry="2.5" style="stroke:#EEEEEE;stroke-width:1;" width="130.1426" x="222" y="466"/><rect fill="#EEEEEE" height="2.5" style="stroke:#EEEEEE;stroke-width:1;" width="130.1426" x="222" y="505.6509"/><rect fill="none" height="74.5024" rx="2.5" ry="2.5" style="stroke:#555555;stroke-width:1;" width="130.1426" x="222" y="466"/><ellipse cx="245.19" cy="487.0754" fill="#FFFFFF" rx="9" ry="9" style="stroke:#000000;stroke-width:1;"/><path d="M246.5963,488.6536 L248.4088,489.2317 Q247.9869,490.7473 247.0182,491.4973 Q246.0494,492.2317 244.5494,492.2317 Q242.69,492.2317 241.4869,490.9661 Q240.2994,489.7004 240.2994,487.4973 Q240.2994,485.1848 241.5025,483.9036 Q242.7057,482.6067 244.6588,482.6067 Q246.3619,482.6067 247.44,483.6223 Q248.065,484.2161 248.3932,485.3411 L246.5338,485.7786 Q246.3619,485.0598 245.8307,484.6379 Q245.315,484.2161 244.565,484.2161 Q243.5338,484.2161 242.8775,484.9661 Q242.2369,485.7004 242.2369,487.3723 Q242.2369,489.1223 242.8775,489.8723 Q243.5182,490.6223 244.5338,490.6223 Q245.2838,490.6223 245.815,490.1536 Q246.3619,489.6692 246.5963,488.6536 Z " fill="#000000"/><text fill="#000000" font-family="Verdana" font-size="13" font-style="italic" lengthAdjust="spacing" textLength="77.6636" x="260.3717" y="484.0698">&#171;container&#187;</text><text fill="#111111" font-family="sans-serif" font-size="13" lengthAdjust="spacing" textLength="79.498" x="259.4545" y="500.2944">AppContainer</text><line style="stroke:#555555;stroke-width:1;" x1="223" x2="351.1426" y1="508.1509" y2="508.1509"/><text fill="#000000" font-family="sans-serif" font-size="13" lengthAdjust="spacing" textLength="118.1426" x="228" y="525.646">+path: my-solid-app/</text><line style="stroke:#555555;stroke-width:1;" x1="223" x2="351.1426" y1="532.5024" y2="532.5024"/></g><!--class FileContainer--><g class="entity" data-qualified-name="Solid Pod .user-owned..FileContainer" data-source-line="71" id="ent0017"><rect fill="#FFFFFF" height="74.5024" rx="2.5" ry="2.5" style="stroke:#555555;stroke-width:1;" width="105.3145" x="232.5" y="601"/><rect fill="#EEEEEE" height="42.1509" rx="2.5" ry="2.5" style="stroke:#EEEEEE;stroke-width:1;" width="105.3145" x="232.5" y="601"/><rect fill="#EEEEEE" height="2.5" style="stroke:#EEEEEE;stroke-width:1;" width="105.3145" x="232.5" y="640.6509"/><rect fill="none" height="74.5024" rx="2.5" ry="2.5" style="stroke:#555555;stroke-width:1;" width="105.3145" x="232.5" y="601"/><ellipse cx="245.5" cy="622.0754" fill="#FFFFFF" rx="9" ry="9" style="stroke:#000000;stroke-width:1;"/><path d="M246.9063,623.6536 L248.7188,624.2317 Q248.2969,625.7473 247.3281,626.4973 Q246.3594,627.2317 244.8594,627.2317 Q243,627.2317 241.7969,625.9661 Q240.6094,624.7004 240.6094,622.4973 Q240.6094,620.1848 241.8125,618.9036 Q243.0156,617.6067 244.9688,617.6067 Q246.6719,617.6067 247.75,618.6223 Q248.375,619.2161 248.7031,620.3411 L246.8438,620.7786 Q246.6719,620.0598 246.1406,619.6379 Q245.625,619.2161 244.875,619.2161 Q243.8438,619.2161 243.1875,619.9661 Q242.5469,620.7004 242.5469,622.3723 Q242.5469,624.1223 243.1875,624.8723 Q243.8281,625.6223 244.8438,625.6223 Q245.5938,625.6223 246.125,625.1536 Q246.6719,624.6692 246.9063,623.6536 Z " fill="#000000"/><text fill="#000000" font-family="Verdana" font-size="13" font-style="italic" lengthAdjust="spacing" textLength="77.6636" x="257.3254" y="619.0698">&#171;container&#187;</text><text fill="#111111" font-family="sans-serif" font-size="13" lengthAdjust="spacing" textLength="77.3145" x="257.5" y="635.2944">FileContainer</text><line style="stroke:#555555;stroke-width:1;" x1="233.5" x2="336.8145" y1="643.1509" y2="643.1509"/><text fill="#000000" font-family="sans-serif" font-size="13" lengthAdjust="spacing" textLength="67.5771" x="238.5" y="660.646">+path: slug/</text><line style="stroke:#555555;stroke-width:1;" x1="233.5" x2="336.8145" y1="667.5024" y2="667.5024"/></g><!--class IndexTTL--><g class="entity" data-qualified-name="Solid Pod .user-owned..IndexTTL" data-source-line="75" id="ent0018"><rect fill="#FFFFFF" height="156.2603" rx="2.5" ry="2.5" style="stroke:#555555;stroke-width:1;" width="152.5435" x="27.5" y="736"/><rect fill="#EEEEEE" height="42.1509" rx="2.5" ry="2.5" style="stroke:#EEEEEE;stroke-width:1;" width="152.5435" x="27.5" y="736"/><rect fill="#EEEEEE" height="2.5" style="stroke:#EEEEEE;stroke-width:1;" width="152.5435" x="27.5" y="775.6509"/><rect fill="none" height="156.2603" rx="2.5" ry="2.5" style="stroke:#555555;stroke-width:1;" width="152.5435" x="27.5" y="736"/><ellipse cx="65.5195" cy="757.0754" fill="#FFFFFF" rx="9" ry="9" style="stroke:#000000;stroke-width:1;"/><path d="M66.9258,758.6536 L68.7383,759.2317 Q68.3164,760.7473 67.3477,761.4973 Q66.3789,762.2317 64.8789,762.2317 Q63.0195,762.2317 61.8164,760.9661 Q60.6289,759.7004 60.6289,757.4973 Q60.6289,755.1848 61.832,753.9036 Q63.0352,752.6067 64.9883,752.6067 Q66.6914,752.6067 67.7695,753.6223 Q68.3945,754.2161 68.7227,755.3411 L66.8633,755.7786 Q66.6914,755.0598 66.1602,754.6379 Q65.6445,754.2161 64.8945,754.2161 Q63.8633,754.2161 63.207,754.9661 Q62.5664,755.7004 62.5664,757.3723 Q62.5664,759.1223 63.207,759.8723 Q63.8477,760.6223 64.8633,760.6223 Q65.6133,760.6223 66.1445,760.1536 Q66.6914,759.6692 66.9258,758.6536 Z " fill="#000000"/><text fill="#000000" font-family="Verdana" font-size="13" font-style="italic" lengthAdjust="spacing" textLength="73.0044" x="81.0195" y="754.0698">&#171;resource&#187;</text><text fill="#111111" font-family="sans-serif" font-size="13" lengthAdjust="spacing" textLength="54.9136" x="90.0649" y="770.2944">IndexTTL</text><line style="stroke:#555555;stroke-width:1;" x1="28.5" x2="179.0435" y1="778.1509" y2="778.1509"/><text fill="#000000" font-family="sans-serif" font-size="13" lengthAdjust="spacing" textLength="79.1235" x="33.5" y="795.646">+name: string</text><text fill="#000000" font-family="sans-serif" font-size="13" lengthAdjust="spacing" textLength="109.4717" x="33.5" y="811.9976">+description: string</text><text fill="#000000" font-family="sans-serif" font-size="13" lengthAdjust="spacing" textLength="140.5435" x="33.5" y="828.3491">+encodingFormat: string</text><text fill="#000000" font-family="sans-serif" font-size="13" lengthAdjust="spacing" textLength="114.5371" x="33.5" y="844.7007">+contentSize: string</text><text fill="#000000" font-family="sans-serif" font-size="13" lengthAdjust="spacing" textLength="106.6152" x="33.5" y="861.0522">+uploadDate: date</text><text fill="#000000" font-family="sans-serif" font-size="13" lengthAdjust="spacing" textLength="84.1826" x="33.5" y="877.4038">+publisher: IRI</text><line style="stroke:#555555;stroke-width:1;" x1="28.5" x2="179.0435" y1="884.2603" y2="884.2603"/></g><!--class BinaryFile--><g class="entity" data-qualified-name="Solid Pod .user-owned..BinaryFile" data-source-line="84" id="ent0019"><rect fill="#FFFFFF" height="74.5024" rx="2.5" ry="2.5" style="stroke:#555555;stroke-width:1;" width="135.9316" x="216" y="776.5"/><rect fill="#EEEEEE" height="42.1509" rx="2.5" ry="2.5" style="stroke:#EEEEEE;stroke-width:1;" width="135.9316" x="216" y="776.5"/><rect fill="#EEEEEE" height="2.5" style="stroke:#EEEEEE;stroke-width:1;" width="135.9316" x="216" y="816.1509"/><rect fill="none" height="74.5024" rx="2.5" ry="2.5" style="stroke:#555555;stroke-width:1;" width="135.9316" x="216" y="776.5"/><ellipse cx="246.5173" cy="797.5754" fill="#FFFFFF" rx="9" ry="9" style="stroke:#000000;stroke-width:1;"/><path d="M247.9235,799.1536 L249.736,799.7317 Q249.3141,801.2473 248.3454,801.9973 Q247.3766,802.7317 245.8766,802.7317 Q244.0173,802.7317 242.8141,801.4661 Q241.6266,800.2004 241.6266,797.9973 Q241.6266,795.6848 242.8298,794.4036 Q244.0329,793.1067 245.986,793.1067 Q247.6891,793.1067 248.7673,794.1223 Q249.3923,794.7161 249.7204,795.8411 L247.861,796.2786 Q247.6891,795.5598 247.1579,795.1379 Q246.6423,794.7161 245.8923,794.7161 Q244.861,794.7161 244.2048,795.4661 Q243.5641,796.2004 243.5641,797.8723 Q243.5641,799.6223 244.2048,800.3723 Q244.8454,801.1223 245.861,801.1223 Q246.611,801.1223 247.1423,800.6536 Q247.6891,800.1692 247.9235,799.1536 Z " fill="#000000"/><text fill="#000000" font-family="Verdana" font-size="13" font-style="italic" lengthAdjust="spacing" textLength="73.0044" x="260.41" y="794.5698">&#171;resource&#187;</text><text fill="#111111" font-family="sans-serif" font-size="13" lengthAdjust="spacing" textLength="57.7954" x="268.0145" y="810.7944">BinaryFile</text><line style="stroke:#555555;stroke-width:1;" x1="217" x2="350.9316" y1="818.6509" y2="818.6509"/><text fill="#000000" font-family="sans-serif" font-size="13" lengthAdjust="spacing" textLength="123.9316" x="222" y="836.146">+path: original-file.ext</text><line style="stroke:#555555;stroke-width:1;" x1="217" x2="350.9316" y1="843.0024" y2="843.0024"/></g><!--link App to Header--><g class="link" data-entity-1="ent0003" data-entity-2="ent0004" data-link-type="dependency" data-source-line="54" id="lnk9"><path codeLine="54" d="M578.5,104.18 C578.5,123.64 578.5,143.63 578.5,165.8" fill="none" id="App-to-Header" style="stroke:#000000;stroke-width:1;"/><polygon fill="#000000" points="578.5,171.8,582.5,162.8,578.5,166.8,574.5,162.8,578.5,171.8" style="stroke:#000000;stroke-width:1;"/></g><!--link App to FileExplorer--><g class="link" data-entity-1="ent0003" data-entity-2="ent0005" data-link-type="dependency" data-source-line="55" id="lnk10"><path codeLine="55" d="M652.75,104.18 C652.75,121.36 652.75,137.63 652.75,157.87" fill="none" id="App-to-FileExplorer" style="stroke:#000000;stroke-width:1;"/><polygon fill="#000000" points="652.75,163.87,656.75,154.87,652.75,158.87,648.75,154.87,652.75,163.87" style="stroke:#000000;stroke-width:1;"/></g><!--link FileExplorer to FileUpload--><g class="link" data-entity-1="ent0005" data-entity-2="ent0006" data-link-type="dependency" data-source-line="56" id="lnk11"><path codeLine="56" d="M657.75,271.16 C657.75,290.83 657.75,306.66 657.75,324.65" fill="none" id="FileExplorer-to-FileUpload" style="stroke:#000000;stroke-width:1;"/><polygon fill="#000000" points="657.75,330.65,661.75,321.65,657.75,325.65,653.75,321.65,657.75,330.65" style="stroke:#000000;stroke-width:1;"/></g><!--link FileExplorer to FileCard--><g class="link" data-entity-1="ent0005" data-entity-2="ent0007" data-link-type="dependency" data-source-line="57" id="lnk12"><path codeLine="57" d="M787,271.16 C787,290.83 787,306.66 787,324.65" fill="none" id="FileExplorer-to-FileCard" style="stroke:#000000;stroke-width:1;"/><polygon fill="#000000" points="787,330.65,791,321.65,787,325.65,783,321.65,787,330.65" style="stroke:#000000;stroke-width:1;"/></g><!--link FileExplorer to FolderEntry--><g class="link" data-entity-1="ent0005" data-entity-2="ent0008" data-link-type="dependency" data-source-line="58" id="lnk13"><path codeLine="58" d="M850.75,271.34 C850.75,314.89 850.75,369 850.75,369 C850.75,369 856.92,369 872.48,369" fill="none" id="FileExplorer-to-FolderEntry" style="stroke:#000000;stroke-width:1;"/><polygon fill="#000000" points="878.48,369,869.48,365,873.48,369,869.48,373,878.48,369" style="stroke:#000000;stroke-width:1;"/></g><!--link PodStorage to AppContainer--><g class="link" data-entity-1="ent0015" data-entity-2="ent0016" data-link-type="dependency" data-source-line="88" id="lnk20"><path codeLine="88" d="M294,406.11 C294,424.67 294,441.02 294,459.63" fill="none" id="PodStorage-to-AppContainer" style="stroke:#000000;stroke-width:1;"/><polygon fill="#000000" points="294,465.63,298,456.63,294,460.63,290,456.63,294,465.63" style="stroke:#000000;stroke-width:1;"/></g><!--link AppContainer to FileContainer--><g class="link" data-entity-1="ent0016" data-entity-2="ent0017" data-link-type="dependency" data-source-line="89" id="lnk21"><path codeLine="89" d="M285,541.11 C285,559.67 285,576.02 285,594.63" fill="none" id="AppContainer-to-FileContainer" style="stroke:#000000;stroke-width:1;"/><polygon fill="#000000" points="285,600.63,289,591.63,285,595.63,281,591.63,285,600.63" style="stroke:#000000;stroke-width:1;"/><text fill="#000000" font-family="sans-serif" font-size="13" lengthAdjust="spacing" textLength="19.5127" x="264.3255" y="590.0301">1..*</text></g><!--link FileContainer to IndexTTL--><g class="link" data-entity-1="ent0017" data-entity-2="ent0018" data-link-type="dependency" data-source-line="90" id="lnk22"><path codeLine="90" d="M267.5,676.32 C267.5,711 267.5,757 267.5,757 C267.5,757 229.37,757 186.96,757" fill="none" id="FileContainer-to-IndexTTL" style="stroke:#000000;stroke-width:1;"/><polygon fill="#000000" points="180.96,757,189.96,761,185.96,757,189.96,753,180.96,757" style="stroke:#000000;stroke-width:1;"/></g><!--link FileContainer to BinaryFile--><g class="link" data-entity-1="ent0017" data-entity-2="ent0019" data-link-type="dependency" data-source-line="91" id="lnk23"><path codeLine="91" d="M302.5,676.15 C302.5,705.76 302.5,740.82 302.5,770.41" fill="none" id="FileContainer-to-BinaryFile" style="stroke:#000000;stroke-width:1;"/><polygon fill="#000000" points="302.5,776.41,306.5,767.41,302.5,771.41,298.5,767.41,302.5,776.41" style="stroke:#000000;stroke-width:1;"/></g><!--link FileExplorer to PodStorage--><g class="link" data-entity-1="ent0005" data-entity-2="ent0015" data-link-type="dependency" data-source-line="94" id="lnk24"><path codeLine="94" d="M619.75,267 C487.93,267 294,267 294,267 C294,267 294,296.08 294,324.99" fill="none" id="FileExplorer-to-PodStorage" style="stroke:#000000;stroke-width:1;stroke-dasharray:7,7;"/><polygon fill="#000000" points="294,330.99,298,321.99,294,325.99,290,321.99,294,330.99" style="stroke:#000000;stroke-width:1;"/><text fill="#000000" font-family="sans-serif" font-size="13" lengthAdjust="spacing" textLength="48.4072" x="375.88" y="263.4951">browses</text></g><!--link FileUpload to AppContainer--><g class="link" data-entity-1="ent0006" data-entity-2="ent0016" data-link-type="dependency" data-source-line="95" id="lnk25"><path codeLine="95" d="M408.46,369 C374.78,369 348.5,369 348.5,369 C348.5,369 348.5,419.89 348.5,459.68" fill="none" id="FileUpload-to-AppContainer" style="stroke:#000000;stroke-width:1;stroke-dasharray:7,7;"/><polygon fill="#000000" points="348.5,465.68,352.5,456.68,348.5,460.68,344.5,456.68,348.5,465.68" style="stroke:#000000;stroke-width:1;"/><text fill="#000000" font-family="sans-serif" font-size="13" lengthAdjust="spacing" textLength="59.9917" x="349.5" y="383.8551">uploads to</text></g><!--link FileCard to FileContainer--><g class="link" data-entity-1="ent0007" data-entity-2="ent0017" data-link-type="dependency" data-source-line="96" id="lnk26"><path codeLine="96" d="M787,406.11 C787,480.44 787,639 787,639 C787,639 472.66,639 343.77,639" fill="none" id="FileCard-to-FileContainer" style="stroke:#000000;stroke-width:1;stroke-dasharray:7,7;"/><polygon fill="#000000" points="337.77,639,346.77,643,342.77,639,346.77,635,337.77,639" style="stroke:#000000;stroke-width:1;"/><text fill="#000000" font-family="sans-serif" font-size="13" lengthAdjust="spacing" textLength="32.519" x="645.83" y="635.4951">reads</text></g><?plantuml-src bLJVQzim47xtNw6bB-bMPorbC4m9j5d30cECfMFFYdrDH6MTa4vhiz7_VPASD9Bhm7P-ydsVxhxx8RsX3RJ0jEH25VP1ACqDRra3zzn9cgEYhzpZbYjRMZ3YVfYq5B-1NLmce1GAQAk1eQ4D9a0jkRNNH4Qi7C6YHXKFdnTz3ljJC7R3wuUrGQUQ6KeqxET640G_cWPCvplv4CrxWvITxoAQztq6xfdzE2UtqOhdDAts9Bw6mSGdyu_XwwU-ZfQdleosyorfAy6VaKsUIo4TInJi_4WY7sElSdHZyD7FPEJ3U7RNiskjsTLLZQr61OgcqvZZ-K3esZ70OUoTnBLGOs6j0rCnwqUargSl43eQd-R1vaB2xPFs0e-5LFoNM7E2iJEY5t9bl9JQk7Oraw9-60lLm5F5XA8pzffjG29lXWJyq04PJc_TgXKqllUqAfBF60aAFrtmCx_4jZP2aq2LPkpbc75p94C34dnv_JD-tc1k5Pdj__KbnWX3BClfRbQ98-rtsA-q_NkyQySnD1GoY1q4PpksH2aQzWqRDdP-rqfyLD2SPYldmIMX2VHGgYB_b80vb9fKc3V9LpNRquUFQawRYhNRqWOP9TVw_S1i_YM6bMxTExi8-tPtzyKVCs3HcHhI-RIGg8w3VhKe7G2gniR_pT6qd78iw87kUSm15wVqoMz0nHeUdxIWrQsai9jm-nRV5xdS6w6usOQ21mLtPQ8H_WfpMOQDdy0JxMCaGmhZJblVxTUXYm4VNKmcRqTvUtThanFtJHm43vB3JcKxDvbCKqqLMyN7p1R9ZGwSJ5d5khPPHbYyNCj0otDNB3mjjlWB?></g></svg>