<?plantuml 1.2026.2?><svg xmlns="http://www.w3.org/2000/svg" xmlns:xlink="http://www.w3.org/1999/xlink" contentStyleType="text/css" data-diagram-type="CLASS" height="972px" preserveAspectRatio="none" style="width:1346px;height:972px;background:#FFFFFF;" version="1.1" viewBox="0 0 1346 972" width="1346px" zoomAndPan="magnify"><title>solid.drive Architecture</title><defs/><g><g class="title" data-source-line="1"><text fill="#000000" font-family="sans-serif" font-size="22" font-weight="bold" lengthAdjust="spacing" textLength="245.7383" x="545.6309" y="37.8379">solid.drive Architecture</text></g><!--cluster Browser--><g class="cluster" data-qualified-name="Browser" data-source-line="41" id="ent0002"><path d="M13.5,59.6719 L66.519,59.6719 A3.75,3.75 0 0 1 69.019,62.1719 L76.019,82.0234 L841.5,82.0234 A2.5,2.5 0 0 1 844,84.5234 L844,490.1719 A2.5,2.5 0 0 1 841.5,492.6719 L13.5,492.6719 A2.5,2.5 0 0 1 11,490.1719 L11,62.1719 A2.5,2.5 0 0 1 13.5,59.6719" fill="#F8F8F8" style="stroke:#AAAAAA;stroke-width:1;"/><line style="stroke:#AAAAAA;stroke-width:1;" x1="11" x2="76.019" y1="82.0234" y2="82.0234"/><text fill="#333333" font-family="sans-serif" font-size="13" font-weight="bold" lengthAdjust="spacing" textLength="52.019" x="15" y="75.167">Browser</text></g><!--cluster App Assets (public/)--><g class="cluster" data-qualified-name="App Assets .public.." data-source-line="82" id="ent0016"><path d="M898.5,59.6719 L1025.1772,59.6719 A3.75,3.75 0 0 1 1027.6772,62.1719 L1034.6772,82.0234 L1087.5,82.0234 A2.5,2.5 0 0 1 1090,84.5234 L1090,216.1719 A2.5,2.5 0 0 1 1087.5,218.6719 L898.5,218.6719 A2.5,2.5 0 0 1 896,216.1719 L896,62.1719 A2.5,2.5 0 0 1 898.5,59.6719" fill="#F8F8F8" style="stroke:#AAAAAA;stroke-width:1;"/><line style="stroke:#AAAAAA;stroke-width:1;" x1="896" x2="1034.6772" y1="82.0234" y2="82.0234"/><text fill="#333333" font-family="sans-serif" font-size="13" font-weight="bold" lengthAdjust="spacing" textLength="125.6772" x="900" y="75.167">App Assets (public/)</text></g><!--cluster Solid Pod (user-owned)--><g class="cluster" data-qualified-name="Solid Pod .user-owned." data-source-line="90" id="ent0018"><path d="M678.5,516.6719 L824.6646,516.6719 A3.75,3.75 0 0 1 827.1646,519.1719 L834.1646,539.0234 L1336.5,539.0234 A2.5,2.5 0 0 1 1339,541.5234 L1339,963.1719 A2.5,2.5 0 0 1 1336.5,965.6719 L678.5,965.6719 A2.5,2.5 0 0 1 676,963.1719 L676,519.1719 A2.5,2.5 0 0 1 678.5,516.6719" fill="#F8F8F8" style="stroke:#AAAAAA;stroke-width:1;"/><line style="stroke:#AAAAAA;stroke-width:1;" x1="676" x2="834.1646" y1="539.0234" y2="539.0234"/><text fill="#333333" font-family="sans-serif" font-size="13" font-weight="bold" lengthAdjust="spacing" textLength="145.1646" x="680" y="532.167">Solid Pod (user-owned)</text></g><!--class App--><g class="entity" data-qualified-name="Browser.App" data-source-line="43" id="ent0003"><rect fill="#FFFFFF" height="58.1509" rx="2.5" ry="2.5" style="stroke:#555555;stroke-width:1;" width="113.3813" x="27" y="321.6719"/><rect fill="#EEEEEE" height="42.1509" rx="2.5" ry="2.5" style="stroke:#EEEEEE;stroke-width:1;" width="113.3813" x="27" y="321.6719"/><rect fill="#EEEEEE" height="2.5" style="stroke:#EEEEEE;stroke-width:1;" width="113.3813" x="27" y="361.3228"/><rect fill="none" height="58.1509" rx="2.5" ry="2.5" style="stroke:#555555;stroke-width:1;" width="113.3813" x="27" y="321.6719"/><ellipse cx="40" cy="342.7473" fill="#FFFFFF" rx="9" ry="9" style="stroke:#000000;stroke-width:1;"/><path d="M41.4063,344.3254 L43.2188,344.9036 Q42.7969,346.4192 41.8281,347.1692 Q40.8594,347.9036 39.3594,347.9036 Q37.5,347.9036 36.2969,346.6379 Q35.1094,345.3723 35.1094,343.1692 Q35.1094,340.8567 36.3125,339.5754 Q37.5156,338.2786 39.4688,338.2786 Q41.1719,338.2786 42.25,339.2942 Q42.875,339.8879 43.2031,341.0129 L41.3438,341.4504 Q41.1719,340.7317 40.6406,340.3098 Q40.125,339.8879 39.375,339.8879 Q38.3438,339.8879 37.6875,340.6379 Q37.0469,341.3723 37.0469,343.0442 Q37.0469,344.7942 37.6875,345.5442 Q38.3281,346.2942 39.3438,346.2942 Q40.0938,346.2942 40.625,345.8254 Q41.1719,345.3411 41.4063,344.3254 Z " fill="#000000"/><text fill="#000000" font-family="Verdana" font-size="13" font-style="italic" lengthAdjust="spacing" textLength="89.3813" x="50" y="339.7417">&#171;component&#187;</text><text fill="#111111" font-family="sans-serif" font-size="13" lengthAdjust="spacing" textLength="23.1309" x="83.1252" y="355.9663">App</text><line style="stroke:#555555;stroke-width:1;" x1="28" x2="139.3813" y1="363.8228" y2="363.8228"/><line style="stroke:#555555;stroke-width:1;" x1="28" x2="139.3813" y1="371.8228" y2="371.8228"/></g><!--class Header--><g class="entity" data-qualified-name="Browser.Header" data-source-line="45" id="ent0004"><rect fill="#FFFFFF" height="90.854" rx="2.5" ry="2.5" style="stroke:#555555;stroke-width:1;" width="129.4063" x="221" y="385.1719"/><rect fill="#EEEEEE" height="42.1509" rx="2.5" ry="2.5" style="stroke:#EEEEEE;stroke-width:1;" width="129.4063" x="221" y="385.1719"/><rect fill="#EEEEEE" height="2.5" style="stroke:#EEEEEE;stroke-width:1;" width="129.4063" x="221" y="424.8228"/><rect fill="none" height="90.854" rx="2.5" ry="2.5" style="stroke:#555555;stroke-width:1;" width="129.4063" x="221" y="385.1719"/><ellipse cx="241.2112" cy="406.2473" fill="#FFFFFF" rx="9" ry="9" style="stroke:#000000;stroke-width:1;"/><path d="M242.6175,407.8254 L244.43,408.4036 Q244.0081,409.9192 243.0393,410.6692 Q242.0706,411.4036 240.5706,411.4036 Q238.7112,411.4036 237.5081,410.1379 Q236.3206,408.8723 236.3206,406.6692 Q236.3206,404.3567 237.5237,403.0754 Q238.7268,401.7786 240.68,401.7786 Q242.3831,401.7786 243.4612,402.7942 Q244.0862,403.3879 244.4143,404.5129 L242.555,404.9504 Q242.3831,404.2317 241.8518,403.8098 Q241.3362,403.3879 240.5862,403.3879 Q239.555,403.3879 238.8987,404.1379 Q238.2581,404.8723 238.2581,406.5442 Q238.2581,408.2942 238.8987,409.0442 Q239.5393,409.7942 240.555,409.7942 Q241.305,409.7942 241.8362,409.3254 Q242.3831,408.8411 242.6175,407.8254 Z " fill="#000000"/><text fill="#000000" font-family="Verdana" font-size="13" font-style="italic" lengthAdjust="spacing" textLength="89.3813" x="252.8137" y="403.2417">&#171;component&#187;</text><text fill="#111111" font-family="sans-serif" font-size="13" lengthAdjust="spacing" textLength="42.6372" x="276.1858" y="419.4663">Header</text><line style="stroke:#555555;stroke-width:1;" x1="222" x2="349.4063" y1="427.3228" y2="427.3228"/><line style="stroke:#555555;stroke-width:1;" x1="222" x2="349.4063" y1="435.3228" y2="435.3228"/><text fill="#000000" font-family="sans-serif" font-size="13" lengthAdjust="spacing" textLength="117.4063" x="227" y="452.8179">+login(issuer: string)</text><text fill="#000000" font-family="sans-serif" font-size="13" lengthAdjust="spacing" textLength="51.6699" x="227" y="469.1694">+logout()</text></g><!--class FileExplorer--><g class="entity" data-qualified-name="Browser.FileExplorer" data-source-line="50" id="ent0005"><rect fill="#FFFFFF" height="90.854" rx="2.5" ry="2.5" style="stroke:#555555;stroke-width:1;" width="130.8599" x="220" y="224.1719"/><rect fill="#EEEEEE" height="42.1509" rx="2.5" ry="2.5" style="stroke:#EEEEEE;stroke-width:1;" width="130.8599" x="220" y="224.1719"/><rect fill="#EEEEEE" height="2.5" style="stroke:#EEEEEE;stroke-width:1;" width="130.8599" x="220" y="263.8228"/><rect fill="none" height="90.854" rx="2.5" ry="2.5" style="stroke:#555555;stroke-width:1;" width="130.8599" x="220" y="224.1719"/><ellipse cx="240.8653" cy="245.2473" fill="#FFFFFF" rx="9" ry="9" style="stroke:#000000;stroke-width:1;"/><path d="M242.2716,246.8254 L244.0841,247.4036 Q243.6622,248.9192 242.6935,249.6692 Q241.7247,250.4036 240.2247,250.4036 Q238.3653,250.4036 237.1622,249.1379 Q235.9747,247.8723 235.9747,245.6692 Q235.9747,243.3567 237.1778,242.0754 Q238.381,240.7786 240.3341,240.7786 Q242.0372,240.7786 243.1153,241.7942 Q243.7403,242.3879 244.0685,243.5129 L242.2091,243.9504 Q242.0372,243.2317 241.506,242.8098 Q240.9903,242.3879 240.2403,242.3879 Q239.2091,242.3879 238.5528,243.1379 Q237.9122,243.8723 237.9122,245.5442 Q237.9122,247.2942 238.5528,248.0442 Q239.1935,248.7942 240.2091,248.7942 Q240.9591,248.7942 241.4903,248.3254 Q242.0372,247.8411 242.2716,246.8254 Z " fill="#000000"/><text fill="#000000" font-family="Verdana" font-size="13" font-style="italic" lengthAdjust="spacing" textLength="89.3813" x="252.6132" y="242.2417">&#171;component&#187;</text><text fill="#111111" font-family="sans-serif" font-size="13" lengthAdjust="spacing" textLength="69.3545" x="262.6266" y="258.4663">FileExplorer</text><line style="stroke:#555555;stroke-width:1;" x1="221" x2="349.8599" y1="266.3228" y2="266.3228"/><line style="stroke:#555555;stroke-width:1;" x1="221" x2="349.8599" y1="274.3228" y2="274.3228"/><text fill="#000000" font-family="sans-serif" font-size="13" lengthAdjust="spacing" textLength="118.8599" x="226" y="291.8179">+navigate(uri: string)</text><text fill="#000000" font-family="sans-serif" font-size="13" lengthAdjust="spacing" textLength="52.3872" x="226" y="308.1694">+reload()</text></g><!--class FileUpload--><g class="entity" data-qualified-name="Browser.FileUpload" data-source-line="55" id="ent0006"><rect fill="#FFFFFF" height="74.5024" rx="2.5" ry="2.5" style="stroke:#555555;stroke-width:1;" width="180.7017" x="431" y="401.1719"/><rect fill="#EEEEEE" height="42.1509" rx="2.5" ry="2.5" style="stroke:#EEEEEE;stroke-width:1;" width="180.7017" x="431" y="401.1719"/><rect fill="#EEEEEE" height="2.5" style="stroke:#EEEEEE;stroke-width:1;" width="180.7017" x="431" y="440.8228"/><rect fill="none" height="74.5024" rx="2.5" ry="2.5" style="stroke:#555555;stroke-width:1;" width="180.7017" x="431" y="401.1719"/><ellipse cx="474.9102" cy="422.2473" fill="#FFFFFF" rx="9" ry="9" style="stroke:#000000;stroke-width:1;"/><path d="M476.3164,423.8254 L478.1289,424.4036 Q477.707,425.9192 476.7383,426.6692 Q475.7695,427.4036 474.2695,427.4036 Q472.4102,427.4036 471.207,426.1379 Q470.0195,424.8723 470.0195,422.6692 Q470.0195,420.3567 471.2227,419.0754 Q472.4258,417.7786 474.3789,417.7786 Q476.082,417.7786 477.1602,418.7942 Q477.7852,419.3879 478.1133,420.5129 L476.2539,420.9504 Q476.082,420.2317 475.5508,419.8098 Q475.0352,419.3879 474.2852,419.3879 Q473.2539,419.3879 472.5977,420.1379 Q471.957,420.8723 471.957,422.5442 Q471.957,424.2942 472.5977,425.0442 Q473.2383,425.7942 474.2539,425.7942 Q475.0039,425.7942 475.5352,425.3254 Q476.082,424.8411 476.3164,423.8254 Z " fill="#000000"/><text fill="#000000" font-family="Verdana" font-size="13" font-style="italic" lengthAdjust="spacing" textLength="89.3813" x="490.4102" y="419.2417">&#171;component&#187;</text><text fill="#111111" font-family="sans-serif" font-size="13" lengthAdjust="spacing" textLength="62.1436" x="504.0291" y="435.4663">FileUpload</text><line style="stroke:#555555;stroke-width:1;" x1="432" x2="610.7017" y1="443.3228" y2="443.3228"/><line style="stroke:#555555;stroke-width:1;" x1="432" x2="610.7017" y1="451.3228" y2="451.3228"/><text fill="#000000" font-family="sans-serif" font-size="13" lengthAdjust="spacing" textLength="168.7017" x="437" y="468.8179">+submit(file, title, description)</text></g><!--class TBoxValidator--><g class="entity" data-qualified-name="Browser.TBoxValidator" data-source-line="59" id="ent0007"><rect fill="#FFFFFF" height="107.2056" rx="2.5" ry="2.5" style="stroke:#555555;stroke-width:1;" width="132.3135" x="696" y="95.1719"/><rect fill="#EEEEEE" height="42.1509" rx="2.5" ry="2.5" style="stroke:#EEEEEE;stroke-width:1;" width="132.3135" x="696" y="95.1719"/><rect fill="#EEEEEE" height="2.5" style="stroke:#EEEEEE;stroke-width:1;" width="132.3135" x="696" y="134.8228"/><rect fill="none" height="107.2056" rx="2.5" ry="2.5" style="stroke:#555555;stroke-width:1;" width="132.3135" x="696" y="95.1719"/><ellipse cx="719.1986" cy="116.2473" fill="#FFFFFF" rx="9" ry="9" style="stroke:#000000;stroke-width:1;"/><path d="M720.6049,117.8254 L722.4174,118.4036 Q721.9955,119.9192 721.0267,120.6692 Q720.058,121.4036 718.558,121.4036 Q716.6986,121.4036 715.4955,120.1379 Q714.308,118.8723 714.308,116.6692 Q714.308,114.3567 715.5111,113.0754 Q716.7142,111.7786 718.6674,111.7786 Q720.3705,111.7786 721.4486,112.7942 Q722.0736,113.3879 722.4017,114.5129 L720.5424,114.9504 Q720.3705,114.2317 719.8392,113.8098 Q719.3236,113.3879 718.5736,113.3879 Q717.5424,113.3879 716.8861,114.1379 Q716.2455,114.8723 716.2455,116.5442 Q716.2455,118.2942 716.8861,119.0442 Q717.5267,119.7942 718.5424,119.7942 Q719.2924,119.7942 719.8236,119.3254 Q720.3705,118.8411 720.6049,117.8254 Z " fill="#000000"/><text fill="#000000" font-family="Verdana" font-size="13" font-style="italic" lengthAdjust="spacing" textLength="64.9365" x="741.8217" y="113.2417">&#171;module&#187;</text><text fill="#111111" font-family="sans-serif" font-size="13" lengthAdjust="spacing" textLength="81.6499" x="733.465" y="129.4663">TBoxValidator</text><line style="stroke:#555555;stroke-width:1;" x1="697" x2="827.3135" y1="137.3228" y2="137.3228"/><line style="stroke:#555555;stroke-width:1;" x1="697" x2="827.3135" y1="145.3228" y2="145.3228"/><text fill="#000000" font-family="sans-serif" font-size="13" lengthAdjust="spacing" textLength="71.1699" x="702" y="162.8179">+loadTBox()</text><text fill="#000000" font-family="sans-serif" font-size="13" lengthAdjust="spacing" textLength="115.2607" x="702" y="179.1694">+validateMetadata()</text><text fill="#000000" font-family="sans-serif" font-size="13" lengthAdjust="spacing" textLength="120.3135" x="702" y="195.521">+getShapeForType()</text></g><!--class FileCard--><g class="entity" data-qualified-name="Browser.FileCard" data-source-line="65" id="ent0008"><rect fill="#FFFFFF" height="90.854" rx="2.5" ry="2.5" style="stroke:#555555;stroke-width:1;" width="113.3813" x="465" y="240.1719"/><rect fill="#EEEEEE" height="42.1509" rx="2.5" ry="2.5" style="stroke:#EEEEEE;stroke-width:1;" width="113.3813" x="465" y="240.1719"/><rect fill="#EEEEEE" height="2.5" style="stroke:#EEEEEE;stroke-width:1;" width="113.3813" x="465" y="279.8228"/><rect fill="none" height="90.854" rx="2.5" ry="2.5" style="stroke:#555555;stroke-width:1;" width="113.3813" x="465" y="240.1719"/><ellipse cx="478" cy="261.2473" fill="#FFFFFF" rx="9" ry="9" style="stroke:#000000;stroke-width:1;"/><path d="M479.4063,262.8254 L481.2188,263.4036 Q480.7969,264.9192 479.8281,265.6692 Q478.8594,266.4036 477.3594,266.4036 Q475.5,266.4036 474.2969,265.1379 Q473.1094,263.8723 473.1094,261.6692 Q473.1094,259.3567 474.3125,258.0754 Q475.5156,256.7786 477.4688,256.7786 Q479.1719,256.7786 480.25,257.7942 Q480.875,258.3879 481.2031,259.5129 L479.3438,259.9504 Q479.1719,259.2317 478.6406,258.8098 Q478.125,258.3879 477.375,258.3879 Q476.3438,258.3879 475.6875,259.1379 Q475.0469,259.8723 475.0469,261.5442 Q475.0469,263.2942 475.6875,264.0442 Q476.3281,264.7942 477.3438,264.7942 Q478.0938,264.7942 478.625,264.3254 Q479.1719,263.8411 479.4063,262.8254 Z " fill="#000000"/><text fill="#000000" font-family="Verdana" font-size="13" font-style="italic" lengthAdjust="spacing" textLength="89.3813" x="488" y="258.2417">&#171;component&#187;</text><text fill="#111111" font-family="sans-serif" font-size="13" lengthAdjust="spacing" textLength="49.1245" x="508.1284" y="274.4663">FileCard</text><line style="stroke:#555555;stroke-width:1;" x1="466" x2="577.3813" y1="282.3228" y2="282.3228"/><line style="stroke:#555555;stroke-width:1;" x1="466" x2="577.3813" y1="290.3228" y2="290.3228"/><text fill="#000000" font-family="sans-serif" font-size="13" lengthAdjust="spacing" textLength="71.9063" x="471" y="307.8179">+download()</text><text fill="#000000" font-family="sans-serif" font-size="13" lengthAdjust="spacing" textLength="51.6699" x="471" y="324.1694">+delete()</text></g><!--class FolderEntry--><g class="entity" data-qualified-name="Browser.FolderEntry" data-source-line="70" id="ent0009"><rect fill="#FFFFFF" height="74.5024" rx="2.5" ry="2.5" style="stroke:#555555;stroke-width:1;" width="130.8599" x="456" y="95.1719"/><rect fill="#EEEEEE" height="42.1509" rx="2.5" ry="2.5" style="stroke:#EEEEEE;stroke-width:1;" width="130.8599" x="456" y="95.1719"/><rect fill="#EEEEEE" height="2.5" style="stroke:#EEEEEE;stroke-width:1;" width="130.8599" x="456" y="134.8228"/><rect fill="none" height="74.5024" rx="2.5" ry="2.5" style="stroke:#555555;stroke-width:1;" width="130.8599" x="456" y="95.1719"/><ellipse cx="476.8653" cy="116.2473" fill="#FFFFFF" rx="9" ry="9" style="stroke:#000000;stroke-width:1;"/><path d="M478.2716,117.8254 L480.0841,118.4036 Q479.6622,119.9192 478.6935,120.6692 Q477.7247,121.4036 476.2247,121.4036 Q474.3653,121.4036 473.1622,120.1379 Q471.9747,118.8723 471.9747,116.6692 Q471.9747,114.3567 473.1778,113.0754 Q474.381,111.7786 476.3341,111.7786 Q478.0372,111.7786 479.1153,112.7942 Q479.7403,113.3879 480.0685,114.5129 L478.2091,114.9504 Q478.0372,114.2317 477.506,113.8098 Q476.9903,113.3879 476.2403,113.3879 Q475.2091,113.3879 474.5528,114.1379 Q473.9122,114.8723 473.9122,116.5442 Q473.9122,118.2942 474.5528,119.0442 Q475.1935,119.7942 476.2091,119.7942 Q476.9591,119.7942 477.4903,119.3254 Q478.0372,118.8411 478.2716,117.8254 Z " fill="#000000"/><text fill="#000000" font-family="Verdana" font-size="13" font-style="italic" lengthAdjust="spacing" textLength="89.3813" x="488.6132" y="113.2417">&#171;component&#187;</text><text fill="#111111" font-family="sans-serif" font-size="13" lengthAdjust="spacing" textLength="67.1899" x="499.7089" y="129.4663">FolderEntry</text><line style="stroke:#555555;stroke-width:1;" x1="457" x2="585.8599" y1="137.3228" y2="137.3228"/><line style="stroke:#555555;stroke-width:1;" x1="457" x2="585.8599" y1="145.3228" y2="145.3228"/><text fill="#000000" font-family="sans-serif" font-size="13" lengthAdjust="spacing" textLength="118.8599" x="462" y="162.8179">+navigate(uri: string)</text></g><!--class TBoxTTL--><g class="entity" data-qualified-name="App Assets .public...TBoxTTL" data-source-line="83" id="ent0017"><rect fill="#FFFFFF" height="107.2056" rx="2.5" ry="2.5" style="stroke:#555555;stroke-width:1;" width="161.5508" x="912" y="95.1719"/><rect fill="#EEEEEE" height="42.1509" rx="2.5" ry="2.5" style="stroke:#EEEEEE;stroke-width:1;" width="161.5508" x="912" y="95.1719"/><rect fill="#EEEEEE" height="2.5" style="stroke:#EEEEEE;stroke-width:1;" width="161.5508" x="912" y="134.8228"/><rect fill="none" height="107.2056" rx="2.5" ry="2.5" style="stroke:#555555;stroke-width:1;" width="161.5508" x="912" y="95.1719"/><ellipse cx="958.9729" cy="116.2473" fill="#FFFFFF" rx="9" ry="9" style="stroke:#000000;stroke-width:1;"/><path d="M960.3792,117.8254 L962.1917,118.4036 Q961.7698,119.9192 960.801,120.6692 Q959.8323,121.4036 958.3323,121.4036 Q956.4729,121.4036 955.2698,120.1379 Q954.0823,118.8723 954.0823,116.6692 Q954.0823,114.3567 955.2854,113.0754 Q956.4885,111.7786 958.4417,111.7786 Q960.1448,111.7786 961.2229,112.7942 Q961.8479,113.3879 962.176,114.5129 L960.3167,114.9504 Q960.1448,114.2317 959.6135,113.8098 Q959.0979,113.3879 958.3479,113.3879 Q957.3167,113.3879 956.6604,114.1379 Q956.0198,114.8723 956.0198,116.5442 Q956.0198,118.2942 956.6604,119.0442 Q957.301,119.7942 958.3167,119.7942 Q959.0667,119.7942 959.5979,119.3254 Q960.1448,118.8411 960.3792,117.8254 Z " fill="#000000"/><text fill="#000000" font-family="Verdana" font-size="13" font-style="italic" lengthAdjust="spacing" textLength="64.105" x="974.4729" y="113.2417">&#171;tbox.ttl&#187;</text><text fill="#111111" font-family="sans-serif" font-size="13" lengthAdjust="spacing" textLength="53.4536" x="979.7986" y="129.4663">TBoxTTL</text><line style="stroke:#555555;stroke-width:1;" x1="913" x2="1072.5508" y1="137.3228" y2="137.3228"/><text fill="#000000" font-family="sans-serif" font-size="13" lengthAdjust="spacing" textLength="148.1606" x="918" y="154.8179">sh:NodeShape definitions</text><text fill="#000000" font-family="sans-serif" font-size="13" lengthAdjust="spacing" textLength="149.5508" x="918" y="171.1694">rdfs:subClassOf hierarchy</text><text fill="#000000" font-family="sans-serif" font-size="13" lengthAdjust="spacing" textLength="139.4517" x="918" y="187.521">sh:minCount constraints</text><line style="stroke:#555555;stroke-width:1;" x1="913" x2="1072.5508" y1="194.3774" y2="194.3774"/></g><!--class CatalogTTL--><g class="entity" data-qualified-name="Solid Pod .user-owned..CatalogTTL" data-source-line="92" id="ent0019"><rect fill="#FFFFFF" height="74.5024" rx="2.5" ry="2.5" style="stroke:#555555;stroke-width:1;" width="127.6162" x="1174.5" y="746.1719"/><rect fill="#EEEEEE" height="42.1509" rx="2.5" ry="2.5" style="stroke:#EEEEEE;stroke-width:1;" width="127.6162" x="1174.5" y="746.1719"/><rect fill="#EEEEEE" height="2.5" style="stroke:#EEEEEE;stroke-width:1;" width="127.6162" x="1174.5" y="785.8228"/><rect fill="none" height="74.5024" rx="2.5" ry="2.5" style="stroke:#555555;stroke-width:1;" width="127.6162" x="1174.5" y="746.1719"/><ellipse cx="1197.0706" cy="767.2473" fill="#FFFFFF" rx="9" ry="9" style="stroke:#000000;stroke-width:1;"/><path d="M1198.4769,768.8254 L1200.2894,769.4036 Q1199.8675,770.9192 1198.8988,771.6692 Q1197.93,772.4036 1196.43,772.4036 Q1194.5706,772.4036 1193.3675,771.1379 Q1192.18,769.8723 1192.18,767.6692 Q1192.18,765.3567 1193.3831,764.0754 Q1194.5863,762.7786 1196.5394,762.7786 Q1198.2425,762.7786 1199.3206,763.7942 Q1199.9456,764.3879 1200.2738,765.5129 L1198.4144,765.9504 Q1198.2425,765.2317 1197.7113,764.8098 Q1197.1956,764.3879 1196.4456,764.3879 Q1195.4144,764.3879 1194.7581,765.1379 Q1194.1175,765.8723 1194.1175,767.5442 Q1194.1175,769.2942 1194.7581,770.0442 Q1195.3988,770.7942 1196.4144,770.7942 Q1197.1644,770.7942 1197.6956,770.3254 Q1198.2425,769.8411 1198.4769,768.8254 Z " fill="#000000"/><text fill="#000000" font-family="Verdana" font-size="13" font-style="italic" lengthAdjust="spacing" textLength="82.3481" x="1209.1974" y="764.2417">&#171;catalog.ttl&#187;</text><text fill="#111111" font-family="sans-serif" font-size="13" lengthAdjust="spacing" textLength="67.9199" x="1216.4115" y="780.4663">CatalogTTL</text><line style="stroke:#555555;stroke-width:1;" x1="1175.5" x2="1301.1162" y1="788.3228" y2="788.3228"/><text fill="#000000" font-family="sans-serif" font-size="13" lengthAdjust="spacing" textLength="115.6162" x="1180.5" y="805.8179">dcat:Dataset entries</text><line style="stroke:#555555;stroke-width:1;" x1="1175.5" x2="1301.1162" y1="812.6743" y2="812.6743"/></g><!--class AppContainer--><g class="entity" data-qualified-name="Solid Pod .user-owned..AppContainer" data-source-line="96" id="ent0020"><rect fill="#FFFFFF" height="58.1509" rx="2.5" ry="2.5" style="stroke:#555555;stroke-width:1;" width="132.7036" x="695.5" y="718.6719"/><rect fill="#EEEEEE" height="42.1509" rx="2.5" ry="2.5" style="stroke:#EEEEEE;stroke-width:1;" width="132.7036" x="695.5" y="718.6719"/><rect fill="#EEEEEE" height="2.5" style="stroke:#EEEEEE;stroke-width:1;" width="132.7036" x="695.5" y="758.3228"/><rect fill="none" height="58.1509" rx="2.5" ry="2.5" style="stroke:#555555;stroke-width:1;" width="132.7036" x="695.5" y="718.6719"/><ellipse cx="708.5" cy="739.7473" fill="#FFFFFF" rx="9" ry="9" style="stroke:#000000;stroke-width:1;"/><path d="M709.9063,741.3254 L711.7188,741.9036 Q711.2969,743.4192 710.3281,744.1692 Q709.3594,744.9036 707.8594,744.9036 Q706,744.9036 704.7969,743.6379 Q703.6094,742.3723 703.6094,740.1692 Q703.6094,737.8567 704.8125,736.5754 Q706.0156,735.2786 707.9688,735.2786 Q709.6719,735.2786 710.75,736.2942 Q711.375,736.8879 711.7031,738.0129 L709.8438,738.4504 Q709.6719,737.7317 709.1406,737.3098 Q708.625,736.8879 707.875,736.8879 Q706.8438,736.8879 706.1875,737.6379 Q705.5469,738.3723 705.5469,740.0442 Q705.5469,741.7942 706.1875,742.5442 Q706.8281,743.2942 707.8438,743.2942 Q708.5938,743.2942 709.125,742.8254 Q709.6719,742.3411 709.9063,741.3254 Z " fill="#000000"/><text fill="#000000" font-family="Verdana" font-size="13" font-style="italic" lengthAdjust="spacing" textLength="108.7036" x="718.5" y="736.7417">&#171;my-solid-app/&#187;</text><text fill="#111111" font-family="sans-serif" font-size="13" lengthAdjust="spacing" textLength="79.498" x="733.1028" y="752.9663">AppContainer</text><line style="stroke:#555555;stroke-width:1;" x1="696.5" x2="827.2036" y1="760.8228" y2="760.8228"/><line style="stroke:#555555;stroke-width:1;" x1="696.5" x2="827.2036" y1="768.8228" y2="768.8228"/></g><!--class FileContainer--><g class="entity" data-qualified-name="Solid Pod .user-owned..FileContainer" data-source-line="98" id="ent0021"><rect fill="#FFFFFF" height="58.1509" rx="2.5" ry="2.5" style="stroke:#555555;stroke-width:1;" width="105.3145" x="940.5" y="718.6719"/><rect fill="#EEEEEE" height="42.1509" rx="2.5" ry="2.5" style="stroke:#EEEEEE;stroke-width:1;" width="105.3145" x="940.5" y="718.6719"/><rect fill="#EEEEEE" height="2.5" style="stroke:#EEEEEE;stroke-width:1;" width="105.3145" x="940.5" y="758.3228"/><rect fill="none" height="58.1509" rx="2.5" ry="2.5" style="stroke:#555555;stroke-width:1;" width="105.3145" x="940.5" y="718.6719"/><ellipse cx="953.5" cy="739.7473" fill="#FFFFFF" rx="9" ry="9" style="stroke:#000000;stroke-width:1;"/><path d="M954.9063,741.3254 L956.7188,741.9036 Q956.2969,743.4192 955.3281,744.1692 Q954.3594,744.9036 952.8594,744.9036 Q951,744.9036 949.7969,743.6379 Q948.6094,742.3723 948.6094,740.1692 Q948.6094,737.8567 949.8125,736.5754 Q951.0156,735.2786 952.9688,735.2786 Q954.6719,735.2786 955.75,736.2942 Q956.375,736.8879 956.7031,738.0129 L954.8438,738.4504 Q954.6719,737.7317 954.1406,737.3098 Q953.625,736.8879 952.875,736.8879 Q951.8438,736.8879 951.1875,737.6379 Q950.5469,738.3723 950.5469,740.0442 Q950.5469,741.7942 951.1875,742.5442 Q951.8281,743.2942 952.8438,743.2942 Q953.5938,743.2942 954.125,742.8254 Q954.6719,742.3411 954.9063,741.3254 Z " fill="#000000"/><text fill="#000000" font-family="Verdana" font-size="13" font-style="italic" lengthAdjust="spacing" textLength="74.6611" x="966.8267" y="736.7417">&#171;file-slug/&#187;</text><text fill="#111111" font-family="sans-serif" font-size="13" lengthAdjust="spacing" textLength="77.3145" x="965.5" y="752.9663">FileContainer</text><line style="stroke:#555555;stroke-width:1;" x1="941.5" x2="1044.8145" y1="760.8228" y2="760.8228"/><line style="stroke:#555555;stroke-width:1;" x1="941.5" x2="1044.8145" y1="768.8228" y2="768.8228"/></g><!--class IndexTTL--><g class="entity" data-qualified-name="Solid Pod .user-owned..IndexTTL" data-source-line="100" id="ent0022"><rect fill="#FFFFFF" height="123.5571" rx="2.5" ry="2.5" style="stroke:#555555;stroke-width:1;" width="168.7744" x="1154" y="551.6719"/><rect fill="#EEEEEE" height="42.1509" rx="2.5" ry="2.5" style="stroke:#EEEEEE;stroke-width:1;" width="168.7744" x="1154" y="551.6719"/><rect fill="#EEEEEE" height="2.5" style="stroke:#EEEEEE;stroke-width:1;" width="168.7744" x="1154" y="591.3228"/><rect fill="none" height="123.5571" rx="2.5" ry="2.5" style="stroke:#555555;stroke-width:1;" width="168.7744" x="1154" y="551.6719"/><ellipse cx="1201.322" cy="572.7473" fill="#FFFFFF" rx="9" ry="9" style="stroke:#000000;stroke-width:1;"/><path d="M1202.7283,574.3254 L1204.5408,574.9036 Q1204.1189,576.4192 1203.1501,577.1692 Q1202.1814,577.9036 1200.6814,577.9036 Q1198.822,577.9036 1197.6189,576.6379 Q1196.4314,575.3723 1196.4314,573.1692 Q1196.4314,570.8567 1197.6345,569.5754 Q1198.8376,568.2786 1200.7908,568.2786 Q1202.4939,568.2786 1203.572,569.2942 Q1204.197,569.8879 1204.5251,571.0129 L1202.6658,571.4504 Q1202.4939,570.7317 1201.9626,570.3098 Q1201.447,569.8879 1200.697,569.8879 Q1199.6658,569.8879 1199.0095,570.6379 Q1198.3689,571.3723 1198.3689,573.0442 Q1198.3689,574.7942 1199.0095,575.5442 Q1199.6501,576.2942 1200.6658,576.2942 Q1201.4158,576.2942 1201.947,575.8254 Q1202.4939,575.3411 1202.7283,574.3254 Z " fill="#000000"/><text fill="#000000" font-family="Verdana" font-size="13" font-style="italic" lengthAdjust="spacing" textLength="70.6304" x="1216.822" y="569.7417">&#171;index.ttl&#187;</text><text fill="#111111" font-family="sans-serif" font-size="13" lengthAdjust="spacing" textLength="54.9136" x="1224.6804" y="585.9663">IndexTTL</text><line style="stroke:#555555;stroke-width:1;" x1="1155" x2="1321.7744" y1="593.8228" y2="593.8228"/><text fill="#000000" font-family="sans-serif" font-size="13" lengthAdjust="spacing" textLength="81.6499" x="1160" y="611.3179">schema:name</text><text fill="#000000" font-family="sans-serif" font-size="13" lengthAdjust="spacing" textLength="115.6289" x="1160" y="627.6694">schema:uploadDate</text><text fill="#000000" font-family="sans-serif" font-size="13" lengthAdjust="spacing" textLength="101.8862" x="1160" y="644.021">schema:publisher</text><line style="stroke:#555555;stroke-width:1;" x1="1155" x2="1321.7744" y1="650.8774" y2="650.8774"/><text fill="#000000" font-family="sans-serif" font-size="13" lengthAdjust="spacing" textLength="156.7744" x="1160" y="668.3726">rdf:type (schema.org class)</text></g><!--class BinaryFile--><g class="entity" data-qualified-name="Solid Pod .user-owned..BinaryFile" data-source-line="107" id="ent0023"><rect fill="#FFFFFF" height="58.1509" rx="2.5" ry="2.5" style="stroke:#555555;stroke-width:1;" width="85.7954" x="1195.5" y="891.6719"/><rect fill="#EEEEEE" height="42.1509" rx="2.5" ry="2.5" style="stroke:#EEEEEE;stroke-width:1;" width="85.7954" x="1195.5" y="891.6719"/><rect fill="#EEEEEE" height="2.5" style="stroke:#EEEEEE;stroke-width:1;" width="85.7954" x="1195.5" y="931.3228"/><rect fill="none" height="58.1509" rx="2.5" ry="2.5" style="stroke:#555555;stroke-width:1;" width="85.7954" x="1195.5" y="891.6719"/><ellipse cx="1208.5" cy="912.7473" fill="#FFFFFF" rx="9" ry="9" style="stroke:#000000;stroke-width:1;"/><path d="M1209.9063,914.3254 L1211.7188,914.9036 Q1211.2969,916.4192 1210.3281,917.1692 Q1209.3594,917.9036 1207.8594,917.9036 Q1206,917.9036 1204.7969,916.6379 Q1203.6094,915.3723 1203.6094,913.1692 Q1203.6094,910.8567 1204.8125,909.5754 Q1206.0156,908.2786 1207.9688,908.2786 Q1209.6719,908.2786 1210.75,909.2942 Q1211.375,909.8879 1211.7031,911.0129 L1209.8438,911.4504 Q1209.6719,910.7317 1209.1406,910.3098 Q1208.625,909.8879 1207.875,909.8879 Q1206.8438,909.8879 1206.1875,910.6379 Q1205.5469,911.3723 1205.5469,913.0442 Q1205.5469,914.7942 1206.1875,915.5442 Q1206.8281,916.2942 1207.8438,916.2942 Q1208.5938,916.2942 1209.125,915.8254 Q1209.6719,915.3411 1209.9063,914.3254 Z " fill="#000000"/><text fill="#000000" font-family="Verdana" font-size="13" font-style="italic" lengthAdjust="spacing" textLength="61.4961" x="1218.6497" y="909.7417">&#171;file.ext&#187;</text><text fill="#111111" font-family="sans-serif" font-size="13" lengthAdjust="spacing" textLength="57.7954" x="1220.5" y="925.9663">BinaryFile</text><line style="stroke:#555555;stroke-width:1;" x1="1196.5" x2="1280.2954" y1="933.8228" y2="933.8228"/><line style="stroke:#555555;stroke-width:1;" x1="1196.5" x2="1280.2954" y1="941.8228" y2="941.8228"/></g><!--class WebIDProfile--><g class="entity" data-qualified-name="Solid Pod .user-owned..WebIDProfile" data-source-line="109" id="ent0024"><rect fill="#FFFFFF" height="90.854" rx="2.5" ry="2.5" style="stroke:#555555;stroke-width:1;" width="139.9116" x="692" y="557.1719"/><rect fill="#EEEEEE" height="42.1509" rx="2.5" ry="2.5" style="stroke:#EEEEEE;stroke-width:1;" width="139.9116" x="692" y="557.1719"/><rect fill="#EEEEEE" height="2.5" style="stroke:#EEEEEE;stroke-width:1;" width="139.9116" x="692" y="596.8228"/><rect fill="none" height="90.854" rx="2.5" ry="2.5" style="stroke:#555555;stroke-width:1;" width="139.9116" x="692" y="557.1719"/><ellipse cx="715.816" cy="578.2473" fill="#FFFFFF" rx="9" ry="9" style="stroke:#000000;stroke-width:1;"/><path d="M717.2223,579.8254 L719.0348,580.4036 Q718.6129,581.9192 717.6442,582.6692 Q716.6754,583.4036 715.1754,583.4036 Q713.316,583.4036 712.1129,582.1379 Q710.9254,580.8723 710.9254,578.6692 Q710.9254,576.3567 712.1285,575.0754 Q713.3317,573.7786 715.2848,573.7786 Q716.9879,573.7786 718.066,574.7942 Q718.691,575.3879 719.0192,576.5129 L717.1598,576.9504 Q716.9879,576.2317 716.4567,575.8098 Q715.941,575.3879 715.191,575.3879 Q714.1598,575.3879 713.5035,576.1379 Q712.8629,576.8723 712.8629,578.5442 Q712.8629,580.2942 713.5035,581.0442 Q714.1442,581.7942 715.1598,581.7942 Q715.9098,581.7942 716.441,581.3254 Q716.9879,580.8411 717.2223,579.8254 Z " fill="#000000"/><text fill="#000000" font-family="Verdana" font-size="13" font-style="italic" lengthAdjust="spacing" textLength="91.876" x="728.2196" y="575.2417">&#171;profile/card&#187;</text><text fill="#111111" font-family="sans-serif" font-size="13" lengthAdjust="spacing" textLength="76.5781" x="735.8685" y="591.4663">WebIDProfile</text><line style="stroke:#555555;stroke-width:1;" x1="693" x2="830.9116" y1="599.3228" y2="599.3228"/><text fill="#000000" font-family="sans-serif" font-size="13" lengthAdjust="spacing" textLength="60.7026" x="698" y="616.8179">sp:storage</text><line style="stroke:#555555;stroke-width:1;" x1="693" x2="830.9116" y1="623.6743" y2="623.6743"/><text fill="#000000" font-family="sans-serif" font-size="13" lengthAdjust="spacing" textLength="127.9116" x="698" y="641.1694">dcat:catalog (optional)</text></g><!--link App to Header--><g class="link" data-entity-1="ent0003" data-entity-2="ent0004" data-link-type="association" data-source-line="74" id="lnk10"><path codeLine="74" d="M140.19,355.4219 C206.4,355.4219 307,355.4219 307,355.4219 C307,355.4219 307,369.3119 307,385.1619" fill="none" id="App-Header" style="stroke:#000000;stroke-width:1;"/></g><!--link App to FileExplorer--><g class="link" data-entity-1="ent0003" data-entity-2="ent0005" data-link-type="association" data-source-line="75" id="lnk11"><path codeLine="75" d="M140.12,326.4219 C193.05,326.4219 264,326.4219 264,326.4219 C264,326.4219 264,321.8119 264,315.2119" fill="none" id="App-FileExplorer" style="stroke:#000000;stroke-width:1;"/></g><!--link FileExplorer to FileUpload--><g class="link" data-entity-1="ent0005" data-entity-2="ent0006" data-link-type="association" data-source-line="76" id="lnk12"><path codeLine="76" d="M351.34,277.6719 C394.89,277.6719 444,277.6719 444,277.6719 C444,277.6719 444,353.3419 444,400.9219" fill="none" id="FileExplorer-FileUpload" style="stroke:#000000;stroke-width:1;"/></g><!--link FileExplorer to FileCard--><g class="link" data-entity-1="ent0005" data-entity-2="ent0008" data-link-type="association" data-source-line="77" id="lnk13"><path codeLine="77" d="M351.24,258.9219 C386.97,258.9219 430.72,258.9219 464.92,258.9219" fill="none" id="FileExplorer-FileCard" style="stroke:#000000;stroke-width:1;"/></g><!--link FileExplorer to FolderEntry--><g class="link" data-entity-1="ent0005" data-entity-2="ent0009" data-link-type="association" data-source-line="78" id="lnk14"><path codeLine="78" d="M351.35,229.5019 C401.15,229.5019 461,229.5019 461,229.5019 C461,229.5019 461,197.5719 461,170.3919" fill="none" id="FileExplorer-FolderEntry" style="stroke:#000000;stroke-width:1;"/></g><!--link FileUpload to TBoxValidator--><g class="link" data-entity-1="ent0006" data-entity-2="ent0007" data-link-type="association" data-source-line="79" id="lnk15"><path codeLine="79" d="M600,401.1419 C600,330.8019 600,186.1719 600,186.1719 C600,186.1719 650.9,186.1719 695.64,186.1719" fill="none" id="FileUpload-TBoxValidator" style="stroke:#000000;stroke-width:1;"/></g><!--link AppContainer to FileContainer--><g class="link" data-entity-1="ent0020" data-entity-2="ent0021" data-link-type="association" data-source-line="114" id="lnk25"><path codeLine="114" d="M828.5,747.6719 C864.09,747.6719 907.3,747.6719 940.5,747.6719" fill="none" id="AppContainer-FileContainer" style="stroke:#000000;stroke-width:1;"/><text fill="#000000" font-family="sans-serif" font-size="14" lengthAdjust="spacing" textLength="21.0137" x="911.4089" y="763.3235">1..*</text></g><!--link FileContainer to IndexTTL--><g class="link" data-entity-1="ent0021" data-entity-2="ent0022" data-link-type="association" data-source-line="115" id="lnk26"><path codeLine="115" d="M1045.54,732.4219 C1096.12,732.4219 1165,732.4219 1165,732.4219 C1165,732.4219 1165,704.5619 1165,675.8319" fill="none" id="FileContainer-IndexTTL" style="stroke:#000000;stroke-width:1;"/></g><!--link FileContainer to BinaryFile--><g class="link" data-entity-1="ent0021" data-entity-2="ent0023" data-link-type="association" data-source-line="116" id="lnk27"><path codeLine="116" d="M993,777.0219 C993,826.3719 993,920.6719 993,920.6719 C993,920.6719 1125.05,920.6719 1195.46,920.6719" fill="none" id="FileContainer-BinaryFile" style="stroke:#000000;stroke-width:1;"/></g><!--link WebIDProfile to CatalogTTL--><g class="link" data-entity-1="ent0024" data-entity-2="ent0019" data-link-type="association" data-source-line="117" id="lnk28"><path codeLine="117" d="M832.18,602.6719 C918.86,602.6719 1055,602.6719 1055,602.6719 C1055,602.6719 1055,766.5019 1055,766.5019 C1055,766.5019 1121.4,766.5019 1174.32,766.5019" fill="none" id="WebIDProfile-CatalogTTL" style="stroke:#000000;stroke-width:1;"/><text fill="#000000" font-family="sans-serif" font-size="14" lengthAdjust="spacing" textLength="75.4961" x="979" y="648.3751">dcat:catalog</text></g><!--link TBoxValidator to TBoxTTL--><g class="link" data-entity-1="ent0007" data-entity-2="ent0017" data-link-type="association" data-source-line="119" id="lnk29"><path codeLine="119" d="M828.2,148.6719 C854.19,148.6719 884.29,148.6719 911.6,148.6719" fill="none" id="TBoxValidator-TBoxTTL" style="stroke:#000000;stroke-width:1;stroke-dasharray:7,7;"/><text fill="#000000" font-family="sans-serif" font-size="14" lengthAdjust="spacing" textLength="45.1377" x="823.9" y="164.2051">fetches</text></g><!--link FileUpload to CatalogTTL--><g class="link" data-entity-1="ent0006" data-entity-2="ent0019" data-link-type="association" data-source-line="121" id="lnk30"><path codeLine="121" d="M492,476.2019 C492,568.4719 492,798.9219 492,798.9219 C492,798.9219 993.13,798.9219 1174.21,798.9219" fill="none" id="FileUpload-CatalogTTL" style="stroke:#000000;stroke-width:1;stroke-dasharray:7,7;"/><text fill="#000000" font-family="sans-serif" font-size="14" lengthAdjust="spacing" textLength="53.7168" x="617.75" y="814.4551">appends</text></g><!--link FileUpload to AppContainer--><g class="link" data-entity-1="ent0006" data-entity-2="ent0020" data-link-type="association" data-source-line="122" id="lnk31"><path codeLine="122" d="M552,476.2819 C552,556.6719 552,738.0019 552,738.0019 C552,738.0019 633.78,738.0019 695.27,738.0019" fill="none" id="FileUpload-AppContainer" style="stroke:#000000;stroke-width:1;stroke-dasharray:7,7;"/><text fill="#000000" font-family="sans-serif" font-size="14" lengthAdjust="spacing" textLength="49.041" x="502" y="694.3051">uploads</text><text fill="#000000" font-family="sans-serif" font-size="14" lengthAdjust="spacing" textLength="11.6758" x="520.6826" y="711.9145">to</text></g><!--link FileUpload to WebIDProfile--><g class="link" data-entity-1="ent0006" data-entity-2="ent0024" data-link-type="association" data-source-line="123" id="lnk32"><path codeLine="123" d="M612.21,438.6719 C668.05,438.6719 729,438.6719 729,438.6719 C729,438.6719 729,508.4619 729,556.9919" fill="none" id="FileUpload-WebIDProfile" style="stroke:#000000;stroke-width:1;stroke-dasharray:7,7;"/><text fill="#000000" font-family="sans-serif" font-size="14" lengthAdjust="spacing" textLength="28.0068" x="691.5688" y="454.9651">links</text><text fill="#000000" font-family="sans-serif" font-size="14" lengthAdjust="spacing" textLength="45.1445" x="683" y="472.5745">catalog</text></g><!--link FileCard to IndexTTL--><g class="link" data-entity-1="ent0008" data-entity-2="ent0022" data-link-type="association" data-source-line="125" id="lnk33"><path codeLine="125" d="M578.1,262.9219 C747.53,262.9219 1239,262.9219 1239,262.9219 C1239,262.9219 1239,450.5819 1239,551.3719" fill="none" id="FileCard-IndexTTL" style="stroke:#000000;stroke-width:1;stroke-dasharray:7,7;"/><text fill="#000000" font-family="sans-serif" font-size="14" lengthAdjust="spacing" textLength="35.0205" x="1016.77" y="278.4551">reads</text></g><!--link FileCard to CatalogTTL--><g class="link" data-entity-1="ent0008" data-entity-2="ent0019" data-link-type="association" data-source-line="126" id="lnk34"><path codeLine="126" d="M578.13,285.6719 C717.33,285.6719 1065,285.6719 1065,285.6719 C1065,285.6719 1065,756.3419 1065,756.3419 C1065,756.3419 1124.96,756.3419 1174.39,756.3419" fill="none" id="FileCard-CatalogTTL" style="stroke:#000000;stroke-width:1;stroke-dasharray:7,7;"/><text fill="#000000" font-family="sans-serif" font-size="14" lengthAdjust="spacing" textLength="53.6826" x="1011" y="347.7951">removes</text></g><!--link FileCard to WebIDProfile--><g class="link" data-entity-1="ent0008" data-entity-2="ent0024" data-link-type="association" data-source-line="127" id="lnk35"><path codeLine="127" d="M578.19,308.4219 C649.29,308.4219 762,308.4219 762,308.4219 C762,308.4219 762,474.3719 762,557.0219" fill="none" id="FileCard-WebIDProfile" style="stroke:#000000;stroke-width:1;stroke-dasharray:7,7;"/><text fill="#000000" font-family="sans-serif" font-size="14" lengthAdjust="spacing" textLength="52.1309" x="707.3413" y="356.3451">resolves</text><text fill="#000000" font-family="sans-serif" font-size="14" lengthAdjust="spacing" textLength="56.8135" x="705" y="373.9545">publisher</text></g><!--link FileExplorer to AppContainer--><g class="link" data-entity-1="ent0005" data-entity-2="ent0020" data-link-type="association" data-source-line="129" id="lnk36"><path codeLine="129" d="M351.11,296.4219 C372.57,296.4219 391,296.4219 391,296.4219 C391,296.4219 391,757.3419 391,757.3419 C391,757.3419 588.43,757.3419 695.24,757.3419" fill="none" id="FileExplorer-AppContainer" style="stroke:#000000;stroke-width:1;stroke-dasharray:7,7;"/><text fill="#000000" font-family="sans-serif" font-size="14" lengthAdjust="spacing" textLength="52.1309" x="338" y="674.5951">browses</text></g><!--link FileExplorer to WebIDProfile--><g class="link" data-entity-1="ent0005" data-entity-2="ent0024" data-link-type="association" data-source-line="130" id="lnk37"><path codeLine="130" d="M351.07,234.8419 C488.67,234.8419 795,234.8419 795,234.8419 C795,234.8419 795,458.2219 795,556.8319" fill="none" id="FileExplorer-WebIDProfile" style="stroke:#000000;stroke-width:1;stroke-dasharray:7,7;"/><text fill="#000000" font-family="sans-serif" font-size="14" lengthAdjust="spacing" textLength="52.1309" x="670.5368" y="250.3751">resolves</text><text fill="#000000" font-family="sans-serif" font-size="14" lengthAdjust="spacing" textLength="73.1445" x="660.03" y="267.9845">catalog URI</text></g><?plantuml-src bLLHRzis47xNh-2S5sMhdGRTi48e2jXkWWLeks99rvU-qE9P9aAJ17bAumtzxpjIiaGwIe4n3x7kFXs_k-_kX18LC6-K50lXv0EmfQjt4g76ra5H_8Gxs0EpYajT-7kfBNTypmHiUQlmscZyoCdlkVPp3qvkfq6tyXzWbwyIPwsuzqj49pSjmarjTCIyJ20RNjytphHQh8qoZdq9l1A_aXhmO84PXpjJd0Pd_nQChIPZaDqu0QwpdVqM3ra3rTvs6G_P_W1EoDCuPrVn5D_JQos1U0EJ5vzTlmv_frSluyclVXLFRxl50mcqCahaTt7dpBTuqmVk6gdPvJ61hjQ_vd35Dw1-M95dNzL6W0VBVa-rSLpV1-FhbyKF556mHOQ6ETdia0dfgAsaqKLnhDHiHLbGtyo86d7eT5jQozwygStU6WqQtxuTNPqOkJTcnTWlob0PIkbz2wvYdZfBD-U3oxHOXgVlOx1hgU3gqL8HdWkf-ODiE4BPEdaIqe4oN4o5_6o3PpgWRpTxYUMMO2yOXjbxGMFYQoTjACn9jBkLUVoRqsXoD87XteXMGPen5m5JzfmUEYny0EJqdn_j3U3jZbkuDkwEr9aYlURk6Sh2VDD3gk4P5E3J6DIWuAuqkiF_AsMC4HIVptjrn-TKeD2XgLwzkolsCywGr9HhvDfxUyd8bvKypC7GgO7Jqdj0pqhRRfIiByvdCRjHhBkxzvGzRipZ0b4DoVjTzP66A6eGjgBKCgZjezE9hQ-eBzOXofzRjfFWEEtWm_7LlTHh6bTaj2EfRhI8qSV2fUnkmmPddunWPKlpD2VHG9ndOxMcZg11w3ZMtKD6Kv2nUaSEIfAHU4w2prMc6gnfJH25E37xmpn-EURSsejqJ6Fn4s3ezxbNRPEXRhI0lcGo_Cp8K5cgk4fANzCdY2-CQxhtkZxih9Mchq_wt4ObAOdC6lNokzX5IJehgRax1B8znmKyPklc2snktdroPjj1RFVhegQ-6iMrbQTU8HN68lRLPQM9OytLUIyOoqj83JUxN2n-dkKLwxiomnsBDUKRyo1lndbEtaJtAgDN5Fc2MIo69kvFnRQ0L49V5CcO42w9EK2f2K0BVuBCyksHdKZ-gqPpWix8zsZwgDmJTY0zh2l23osKd8evsYC-mptbs-7svW5IP5XsJrW48FKv8R_giPEARArCP5gnJVou-HFav1tP9SVs-VpNJV4V?></g></svg>