<?plantuml 1.2026.2?><svg xmlns="http://www.w3.org/2000/svg" xmlns:xlink="http://www.w3.org/1999/xlink" contentStyleType="text/css" data-diagram-type="CLASS" height="957px" preserveAspectRatio="none" style="width:1288px;height:957px;background:#FFFFFF;" version="1.1" viewBox="0 0 1288 957" width="1288px" zoomAndPan="magnify"><title>solid.drive Architecture</title><defs/><g><g class="title" data-source-line="1"><text fill="#000000" font-family="sans-serif" font-size="22" font-weight="bold" lengthAdjust="spacing" textLength="245.7383" x="516.6309" y="37.8379">solid.drive Architecture</text></g><!--cluster Browser--><g class="cluster" data-qualified-name="Browser" data-source-line="26" id="ent0002"><path d="M13.5,59.6719 L66.519,59.6719 A3.75,3.75 0 0 1 69.019,62.1719 L76.019,82.0234 L828.5,82.0234 A2.5,2.5 0 0 1 831,84.5234 L831,513.1719 A2.5,2.5 0 0 1 828.5,515.6719 L13.5,515.6719 A2.5,2.5 0 0 1 11,513.1719 L11,62.1719 A2.5,2.5 0 0 1 13.5,59.6719" fill="#F8F8F8" style="stroke:#AAAAAA;stroke-width:1;"/><line style="stroke:#AAAAAA;stroke-width:1;" x1="11" x2="76.019" y1="82.0234" y2="82.0234"/><text fill="#333333" font-family="sans-serif" font-size="13" font-weight="bold" lengthAdjust="spacing" textLength="52.019" x="15" y="75.167">Browser</text></g><!--cluster Solid Pod (user-owned)--><g class="cluster" data-qualified-name="Solid Pod .user-owned." data-source-line="67" id="ent0020"><path d="M618.5,539.6719 L764.6646,539.6719 A3.75,3.75 0 0 1 767.1646,542.1719 L774.1646,562.0234 L1278.5,562.0234 A2.5,2.5 0 0 1 1281,564.5234 L1281,948.1719 A2.5,2.5 0 0 1 1278.5,950.6719 L618.5,950.6719 A2.5,2.5 0 0 1 616,948.1719 L616,542.1719 A2.5,2.5 0 0 1 618.5,539.6719" fill="#F8F8F8" style="stroke:#AAAAAA;stroke-width:1;"/><line style="stroke:#AAAAAA;stroke-width:1;" x1="616" x2="774.1646" y1="562.0234" y2="562.0234"/><text fill="#333333" font-family="sans-serif" font-size="13" font-weight="bold" lengthAdjust="spacing" textLength="145.1646" x="620" y="555.167">Solid Pod (user-owned)</text></g><!--class App--><g class="entity" data-qualified-name="Browser.App" data-source-line="28" id="ent0003"><rect fill="#FFFFFF" height="58.1509" rx="2.5" ry="2.5" style="stroke:#555555;stroke-width:1;" width="113.3813" x="27" y="361.6719"/><rect fill="#EEEEEE" height="42.1509" rx="2.5" ry="2.5" style="stroke:#EEEEEE;stroke-width:1;" width="113.3813" x="27" y="361.6719"/><rect fill="#EEEEEE" height="2.5" style="stroke:#EEEEEE;stroke-width:1;" width="113.3813" x="27" y="401.3228"/><rect fill="none" height="58.1509" rx="2.5" ry="2.5" style="stroke:#555555;stroke-width:1;" width="113.3813" x="27" y="361.6719"/><ellipse cx="40" cy="382.7473" fill="#FFFFFF" rx="9" ry="9" style="stroke:#000000;stroke-width:1;"/><path d="M41.4063,384.3254 L43.2188,384.9036 Q42.7969,386.4192 41.8281,387.1692 Q40.8594,387.9036 39.3594,387.9036 Q37.5,387.9036 36.2969,386.6379 Q35.1094,385.3723 35.1094,383.1692 Q35.1094,380.8567 36.3125,379.5754 Q37.5156,378.2786 39.4688,378.2786 Q41.1719,378.2786 42.25,379.2942 Q42.875,379.8879 43.2031,381.0129 L41.3438,381.4504 Q41.1719,380.7317 40.6406,380.3098 Q40.125,379.8879 39.375,379.8879 Q38.3438,379.8879 37.6875,380.6379 Q37.0469,381.3723 37.0469,383.0442 Q37.0469,384.7942 37.6875,385.5442 Q38.3281,386.2942 39.3438,386.2942 Q40.0938,386.2942 40.625,385.8254 Q41.1719,385.3411 41.4063,384.3254 Z " fill="#000000"/><text fill="#000000" font-family="Verdana" font-size="13" font-style="italic" lengthAdjust="spacing" textLength="89.3813" x="50" y="379.7417">&#171;component&#187;</text><text fill="#111111" font-family="sans-serif" font-size="13" lengthAdjust="spacing" textLength="23.1309" x="83.1252" y="395.9663">App</text><line style="stroke:#555555;stroke-width:1;" x1="28" x2="139.3813" y1="403.8228" y2="403.8228"/><line style="stroke:#555555;stroke-width:1;" x1="28" x2="139.3813" y1="411.8228" y2="411.8228"/></g><!--class Header--><g class="entity" data-qualified-name="Browser.Header" data-source-line="30" id="ent0004"><rect fill="#FFFFFF" height="90.854" rx="2.5" ry="2.5" style="stroke:#555555;stroke-width:1;" width="129.4063" x="201" y="408.1719"/><rect fill="#EEEEEE" height="42.1509" rx="2.5" ry="2.5" style="stroke:#EEEEEE;stroke-width:1;" width="129.4063" x="201" y="408.1719"/><rect fill="#EEEEEE" height="2.5" style="stroke:#EEEEEE;stroke-width:1;" width="129.4063" x="201" y="447.8228"/><rect fill="none" height="90.854" rx="2.5" ry="2.5" style="stroke:#555555;stroke-width:1;" width="129.4063" x="201" y="408.1719"/><ellipse cx="221.2112" cy="429.2473" fill="#FFFFFF" rx="9" ry="9" style="stroke:#000000;stroke-width:1;"/><path d="M222.6175,430.8254 L224.43,431.4036 Q224.0081,432.9192 223.0393,433.6692 Q222.0706,434.4036 220.5706,434.4036 Q218.7112,434.4036 217.5081,433.1379 Q216.3206,431.8723 216.3206,429.6692 Q216.3206,427.3567 217.5237,426.0754 Q218.7268,424.7786 220.68,424.7786 Q222.3831,424.7786 223.4612,425.7942 Q224.0862,426.3879 224.4143,427.5129 L222.555,427.9504 Q222.3831,427.2317 221.8518,426.8098 Q221.3362,426.3879 220.5862,426.3879 Q219.555,426.3879 218.8987,427.1379 Q218.2581,427.8723 218.2581,429.5442 Q218.2581,431.2942 218.8987,432.0442 Q219.5393,432.7942 220.555,432.7942 Q221.305,432.7942 221.8362,432.3254 Q222.3831,431.8411 222.6175,430.8254 Z " fill="#000000"/><text fill="#000000" font-family="Verdana" font-size="13" font-style="italic" lengthAdjust="spacing" textLength="89.3813" x="232.8137" y="426.2417">&#171;component&#187;</text><text fill="#111111" font-family="sans-serif" font-size="13" lengthAdjust="spacing" textLength="42.6372" x="256.1858" y="442.4663">Header</text><line style="stroke:#555555;stroke-width:1;" x1="202" x2="329.4063" y1="450.3228" y2="450.3228"/><line style="stroke:#555555;stroke-width:1;" x1="202" x2="329.4063" y1="458.3228" y2="458.3228"/><text fill="#000000" font-family="sans-serif" font-size="13" lengthAdjust="spacing" textLength="117.4063" x="207" y="475.8179">+login(issuer: string)</text><text fill="#000000" font-family="sans-serif" font-size="13" lengthAdjust="spacing" textLength="51.6699" x="207" y="492.1694">+logout()</text></g><!--class FileExplorer--><g class="entity" data-qualified-name="Browser.FileExplorer" data-source-line="35" id="ent0005"><rect fill="#FFFFFF" height="90.854" rx="2.5" ry="2.5" style="stroke:#555555;stroke-width:1;" width="130.8599" x="200" y="282.1719"/><rect fill="#EEEEEE" height="42.1509" rx="2.5" ry="2.5" style="stroke:#EEEEEE;stroke-width:1;" width="130.8599" x="200" y="282.1719"/><rect fill="#EEEEEE" height="2.5" style="stroke:#EEEEEE;stroke-width:1;" width="130.8599" x="200" y="321.8228"/><rect fill="none" height="90.854" rx="2.5" ry="2.5" style="stroke:#555555;stroke-width:1;" width="130.8599" x="200" y="282.1719"/><ellipse cx="220.8653" cy="303.2473" fill="#FFFFFF" rx="9" ry="9" style="stroke:#000000;stroke-width:1;"/><path d="M222.2716,304.8254 L224.0841,305.4036 Q223.6622,306.9192 222.6935,307.6692 Q221.7247,308.4036 220.2247,308.4036 Q218.3653,308.4036 217.1622,307.1379 Q215.9747,305.8723 215.9747,303.6692 Q215.9747,301.3567 217.1778,300.0754 Q218.381,298.7786 220.3341,298.7786 Q222.0372,298.7786 223.1153,299.7942 Q223.7403,300.3879 224.0685,301.5129 L222.2091,301.9504 Q222.0372,301.2317 221.506,300.8098 Q220.9903,300.3879 220.2403,300.3879 Q219.2091,300.3879 218.5528,301.1379 Q217.9122,301.8723 217.9122,303.5442 Q217.9122,305.2942 218.5528,306.0442 Q219.1935,306.7942 220.2091,306.7942 Q220.9591,306.7942 221.4903,306.3254 Q222.0372,305.8411 222.2716,304.8254 Z " fill="#000000"/><text fill="#000000" font-family="Verdana" font-size="13" font-style="italic" lengthAdjust="spacing" textLength="89.3813" x="232.6132" y="300.2417">&#171;component&#187;</text><text fill="#111111" font-family="sans-serif" font-size="13" lengthAdjust="spacing" textLength="69.3545" x="242.6266" y="316.4663">FileExplorer</text><line style="stroke:#555555;stroke-width:1;" x1="201" x2="329.8599" y1="324.3228" y2="324.3228"/><line style="stroke:#555555;stroke-width:1;" x1="201" x2="329.8599" y1="332.3228" y2="332.3228"/><text fill="#000000" font-family="sans-serif" font-size="13" lengthAdjust="spacing" textLength="118.8599" x="206" y="349.8179">+navigate(uri: string)</text><text fill="#000000" font-family="sans-serif" font-size="13" lengthAdjust="spacing" textLength="52.3872" x="206" y="366.1694">+reload()</text></g><!--class FileUpload--><g class="entity" data-qualified-name="Browser.FileUpload" data-source-line="40" id="ent0006"><rect fill="#FFFFFF" height="74.5024" rx="2.5" ry="2.5" style="stroke:#555555;stroke-width:1;" width="180.7017" x="391" y="314.1719"/><rect fill="#EEEEEE" height="42.1509" rx="2.5" ry="2.5" style="stroke:#EEEEEE;stroke-width:1;" width="180.7017" x="391" y="314.1719"/><rect fill="#EEEEEE" height="2.5" style="stroke:#EEEEEE;stroke-width:1;" width="180.7017" x="391" y="353.8228"/><rect fill="none" height="74.5024" rx="2.5" ry="2.5" style="stroke:#555555;stroke-width:1;" width="180.7017" x="391" y="314.1719"/><ellipse cx="434.9102" cy="335.2473" fill="#FFFFFF" rx="9" ry="9" style="stroke:#000000;stroke-width:1;"/><path d="M436.3164,336.8254 L438.1289,337.4036 Q437.707,338.9192 436.7383,339.6692 Q435.7695,340.4036 434.2695,340.4036 Q432.4102,340.4036 431.207,339.1379 Q430.0195,337.8723 430.0195,335.6692 Q430.0195,333.3567 431.2227,332.0754 Q432.4258,330.7786 434.3789,330.7786 Q436.082,330.7786 437.1602,331.7942 Q437.7852,332.3879 438.1133,333.5129 L436.2539,333.9504 Q436.082,333.2317 435.5508,332.8098 Q435.0352,332.3879 434.2852,332.3879 Q433.2539,332.3879 432.5977,333.1379 Q431.957,333.8723 431.957,335.5442 Q431.957,337.2942 432.5977,338.0442 Q433.2383,338.7942 434.2539,338.7942 Q435.0039,338.7942 435.5352,338.3254 Q436.082,337.8411 436.3164,336.8254 Z " fill="#000000"/><text fill="#000000" font-family="Verdana" font-size="13" font-style="italic" lengthAdjust="spacing" textLength="89.3813" x="450.4102" y="332.2417">&#171;component&#187;</text><text fill="#111111" font-family="sans-serif" font-size="13" lengthAdjust="spacing" textLength="62.1436" x="464.0291" y="348.4663">FileUpload</text><line style="stroke:#555555;stroke-width:1;" x1="392" x2="570.7017" y1="356.3228" y2="356.3228"/><line style="stroke:#555555;stroke-width:1;" x1="392" x2="570.7017" y1="364.3228" y2="364.3228"/><text fill="#000000" font-family="sans-serif" font-size="13" lengthAdjust="spacing" textLength="168.7017" x="397" y="381.8179">+submit(file, title, description)</text></g><!--class FileCard--><g class="entity" data-qualified-name="Browser.FileCard" data-source-line="44" id="ent0007"><rect fill="#FFFFFF" height="90.854" rx="2.5" ry="2.5" style="stroke:#555555;stroke-width:1;" width="113.3813" x="425" y="188.1719"/><rect fill="#EEEEEE" height="42.1509" rx="2.5" ry="2.5" style="stroke:#EEEEEE;stroke-width:1;" width="113.3813" x="425" y="188.1719"/><rect fill="#EEEEEE" height="2.5" style="stroke:#EEEEEE;stroke-width:1;" width="113.3813" x="425" y="227.8228"/><rect fill="none" height="90.854" rx="2.5" ry="2.5" style="stroke:#555555;stroke-width:1;" width="113.3813" x="425" y="188.1719"/><ellipse cx="438" cy="209.2473" fill="#FFFFFF" rx="9" ry="9" style="stroke:#000000;stroke-width:1;"/><path d="M439.4063,210.8254 L441.2188,211.4036 Q440.7969,212.9192 439.8281,213.6692 Q438.8594,214.4036 437.3594,214.4036 Q435.5,214.4036 434.2969,213.1379 Q433.1094,211.8723 433.1094,209.6692 Q433.1094,207.3567 434.3125,206.0754 Q435.5156,204.7786 437.4688,204.7786 Q439.1719,204.7786 440.25,205.7942 Q440.875,206.3879 441.2031,207.5129 L439.3438,207.9504 Q439.1719,207.2317 438.6406,206.8098 Q438.125,206.3879 437.375,206.3879 Q436.3438,206.3879 435.6875,207.1379 Q435.0469,207.8723 435.0469,209.5442 Q435.0469,211.2942 435.6875,212.0442 Q436.3281,212.7942 437.3438,212.7942 Q438.0938,212.7942 438.625,212.3254 Q439.1719,211.8411 439.4063,210.8254 Z " fill="#000000"/><text fill="#000000" font-family="Verdana" font-size="13" font-style="italic" lengthAdjust="spacing" textLength="89.3813" x="448" y="206.2417">&#171;component&#187;</text><text fill="#111111" font-family="sans-serif" font-size="13" lengthAdjust="spacing" textLength="49.1245" x="468.1284" y="222.4663">FileCard</text><line style="stroke:#555555;stroke-width:1;" x1="426" x2="537.3813" y1="230.3228" y2="230.3228"/><line style="stroke:#555555;stroke-width:1;" x1="426" x2="537.3813" y1="238.3228" y2="238.3228"/><text fill="#000000" font-family="sans-serif" font-size="13" lengthAdjust="spacing" textLength="71.9063" x="431" y="255.8179">+download()</text><text fill="#000000" font-family="sans-serif" font-size="13" lengthAdjust="spacing" textLength="51.6699" x="431" y="272.1694">+delete()</text></g><!--class FolderEntry--><g class="entity" data-qualified-name="Browser.FolderEntry" data-source-line="49" id="ent0008"><rect fill="#FFFFFF" height="74.5024" rx="2.5" ry="2.5" style="stroke:#555555;stroke-width:1;" width="130.8599" x="416" y="424.1719"/><rect fill="#EEEEEE" height="42.1509" rx="2.5" ry="2.5" style="stroke:#EEEEEE;stroke-width:1;" width="130.8599" x="416" y="424.1719"/><rect fill="#EEEEEE" height="2.5" style="stroke:#EEEEEE;stroke-width:1;" width="130.8599" x="416" y="463.8228"/><rect fill="none" height="74.5024" rx="2.5" ry="2.5" style="stroke:#555555;stroke-width:1;" width="130.8599" x="416" y="424.1719"/><ellipse cx="436.8653" cy="445.2473" fill="#FFFFFF" rx="9" ry="9" style="stroke:#000000;stroke-width:1;"/><path d="M438.2716,446.8254 L440.0841,447.4036 Q439.6622,448.9192 438.6935,449.6692 Q437.7247,450.4036 436.2247,450.4036 Q434.3653,450.4036 433.1622,449.1379 Q431.9747,447.8723 431.9747,445.6692 Q431.9747,443.3567 433.1778,442.0754 Q434.381,440.7786 436.3341,440.7786 Q438.0372,440.7786 439.1153,441.7942 Q439.7403,442.3879 440.0685,443.5129 L438.2091,443.9504 Q438.0372,443.2317 437.506,442.8098 Q436.9903,442.3879 436.2403,442.3879 Q435.2091,442.3879 434.5528,443.1379 Q433.9122,443.8723 433.9122,445.5442 Q433.9122,447.2942 434.5528,448.0442 Q435.1935,448.7942 436.2091,448.7942 Q436.9591,448.7942 437.4903,448.3254 Q438.0372,447.8411 438.2716,446.8254 Z " fill="#000000"/><text fill="#000000" font-family="Verdana" font-size="13" font-style="italic" lengthAdjust="spacing" textLength="89.3813" x="448.6132" y="442.2417">&#171;component&#187;</text><text fill="#111111" font-family="sans-serif" font-size="13" lengthAdjust="spacing" textLength="67.1899" x="459.7089" y="458.4663">FolderEntry</text><line style="stroke:#555555;stroke-width:1;" x1="417" x2="545.8599" y1="466.3228" y2="466.3228"/><line style="stroke:#555555;stroke-width:1;" x1="417" x2="545.8599" y1="474.3228" y2="474.3228"/><text fill="#000000" font-family="sans-serif" font-size="13" lengthAdjust="spacing" textLength="118.8599" x="422" y="491.8179">+navigate(uri: string)</text></g><!--class DataCatalog--><g class="entity" data-qualified-name="Browser.DataCatalog" data-source-line="53" id="ent0009"><rect fill="#FFFFFF" height="58.1509" rx="2.5" ry="2.5" style="stroke:#555555;stroke-width:1;" width="113.3813" x="425" y="94.6719"/><rect fill="#EEEEEE" height="42.1509" rx="2.5" ry="2.5" style="stroke:#EEEEEE;stroke-width:1;" width="113.3813" x="425" y="94.6719"/><rect fill="#EEEEEE" height="2.5" style="stroke:#EEEEEE;stroke-width:1;" width="113.3813" x="425" y="134.3228"/><rect fill="none" height="58.1509" rx="2.5" ry="2.5" style="stroke:#555555;stroke-width:1;" width="113.3813" x="425" y="94.6719"/><ellipse cx="438" cy="115.7473" fill="#FFFFFF" rx="9" ry="9" style="stroke:#000000;stroke-width:1;"/><path d="M439.4063,117.3254 L441.2188,117.9036 Q440.7969,119.4192 439.8281,120.1692 Q438.8594,120.9036 437.3594,120.9036 Q435.5,120.9036 434.2969,119.6379 Q433.1094,118.3723 433.1094,116.1692 Q433.1094,113.8567 434.3125,112.5754 Q435.5156,111.2786 437.4688,111.2786 Q439.1719,111.2786 440.25,112.2942 Q440.875,112.8879 441.2031,114.0129 L439.3438,114.4504 Q439.1719,113.7317 438.6406,113.3098 Q438.125,112.8879 437.375,112.8879 Q436.3438,112.8879 435.6875,113.6379 Q435.0469,114.3723 435.0469,116.0442 Q435.0469,117.7942 435.6875,118.5442 Q436.3281,119.2942 437.3438,119.2942 Q438.0938,119.2942 438.625,118.8254 Q439.1719,118.3411 439.4063,117.3254 Z " fill="#000000"/><text fill="#000000" font-family="Verdana" font-size="13" font-style="italic" lengthAdjust="spacing" textLength="89.3813" x="448" y="112.7417">&#171;component&#187;</text><text fill="#111111" font-family="sans-serif" font-size="13" lengthAdjust="spacing" textLength="72.2681" x="456.5566" y="128.9663">DataCatalog</text><line style="stroke:#555555;stroke-width:1;" x1="426" x2="537.3813" y1="136.8228" y2="136.8228"/><line style="stroke:#555555;stroke-width:1;" x1="426" x2="537.3813" y1="144.8228" y2="144.8228"/></g><!--class TBoxView--><g class="entity" data-qualified-name="Browser.TBoxView" data-source-line="54" id="ent0010"><rect fill="#FFFFFF" height="58.1509" rx="2.5" ry="2.5" style="stroke:#555555;stroke-width:1;" width="113.3813" x="702" y="187.6719"/><rect fill="#EEEEEE" height="42.1509" rx="2.5" ry="2.5" style="stroke:#EEEEEE;stroke-width:1;" width="113.3813" x="702" y="187.6719"/><rect fill="#EEEEEE" height="2.5" style="stroke:#EEEEEE;stroke-width:1;" width="113.3813" x="702" y="227.3228"/><rect fill="none" height="58.1509" rx="2.5" ry="2.5" style="stroke:#555555;stroke-width:1;" width="113.3813" x="702" y="187.6719"/><ellipse cx="715" cy="208.7473" fill="#FFFFFF" rx="9" ry="9" style="stroke:#000000;stroke-width:1;"/><path d="M716.4063,210.3254 L718.2188,210.9036 Q717.7969,212.4192 716.8281,213.1692 Q715.8594,213.9036 714.3594,213.9036 Q712.5,213.9036 711.2969,212.6379 Q710.1094,211.3723 710.1094,209.1692 Q710.1094,206.8567 711.3125,205.5754 Q712.5156,204.2786 714.4688,204.2786 Q716.1719,204.2786 717.25,205.2942 Q717.875,205.8879 718.2031,207.0129 L716.3438,207.4504 Q716.1719,206.7317 715.6406,206.3098 Q715.125,205.8879 714.375,205.8879 Q713.3438,205.8879 712.6875,206.6379 Q712.0469,207.3723 712.0469,209.0442 Q712.0469,210.7942 712.6875,211.5442 Q713.3281,212.2942 714.3438,212.2942 Q715.0938,212.2942 715.625,211.8254 Q716.1719,211.3411 716.4063,210.3254 Z " fill="#000000"/><text fill="#000000" font-family="Verdana" font-size="13" font-style="italic" lengthAdjust="spacing" textLength="89.3813" x="725" y="205.7417">&#171;component&#187;</text><text fill="#111111" font-family="sans-serif" font-size="13" lengthAdjust="spacing" textLength="58.519" x="740.4312" y="221.9663">TBoxView</text><line style="stroke:#555555;stroke-width:1;" x1="703" x2="814.3813" y1="229.8228" y2="229.8228"/><line style="stroke:#555555;stroke-width:1;" x1="703" x2="814.3813" y1="237.8228" y2="237.8228"/></g><!--class ABoxView--><g class="entity" data-qualified-name="Browser.ABoxView" data-source-line="55" id="ent0011"><rect fill="#FFFFFF" height="58.1509" rx="2.5" ry="2.5" style="stroke:#555555;stroke-width:1;" width="113.3813" x="702" y="94.6719"/><rect fill="#EEEEEE" height="42.1509" rx="2.5" ry="2.5" style="stroke:#EEEEEE;stroke-width:1;" width="113.3813" x="702" y="94.6719"/><rect fill="#EEEEEE" height="2.5" style="stroke:#EEEEEE;stroke-width:1;" width="113.3813" x="702" y="134.3228"/><rect fill="none" height="58.1509" rx="2.5" ry="2.5" style="stroke:#555555;stroke-width:1;" width="113.3813" x="702" y="94.6719"/><ellipse cx="715" cy="115.7473" fill="#FFFFFF" rx="9" ry="9" style="stroke:#000000;stroke-width:1;"/><path d="M716.4063,117.3254 L718.2188,117.9036 Q717.7969,119.4192 716.8281,120.1692 Q715.8594,120.9036 714.3594,120.9036 Q712.5,120.9036 711.2969,119.6379 Q710.1094,118.3723 710.1094,116.1692 Q710.1094,113.8567 711.3125,112.5754 Q712.5156,111.2786 714.4688,111.2786 Q716.1719,111.2786 717.25,112.2942 Q717.875,112.8879 718.2031,114.0129 L716.3438,114.4504 Q716.1719,113.7317 715.6406,113.3098 Q715.125,112.8879 714.375,112.8879 Q713.3438,112.8879 712.6875,113.6379 Q712.0469,114.3723 712.0469,116.0442 Q712.0469,117.7942 712.6875,118.5442 Q713.3281,119.2942 714.3438,119.2942 Q715.0938,119.2942 715.625,118.8254 Q716.1719,118.3411 716.4063,117.3254 Z " fill="#000000"/><text fill="#000000" font-family="Verdana" font-size="13" font-style="italic" lengthAdjust="spacing" textLength="89.3813" x="725" y="112.7417">&#171;component&#187;</text><text fill="#111111" font-family="sans-serif" font-size="13" lengthAdjust="spacing" textLength="59.249" x="740.0662" y="128.9663">ABoxView</text><line style="stroke:#555555;stroke-width:1;" x1="703" x2="814.3813" y1="136.8228" y2="136.8228"/><line style="stroke:#555555;stroke-width:1;" x1="703" x2="814.3813" y1="144.8228" y2="144.8228"/></g><!--class TBoxTTL--><g class="entity" data-qualified-name="Solid Pod .user-owned..TBoxTTL" data-source-line="69" id="ent0021"><rect fill="#FFFFFF" height="139.9087" rx="2.5" ry="2.5" style="stroke:#555555;stroke-width:1;" width="252.5889" x="632" y="701.6719"/><rect fill="#EEEEEE" height="42.1509" rx="2.5" ry="2.5" style="stroke:#EEEEEE;stroke-width:1;" width="252.5889" x="632" y="701.6719"/><rect fill="#EEEEEE" height="2.5" style="stroke:#EEEEEE;stroke-width:1;" width="252.5889" x="632" y="741.3228"/><rect fill="none" height="139.9087" rx="2.5" ry="2.5" style="stroke:#555555;stroke-width:1;" width="252.5889" x="632" y="701.6719"/><ellipse cx="724.4919" cy="722.7473" fill="#FFFFFF" rx="9" ry="9" style="stroke:#000000;stroke-width:1;"/><path d="M725.8982,724.3254 L727.7107,724.9036 Q727.2888,726.4192 726.3201,727.1692 Q725.3513,727.9036 723.8513,727.9036 Q721.9919,727.9036 720.7888,726.6379 Q719.6013,725.3723 719.6013,723.1692 Q719.6013,720.8567 720.8044,719.5754 Q722.0076,718.2786 723.9607,718.2786 Q725.6638,718.2786 726.7419,719.2942 Q727.3669,719.8879 727.6951,721.0129 L725.8357,721.4504 Q725.6638,720.7317 725.1326,720.3098 Q724.6169,719.8879 723.8669,719.8879 Q722.8357,719.8879 722.1794,720.6379 Q721.5388,721.3723 721.5388,723.0442 Q721.5388,724.7942 722.1794,725.5442 Q722.8201,726.2942 723.8357,726.2942 Q724.5857,726.2942 725.1169,725.8254 Q725.6638,725.3411 725.8982,724.3254 Z " fill="#000000"/><text fill="#000000" font-family="Verdana" font-size="13" font-style="italic" lengthAdjust="spacing" textLength="64.105" x="739.9919" y="719.7417">&#171;tbox.ttl&#187;</text><text fill="#111111" font-family="sans-serif" font-size="13" lengthAdjust="spacing" textLength="53.4536" x="745.3176" y="735.9663">TBoxTTL</text><line style="stroke:#555555;stroke-width:1;" x1="633" x2="883.5889" y1="743.8228" y2="743.8228"/><text fill="#000000" font-family="sans-serif" font-size="13" lengthAdjust="spacing" textLength="82.3799" x="638" y="761.3179">app:ImageFile</text><text fill="#000000" font-family="sans-serif" font-size="13" lengthAdjust="spacing" textLength="79.498" x="638" y="777.6694">app:VideoFile</text><text fill="#000000" font-family="sans-serif" font-size="13" lengthAdjust="spacing" textLength="79.498" x="638" y="794.021">app:AudioFile</text><text fill="#000000" font-family="sans-serif" font-size="13" lengthAdjust="spacing" textLength="109.8335" x="638" y="810.3726">app:TextDocument</text><text fill="#000000" font-family="sans-serif" font-size="13" lengthAdjust="spacing" textLength="240.5889" x="638" y="826.7241">rdfs:subClassOf schema:DigitalDocument</text><line style="stroke:#555555;stroke-width:1;" x1="633" x2="883.5889" y1="833.5806" y2="833.5806"/></g><!--class CatalogTTL--><g class="entity" data-qualified-name="Solid Pod .user-owned..CatalogTTL" data-source-line="77" id="ent0022"><rect fill="#FFFFFF" height="90.854" rx="2.5" ry="2.5" style="stroke:#555555;stroke-width:1;" width="180.3081" x="668.5" y="575.1719"/><rect fill="#EEEEEE" height="42.1509" rx="2.5" ry="2.5" style="stroke:#EEEEEE;stroke-width:1;" width="180.3081" x="668.5" y="575.1719"/><rect fill="#EEEEEE" height="2.5" style="stroke:#EEEEEE;stroke-width:1;" width="180.3081" x="668.5" y="614.8228"/><rect fill="none" height="90.854" rx="2.5" ry="2.5" style="stroke:#555555;stroke-width:1;" width="180.3081" x="668.5" y="575.1719"/><ellipse cx="715.73" cy="596.2473" fill="#FFFFFF" rx="9" ry="9" style="stroke:#000000;stroke-width:1;"/><path d="M717.1362,597.8254 L718.9487,598.4036 Q718.5269,599.9192 717.5581,600.6692 Q716.5894,601.4036 715.0894,601.4036 Q713.23,601.4036 712.0269,600.1379 Q710.8394,598.8723 710.8394,596.6692 Q710.8394,594.3567 712.0425,593.0754 Q713.2456,591.7786 715.1987,591.7786 Q716.9019,591.7786 717.98,592.7942 Q718.605,593.3879 718.9331,594.5129 L717.0737,594.9504 Q716.9019,594.2317 716.3706,593.8098 Q715.855,593.3879 715.105,593.3879 Q714.0737,593.3879 713.4175,594.1379 Q712.7769,594.8723 712.7769,596.5442 Q712.7769,598.2942 713.4175,599.0442 Q714.0581,599.7942 715.0737,599.7942 Q715.8237,599.7942 716.355,599.3254 Q716.9019,598.8411 717.1362,597.8254 Z " fill="#000000"/><text fill="#000000" font-family="Verdana" font-size="13" font-style="italic" lengthAdjust="spacing" textLength="82.3481" x="731.23" y="593.2417">&#171;catalog.ttl&#187;</text><text fill="#111111" font-family="sans-serif" font-size="13" lengthAdjust="spacing" textLength="67.9199" x="738.4441" y="609.4663">CatalogTTL</text><line style="stroke:#555555;stroke-width:1;" x1="669.5" x2="847.8081" y1="617.3228" y2="617.3228"/><text fill="#000000" font-family="sans-serif" font-size="13" lengthAdjust="spacing" textLength="152.4644" x="674.5" y="634.8179">instanceUri a dcat:Dataset</text><text fill="#000000" font-family="sans-serif" font-size="13" lengthAdjust="spacing" textLength="168.3081" x="674.5" y="651.1694">dcterms:conformsTo classUri</text><line style="stroke:#555555;stroke-width:1;" x1="669.5" x2="847.8081" y1="658.0259" y2="658.0259"/></g><!--class AppContainer--><g class="entity" data-qualified-name="Solid Pod .user-owned..AppContainer" data-source-line="82" id="ent0023"><rect fill="#FFFFFF" height="58.1509" rx="2.5" ry="2.5" style="stroke:#555555;stroke-width:1;" width="132.7036" x="692" y="876.6719"/><rect fill="#EEEEEE" height="42.1509" rx="2.5" ry="2.5" style="stroke:#EEEEEE;stroke-width:1;" width="132.7036" x="692" y="876.6719"/><rect fill="#EEEEEE" height="2.5" style="stroke:#EEEEEE;stroke-width:1;" width="132.7036" x="692" y="916.3228"/><rect fill="none" height="58.1509" rx="2.5" ry="2.5" style="stroke:#555555;stroke-width:1;" width="132.7036" x="692" y="876.6719"/><ellipse cx="705" cy="897.7473" fill="#FFFFFF" rx="9" ry="9" style="stroke:#000000;stroke-width:1;"/><path d="M706.4063,899.3254 L708.2188,899.9036 Q707.7969,901.4192 706.8281,902.1692 Q705.8594,902.9036 704.3594,902.9036 Q702.5,902.9036 701.2969,901.6379 Q700.1094,900.3723 700.1094,898.1692 Q700.1094,895.8567 701.3125,894.5754 Q702.5156,893.2786 704.4688,893.2786 Q706.1719,893.2786 707.25,894.2942 Q707.875,894.8879 708.2031,896.0129 L706.3438,896.4504 Q706.1719,895.7317 705.6406,895.3098 Q705.125,894.8879 704.375,894.8879 Q703.3438,894.8879 702.6875,895.6379 Q702.0469,896.3723 702.0469,898.0442 Q702.0469,899.7942 702.6875,900.5442 Q703.3281,901.2942 704.3438,901.2942 Q705.0938,901.2942 705.625,900.8254 Q706.1719,900.3411 706.4063,899.3254 Z " fill="#000000"/><text fill="#000000" font-family="Verdana" font-size="13" font-style="italic" lengthAdjust="spacing" textLength="108.7036" x="715" y="894.7417">&#171;my-solid-app/&#187;</text><text fill="#111111" font-family="sans-serif" font-size="13" lengthAdjust="spacing" textLength="79.498" x="729.6028" y="910.9663">AppContainer</text><line style="stroke:#555555;stroke-width:1;" x1="693" x2="823.7036" y1="918.8228" y2="918.8228"/><line style="stroke:#555555;stroke-width:1;" x1="693" x2="823.7036" y1="926.8228" y2="926.8228"/></g><!--class FileContainer--><g class="entity" data-qualified-name="Solid Pod .user-owned..FileContainer" data-source-line="84" id="ent0024"><rect fill="#FFFFFF" height="58.1509" rx="2.5" ry="2.5" style="stroke:#555555;stroke-width:1;" width="105.3145" x="945" y="701.6719"/><rect fill="#EEEEEE" height="42.1509" rx="2.5" ry="2.5" style="stroke:#EEEEEE;stroke-width:1;" width="105.3145" x="945" y="701.6719"/><rect fill="#EEEEEE" height="2.5" style="stroke:#EEEEEE;stroke-width:1;" width="105.3145" x="945" y="741.3228"/><rect fill="none" height="58.1509" rx="2.5" ry="2.5" style="stroke:#555555;stroke-width:1;" width="105.3145" x="945" y="701.6719"/><ellipse cx="958" cy="722.7473" fill="#FFFFFF" rx="9" ry="9" style="stroke:#000000;stroke-width:1;"/><path d="M959.4063,724.3254 L961.2188,724.9036 Q960.7969,726.4192 959.8281,727.1692 Q958.8594,727.9036 957.3594,727.9036 Q955.5,727.9036 954.2969,726.6379 Q953.1094,725.3723 953.1094,723.1692 Q953.1094,720.8567 954.3125,719.5754 Q955.5156,718.2786 957.4688,718.2786 Q959.1719,718.2786 960.25,719.2942 Q960.875,719.8879 961.2031,721.0129 L959.3438,721.4504 Q959.1719,720.7317 958.6406,720.3098 Q958.125,719.8879 957.375,719.8879 Q956.3438,719.8879 955.6875,720.6379 Q955.0469,721.3723 955.0469,723.0442 Q955.0469,724.7942 955.6875,725.5442 Q956.3281,726.2942 957.3438,726.2942 Q958.0938,726.2942 958.625,725.8254 Q959.1719,725.3411 959.4063,724.3254 Z " fill="#000000"/><text fill="#000000" font-family="Verdana" font-size="13" font-style="italic" lengthAdjust="spacing" textLength="74.6611" x="971.3267" y="719.7417">&#171;file-slug/&#187;</text><text fill="#111111" font-family="sans-serif" font-size="13" lengthAdjust="spacing" textLength="77.3145" x="970" y="735.9663">FileContainer</text><line style="stroke:#555555;stroke-width:1;" x1="946" x2="1049.3145" y1="743.8228" y2="743.8228"/><line style="stroke:#555555;stroke-width:1;" x1="946" x2="1049.3145" y1="751.8228" y2="751.8228"/></g><!--class IndexTTL--><g class="entity" data-qualified-name="Solid Pod .user-owned..IndexTTL" data-source-line="86" id="ent0025"><rect fill="#FFFFFF" height="156.2603" rx="2.5" ry="2.5" style="stroke:#555555;stroke-width:1;" width="155.0698" x="1110" y="723.6719"/><rect fill="#EEEEEE" height="42.1509" rx="2.5" ry="2.5" style="stroke:#EEEEEE;stroke-width:1;" width="155.0698" x="1110" y="723.6719"/><rect fill="#EEEEEE" height="2.5" style="stroke:#EEEEEE;stroke-width:1;" width="155.0698" x="1110" y="763.3228"/><rect fill="none" height="156.2603" rx="2.5" ry="2.5" style="stroke:#555555;stroke-width:1;" width="155.0698" x="1110" y="723.6719"/><ellipse cx="1150.4697" cy="744.7473" fill="#FFFFFF" rx="9" ry="9" style="stroke:#000000;stroke-width:1;"/><path d="M1151.876,746.3254 L1153.6885,746.9036 Q1153.2666,748.4192 1152.2979,749.1692 Q1151.3291,749.9036 1149.8291,749.9036 Q1147.9697,749.9036 1146.7666,748.6379 Q1145.5791,747.3723 1145.5791,745.1692 Q1145.5791,742.8567 1146.7822,741.5754 Q1147.9854,740.2786 1149.9385,740.2786 Q1151.6416,740.2786 1152.7197,741.2942 Q1153.3447,741.8879 1153.6729,743.0129 L1151.8135,743.4504 Q1151.6416,742.7317 1151.1104,742.3098 Q1150.5947,741.8879 1149.8447,741.8879 Q1148.8135,741.8879 1148.1572,742.6379 Q1147.5166,743.3723 1147.5166,745.0442 Q1147.5166,746.7942 1148.1572,747.5442 Q1148.7979,748.2942 1149.8135,748.2942 Q1150.5635,748.2942 1151.0947,747.8254 Q1151.6416,747.3411 1151.876,746.3254 Z " fill="#000000"/><text fill="#000000" font-family="Verdana" font-size="13" font-style="italic" lengthAdjust="spacing" textLength="70.6304" x="1165.9697" y="741.7417">&#171;index.ttl&#187;</text><text fill="#111111" font-family="sans-serif" font-size="13" lengthAdjust="spacing" textLength="54.9136" x="1173.8281" y="757.9663">IndexTTL</text><line style="stroke:#555555;stroke-width:1;" x1="1111" x2="1264.0698" y1="765.8228" y2="765.8228"/><text fill="#000000" font-family="sans-serif" font-size="13" lengthAdjust="spacing" textLength="43.3545" x="1116" y="783.3179">rdf:type</text><text fill="#000000" font-family="sans-serif" font-size="13" lengthAdjust="spacing" textLength="81.6499" x="1116" y="799.6694">schema:name</text><text fill="#000000" font-family="sans-serif" font-size="13" lengthAdjust="spacing" textLength="143.0698" x="1116" y="816.021">schema:encodingFormat</text><text fill="#000000" font-family="sans-serif" font-size="13" lengthAdjust="spacing" textLength="117.0635" x="1116" y="832.3726">schema:contentSize</text><text fill="#000000" font-family="sans-serif" font-size="13" lengthAdjust="spacing" textLength="115.6289" x="1116" y="848.7241">schema:uploadDate</text><text fill="#000000" font-family="sans-serif" font-size="13" lengthAdjust="spacing" textLength="101.8862" x="1116" y="865.0757">schema:publisher</text><line style="stroke:#555555;stroke-width:1;" x1="1111" x2="1264.0698" y1="871.9321" y2="871.9321"/></g><!--class BinaryFile--><g class="entity" data-qualified-name="Solid Pod .user-owned..BinaryFile" data-source-line="95" id="ent0026"><rect fill="#FFFFFF" height="58.1509" rx="2.5" ry="2.5" style="stroke:#555555;stroke-width:1;" width="85.7954" x="1144.5" y="630.6719"/><rect fill="#EEEEEE" height="42.1509" rx="2.5" ry="2.5" style="stroke:#EEEEEE;stroke-width:1;" width="85.7954" x="1144.5" y="630.6719"/><rect fill="#EEEEEE" height="2.5" style="stroke:#EEEEEE;stroke-width:1;" width="85.7954" x="1144.5" y="670.3228"/><rect fill="none" height="58.1509" rx="2.5" ry="2.5" style="stroke:#555555;stroke-width:1;" width="85.7954" x="1144.5" y="630.6719"/><ellipse cx="1157.5" cy="651.7473" fill="#FFFFFF" rx="9" ry="9" style="stroke:#000000;stroke-width:1;"/><path d="M1158.9063,653.3254 L1160.7188,653.9036 Q1160.2969,655.4192 1159.3281,656.1692 Q1158.3594,656.9036 1156.8594,656.9036 Q1155,656.9036 1153.7969,655.6379 Q1152.6094,654.3723 1152.6094,652.1692 Q1152.6094,649.8567 1153.8125,648.5754 Q1155.0156,647.2786 1156.9688,647.2786 Q1158.6719,647.2786 1159.75,648.2942 Q1160.375,648.8879 1160.7031,650.0129 L1158.8438,650.4504 Q1158.6719,649.7317 1158.1406,649.3098 Q1157.625,648.8879 1156.875,648.8879 Q1155.8438,648.8879 1155.1875,649.6379 Q1154.5469,650.3723 1154.5469,652.0442 Q1154.5469,653.7942 1155.1875,654.5442 Q1155.8281,655.2942 1156.8438,655.2942 Q1157.5938,655.2942 1158.125,654.8254 Q1158.6719,654.3411 1158.9063,653.3254 Z " fill="#000000"/><text fill="#000000" font-family="Verdana" font-size="13" font-style="italic" lengthAdjust="spacing" textLength="61.4961" x="1167.6497" y="648.7417">&#171;file.ext&#187;</text><text fill="#111111" font-family="sans-serif" font-size="13" lengthAdjust="spacing" textLength="57.7954" x="1169.5" y="664.9663">BinaryFile</text><line style="stroke:#555555;stroke-width:1;" x1="1145.5" x2="1229.2954" y1="672.8228" y2="672.8228"/><line style="stroke:#555555;stroke-width:1;" x1="1145.5" x2="1229.2954" y1="680.8228" y2="680.8228"/></g><!--link App to Header--><g class="link" data-entity-1="ent0003" data-entity-2="ent0004" data-link-type="association" data-source-line="57" id="lnk12"><path codeLine="57" d="M140.09,413.9219 C159.39,413.9219 181.12,413.9219 201,413.9219" fill="none" id="App-Header" style="stroke:#000000;stroke-width:1;"/></g><!--link App to FileExplorer--><g class="link" data-entity-1="ent0003" data-entity-2="ent0005" data-link-type="association" data-source-line="58" id="lnk13"><path codeLine="58" d="M140.09,367.4219 C158.98,367.4219 180.18,367.4219 199.71,367.4219" fill="none" id="App-FileExplorer" style="stroke:#000000;stroke-width:1;"/></g><!--link FileExplorer to FileUpload--><g class="link" data-entity-1="ent0005" data-entity-2="ent0006" data-link-type="association" data-source-line="59" id="lnk14"><path codeLine="59" d="M331.19,328.9219 C349.93,328.9219 370.69,328.9219 390.65,328.9219" fill="none" id="FileExplorer-FileUpload" style="stroke:#000000;stroke-width:1;"/></g><!--link FileExplorer to FileCard--><g class="link" data-entity-1="ent0005" data-entity-2="ent0007" data-link-type="association" data-source-line="60" id="lnk15"><path codeLine="60" d="M331.04,298.1719 C394.77,298.1719 482,298.1719 482,298.1719 C482,298.1719 482,290.0219 482,279.5119" fill="none" id="FileExplorer-FileCard" style="stroke:#000000;stroke-width:1;"/></g><!--link FileExplorer to FolderEntry--><g class="link" data-entity-1="ent0005" data-entity-2="ent0008" data-link-type="association" data-source-line="61" id="lnk16"><path codeLine="61" d="M331.11,343.6719 C352.57,343.6719 371,343.6719 371,343.6719 C371,343.6719 371,461.6719 371,461.6719 C371,461.6719 392.15,461.6719 415.94,461.6719" fill="none" id="FileExplorer-FolderEntry" style="stroke:#000000;stroke-width:1;"/></g><!--link FileExplorer to DataCatalog--><g class="link" data-entity-1="ent0005" data-entity-2="ent0009" data-link-type="association" data-source-line="62" id="lnk17"><path codeLine="62" d="M266,282.1419 C266,222.0219 266,123.6719 266,123.6719 C266,123.6719 361.03,123.6719 424.88,123.6719" fill="none" id="FileExplorer-DataCatalog" style="stroke:#000000;stroke-width:1;"/></g><!--link DataCatalog to TBoxView--><g class="link" data-entity-1="ent0009" data-entity-2="ent0010" data-link-type="association" data-source-line="63" id="lnk18"><path codeLine="63" d="M538.32,138.1719 C548,138.1719 555,138.1719 555,138.1719 C555,138.1719 555,216.9219 555,216.9219 C555,216.9219 641.6,216.9219 701.81,216.9219" fill="none" id="DataCatalog-TBoxView" style="stroke:#000000;stroke-width:1;"/></g><!--link DataCatalog to ABoxView--><g class="link" data-entity-1="ent0009" data-entity-2="ent0011" data-link-type="association" data-source-line="64" id="lnk19"><path codeLine="64" d="M538.22,109.1719 C586.02,109.1719 654.07,109.1719 701.85,109.1719" fill="none" id="DataCatalog-ABoxView" style="stroke:#000000;stroke-width:1;"/></g><!--link AppContainer to FileContainer--><g class="link" data-entity-1="ent0023" data-entity-2="ent0024" data-link-type="association" data-source-line="97" id="lnk27"><path codeLine="97" d="M825.21,907.1719 C896.08,907.1719 998,907.1719 998,907.1719 C998,907.1719 998,809.9519 998,759.8219" fill="none" id="AppContainer-FileContainer" style="stroke:#000000;stroke-width:1;"/><text fill="#000000" font-family="sans-serif" font-size="13" lengthAdjust="spacing" textLength="19.5127" x="977.0529" y="781.4655">1..*</text></g><!--link FileContainer to IndexTTL--><g class="link" data-entity-1="ent0024" data-entity-2="ent0025" data-link-type="association" data-source-line="98" id="lnk28"><path codeLine="98" d="M1050.17,741.6719 C1068.62,741.6719 1089.75,741.6719 1109.81,741.6719" fill="none" id="FileContainer-IndexTTL" style="stroke:#000000;stroke-width:1;"/></g><!--link FileContainer to BinaryFile--><g class="link" data-entity-1="ent0024" data-entity-2="ent0026" data-link-type="association" data-source-line="99" id="lnk29"><path codeLine="99" d="M1050.06,712.6719 C1106.45,712.6719 1188,712.6719 1188,712.6719 C1188,712.6719 1188,701.2219 1188,688.9619" fill="none" id="FileContainer-BinaryFile" style="stroke:#000000;stroke-width:1;"/></g><!--link FileUpload to TBoxTTL--><g class="link" data-entity-1="ent0006" data-entity-2="ent0021" data-link-type="association" data-source-line="102" id="lnk30"><path codeLine="102" d="M572.2,364.1719 C612.5,364.1719 651,364.1719 651,364.1719 C651,364.1719 651,585.1119 651,701.6219" fill="none" id="FileUpload-TBoxTTL" style="stroke:#000000;stroke-width:1;stroke-dasharray:7,7;"/><text fill="#000000" font-family="sans-serif" font-size="13" lengthAdjust="spacing" textLength="46.249" x="604" y="507.997">ensures</text></g><!--link FileUpload to CatalogTTL--><g class="link" data-entity-1="ent0006" data-entity-2="ent0022" data-link-type="association" data-source-line="103" id="lnk31"><path codeLine="103" d="M572.1,339.1719 C623.24,339.1719 677,339.1719 677,339.1719 C677,339.1719 677,495.4619 677,575.1319" fill="none" id="FileUpload-CatalogTTL" style="stroke:#000000;stroke-width:1;stroke-dasharray:7,7;"/><text fill="#000000" font-family="sans-serif" font-size="13" lengthAdjust="spacing" textLength="49.8799" x="627" y="419.197">appends</text></g><!--link FileUpload to AppContainer--><g class="link" data-entity-1="ent0006" data-entity-2="ent0023" data-link-type="association" data-source-line="104" id="lnk32"><path codeLine="104" d="M560,389.5119 C560,512.9619 560,896.0019 560,896.0019 C560,896.0019 634.18,896.0019 691.85,896.0019" fill="none" id="FileUpload-AppContainer" style="stroke:#000000;stroke-width:1;stroke-dasharray:7,7;"/><text fill="#000000" font-family="sans-serif" font-size="13" lengthAdjust="spacing" textLength="59.9917" x="500" y="723.177">uploads to</text></g><!--link FileCard to FileContainer--><g class="link" data-entity-1="ent0007" data-entity-2="ent0024" data-link-type="association" data-source-line="105" id="lnk33"><path codeLine="105" d="M538.25,256.8419 C672.42,256.8419 998,256.8419 998,256.8419 C998,256.8419 998,598.0819 998,701.3919" fill="none" id="FileCard-FileContainer" style="stroke:#000000;stroke-width:1;stroke-dasharray:7,7;"/><text fill="#000000" font-family="sans-serif" font-size="13" lengthAdjust="spacing" textLength="32.519" x="957.4" y="271.337">reads</text></g><!--link FileCard to CatalogTTL--><g class="link" data-entity-1="ent0007" data-entity-2="ent0022" data-link-type="association" data-source-line="106" id="lnk34"><path codeLine="106" d="M538.19,268.0019 C598.71,268.0019 686,268.0019 686,268.0019 C686,268.0019 686,479.5019 686,574.9319" fill="none" id="FileCard-CatalogTTL" style="stroke:#000000;stroke-width:1;stroke-dasharray:7,7;"/><text fill="#000000" font-family="sans-serif" font-size="13" lengthAdjust="spacing" textLength="106.9517" x="579" y="362.057">removes on delete</text></g><!--link DataCatalog to CatalogTTL--><g class="link" data-entity-1="ent0009" data-entity-2="ent0022" data-link-type="association" data-source-line="107" id="lnk35"><path codeLine="107" d="M538.17,123.6719 C601.12,123.6719 694,123.6719 694,123.6719 C694,123.6719 694,451.7719 694,574.8019" fill="none" id="DataCatalog-CatalogTTL" style="stroke:#000000;stroke-width:1;stroke-dasharray:7,7;"/><text fill="#000000" font-family="sans-serif" font-size="13" lengthAdjust="spacing" textLength="32.519" x="661" y="285.817">reads</text></g><!--link FileExplorer to AppContainer--><g class="link" data-entity-1="ent0005" data-entity-2="ent0023" data-link-type="association" data-source-line="108" id="lnk36"><path codeLine="108" d="M331.17,358.4219 C342.65,358.4219 351,358.4219 351,358.4219 C351,358.4219 351,915.3419 351,915.3419 C351,915.3419 576.06,915.3419 691.67,915.3419" fill="none" id="FileExplorer-AppContainer" style="stroke:#000000;stroke-width:1;stroke-dasharray:7,7;"/><text fill="#000000" font-family="sans-serif" font-size="13" lengthAdjust="spacing" textLength="48.4072" x="302" y="811.797">browses</text></g><?plantuml-src bLLHQzim47xthz3IbsnhifKo6AOKahHXXR4DcdRFYdLnH6N9IESssUX_tybs7Cbr7gPIYExxkBllxdH6YGgOCqgAgR3o6TZCPbk9a65b8KdUuHOAOANYKYVkIUgIMrum0HjUALmQZJyuuOvhDt5WvMQOT2__0Bku3C1CSUTcY5QkAuIxpEYQypcWh7dsb5jJQR4mobZss-SLu4fgm7q9p5ZScgJldFrD69iF-Y2xiG9iOplxKX-o-bHRsqLzoFODE37xVivkwvEyXc5B8l4S1WEVBR_wltxeMNtYq9VrQMttkAS6pOqIFfQ23J8qpCfyYqn8ItsIHYV98VHeRiqBDM94IP27fX2picHNLvafIgD1u_Nr4MhKnMYTFsCVbScb7aldAh0fSzGgdR_l85FXsDzUZywMKi7jhYGHfrng_YnpZZ2khEovjA0C5qCk7qgF33jqrRgGEDuGxPoX7-PpcZkNMLdwmWnuMt1xmfSmBxhBmTz10QNQzq6j07khqUx_JsFWuuOZNz0_bR7Nc0DZDJUxHmal9-3PC4oux_LaqlRrU0zRuoShx5GBDsK-0Vgg3K77OWoWWKn2Gz447XI-HGxY_C1tSttlLnJxPGGRLpJV4-eLYFVHc7kFgzLtgWckpMwAgBgcyB9Cxmfov5FiB8zIW8aiiqh8sBA27TwOh2gemhNHYerBQUmMFkRF3NCPRKYUtiXSaeA06lIx5TSabpMNA3-f7NATmOELZ3D1bDGNnK4JKsG8jd0fRScDeHyhqpWcUXo8khsWfK7Bkdw1nNvIh_O9AVaKFlkwfG7Hlv-9KrKUiUwqWBQYql-CKgOwf7xxrfUs29g-1U4TT6O4ZV-IakOO8gG4eVakXEQgda6I7bdBQgsaszQJ6uYTIytjtajf5KofLzqhECgZaHfTJASVHh7iTc0Zta7n47OCvmSpM4pJQJTwT586sj6tq_KemGoaVh90YpuboZfbJJ4SxVkaMrp4YXCZdgMtxY9A48irZC8yWsD6isQf9U6JwoTtzDSzvhV9hUllZ4l-0G00?></g></svg>