<?plantuml 1.2026.2?><svg xmlns="http://www.w3.org/2000/svg" xmlns:xlink="http://www.w3.org/1999/xlink" contentStyleType="text/css" data-diagram-type="CLASS" height="510px" preserveAspectRatio="none" style="width:1401px;height:510px;background:#FFFFFF;" version="1.1" viewBox="0 0 1401 510" width="1401px" zoomAndPan="magnify"><title>solid.drive Architecture</title><defs/><g><g class="title" data-source-line="1"><text fill="#000000" font-family="sans-serif" font-size="22" font-weight="bold" lengthAdjust="spacing" textLength="245.7383" x="573.1309" y="37.8379">solid.drive Architecture</text></g><!--cluster Browser--><g class="cluster" data-qualified-name="Browser" data-source-line="26" id="ent0002"><path d="M13.5,116.6719 L66.519,116.6719 A3.75,3.75 0 0 1 69.019,119.1719 L76.019,139.0234 L585.5,139.0234 A2.5,2.5 0 0 1 588,141.5234 L588,477.1719 A2.5,2.5 0 0 1 585.5,479.6719 L13.5,479.6719 A2.5,2.5 0 0 1 11,477.1719 L11,119.1719 A2.5,2.5 0 0 1 13.5,116.6719" fill="#F8F8F8" style="stroke:#AAAAAA;stroke-width:1;"/><line style="stroke:#AAAAAA;stroke-width:1;" x1="11" x2="76.019" y1="139.0234" y2="139.0234"/><text fill="#333333" font-family="sans-serif" font-size="13" font-weight="bold" lengthAdjust="spacing" textLength="52.019" x="15" y="132.167">Browser</text></g><!--cluster Solid Pod (user-owned)--><g class="cluster" data-qualified-name="Solid Pod .user-owned." data-source-line="60" id="ent0014"><path d="M618.5,59.6719 L764.6646,59.6719 A3.75,3.75 0 0 1 767.1646,62.1719 L774.1646,82.0234 L1391.5,82.0234 A2.5,2.5 0 0 1 1394,84.5234 L1394,501.1719 A2.5,2.5 0 0 1 1391.5,503.6719 L618.5,503.6719 A2.5,2.5 0 0 1 616,501.1719 L616,62.1719 A2.5,2.5 0 0 1 618.5,59.6719" fill="#F8F8F8" style="stroke:#AAAAAA;stroke-width:1;"/><line style="stroke:#AAAAAA;stroke-width:1;" x1="616" x2="774.1646" y1="82.0234" y2="82.0234"/><text fill="#333333" font-family="sans-serif" font-size="13" font-weight="bold" lengthAdjust="spacing" textLength="145.1646" x="620" y="75.167">Solid Pod (user-owned)</text></g><!--class App--><g class="entity" data-qualified-name="Browser.App" data-source-line="28" id="ent0003"><rect fill="#FFFFFF" height="58.1509" rx="2.5" ry="2.5" style="stroke:#555555;stroke-width:1;" width="113.3813" x="27" y="278.6719"/><rect fill="#EEEEEE" height="42.1509" rx="2.5" ry="2.5" style="stroke:#EEEEEE;stroke-width:1;" width="113.3813" x="27" y="278.6719"/><rect fill="#EEEEEE" height="2.5" style="stroke:#EEEEEE;stroke-width:1;" width="113.3813" x="27" y="318.3228"/><rect fill="none" height="58.1509" rx="2.5" ry="2.5" style="stroke:#555555;stroke-width:1;" width="113.3813" x="27" y="278.6719"/><ellipse cx="40" cy="299.7473" fill="#FFFFFF" rx="9" ry="9" style="stroke:#000000;stroke-width:1;"/><path d="M41.4063,301.3254 L43.2188,301.9036 Q42.7969,303.4192 41.8281,304.1692 Q40.8594,304.9036 39.3594,304.9036 Q37.5,304.9036 36.2969,303.6379 Q35.1094,302.3723 35.1094,300.1692 Q35.1094,297.8567 36.3125,296.5754 Q37.5156,295.2786 39.4688,295.2786 Q41.1719,295.2786 42.25,296.2942 Q42.875,296.8879 43.2031,298.0129 L41.3438,298.4504 Q41.1719,297.7317 40.6406,297.3098 Q40.125,296.8879 39.375,296.8879 Q38.3438,296.8879 37.6875,297.6379 Q37.0469,298.3723 37.0469,300.0442 Q37.0469,301.7942 37.6875,302.5442 Q38.3281,303.2942 39.3438,303.2942 Q40.0938,303.2942 40.625,302.8254 Q41.1719,302.3411 41.4063,301.3254 Z " fill="#000000"/><text fill="#000000" font-family="Verdana" font-size="13" font-style="italic" lengthAdjust="spacing" textLength="89.3813" x="50" y="296.7417">&#171;component&#187;</text><text fill="#111111" font-family="sans-serif" font-size="13" lengthAdjust="spacing" textLength="23.1309" x="83.1252" y="312.9663">App</text><line style="stroke:#555555;stroke-width:1;" x1="28" x2="139.3813" y1="320.8228" y2="320.8228"/><line style="stroke:#555555;stroke-width:1;" x1="28" x2="139.3813" y1="328.8228" y2="328.8228"/></g><!--class Header--><g class="entity" data-qualified-name="Browser.Header" data-source-line="30" id="ent0004"><rect fill="#FFFFFF" height="90.854" rx="2.5" ry="2.5" style="stroke:#555555;stroke-width:1;" width="129.4063" x="201" y="325.1719"/><rect fill="#EEEEEE" height="42.1509" rx="2.5" ry="2.5" style="stroke:#EEEEEE;stroke-width:1;" width="129.4063" x="201" y="325.1719"/><rect fill="#EEEEEE" height="2.5" style="stroke:#EEEEEE;stroke-width:1;" width="129.4063" x="201" y="364.8228"/><rect fill="none" height="90.854" rx="2.5" ry="2.5" style="stroke:#555555;stroke-width:1;" width="129.4063" x="201" y="325.1719"/><ellipse cx="221.2112" cy="346.2473" fill="#FFFFFF" rx="9" ry="9" style="stroke:#000000;stroke-width:1;"/><path d="M222.6175,347.8254 L224.43,348.4036 Q224.0081,349.9192 223.0393,350.6692 Q222.0706,351.4036 220.5706,351.4036 Q218.7112,351.4036 217.5081,350.1379 Q216.3206,348.8723 216.3206,346.6692 Q216.3206,344.3567 217.5237,343.0754 Q218.7268,341.7786 220.68,341.7786 Q222.3831,341.7786 223.4612,342.7942 Q224.0862,343.3879 224.4143,344.5129 L222.555,344.9504 Q222.3831,344.2317 221.8518,343.8098 Q221.3362,343.3879 220.5862,343.3879 Q219.555,343.3879 218.8987,344.1379 Q218.2581,344.8723 218.2581,346.5442 Q218.2581,348.2942 218.8987,349.0442 Q219.5393,349.7942 220.555,349.7942 Q221.305,349.7942 221.8362,349.3254 Q222.3831,348.8411 222.6175,347.8254 Z " fill="#000000"/><text fill="#000000" font-family="Verdana" font-size="13" font-style="italic" lengthAdjust="spacing" textLength="89.3813" x="232.8137" y="343.2417">&#171;component&#187;</text><text fill="#111111" font-family="sans-serif" font-size="13" lengthAdjust="spacing" textLength="42.6372" x="256.1858" y="359.4663">Header</text><line style="stroke:#555555;stroke-width:1;" x1="202" x2="329.4063" y1="367.3228" y2="367.3228"/><line style="stroke:#555555;stroke-width:1;" x1="202" x2="329.4063" y1="375.3228" y2="375.3228"/><text fill="#000000" font-family="sans-serif" font-size="13" lengthAdjust="spacing" textLength="117.4063" x="207" y="392.8179">+login(issuer: string)</text><text fill="#000000" font-family="sans-serif" font-size="13" lengthAdjust="spacing" textLength="51.6699" x="207" y="409.1694">+logout()</text></g><!--class FileExplorer--><g class="entity" data-qualified-name="Browser.FileExplorer" data-source-line="35" id="ent0005"><rect fill="#FFFFFF" height="90.854" rx="2.5" ry="2.5" style="stroke:#555555;stroke-width:1;" width="130.8599" x="200" y="199.1719"/><rect fill="#EEEEEE" height="42.1509" rx="2.5" ry="2.5" style="stroke:#EEEEEE;stroke-width:1;" width="130.8599" x="200" y="199.1719"/><rect fill="#EEEEEE" height="2.5" style="stroke:#EEEEEE;stroke-width:1;" width="130.8599" x="200" y="238.8228"/><rect fill="none" height="90.854" rx="2.5" ry="2.5" style="stroke:#555555;stroke-width:1;" width="130.8599" x="200" y="199.1719"/><ellipse cx="220.8653" cy="220.2473" fill="#FFFFFF" rx="9" ry="9" style="stroke:#000000;stroke-width:1;"/><path d="M222.2716,221.8254 L224.0841,222.4036 Q223.6622,223.9192 222.6935,224.6692 Q221.7247,225.4036 220.2247,225.4036 Q218.3653,225.4036 217.1622,224.1379 Q215.9747,222.8723 215.9747,220.6692 Q215.9747,218.3567 217.1778,217.0754 Q218.381,215.7786 220.3341,215.7786 Q222.0372,215.7786 223.1153,216.7942 Q223.7403,217.3879 224.0685,218.5129 L222.2091,218.9504 Q222.0372,218.2317 221.506,217.8098 Q220.9903,217.3879 220.2403,217.3879 Q219.2091,217.3879 218.5528,218.1379 Q217.9122,218.8723 217.9122,220.5442 Q217.9122,222.2942 218.5528,223.0442 Q219.1935,223.7942 220.2091,223.7942 Q220.9591,223.7942 221.4903,223.3254 Q222.0372,222.8411 222.2716,221.8254 Z " fill="#000000"/><text fill="#000000" font-family="Verdana" font-size="13" font-style="italic" lengthAdjust="spacing" textLength="89.3813" x="232.6132" y="217.2417">&#171;component&#187;</text><text fill="#111111" font-family="sans-serif" font-size="13" lengthAdjust="spacing" textLength="69.3545" x="242.6266" y="233.4663">FileExplorer</text><line style="stroke:#555555;stroke-width:1;" x1="201" x2="329.8599" y1="241.3228" y2="241.3228"/><line style="stroke:#555555;stroke-width:1;" x1="201" x2="329.8599" y1="249.3228" y2="249.3228"/><text fill="#000000" font-family="sans-serif" font-size="13" lengthAdjust="spacing" textLength="118.8599" x="206" y="266.8179">+navigate(uri: string)</text><text fill="#000000" font-family="sans-serif" font-size="13" lengthAdjust="spacing" textLength="52.3872" x="206" y="283.1694">+reload()</text></g><!--class FileUpload--><g class="entity" data-qualified-name="Browser.FileUpload" data-source-line="40" id="ent0006"><rect fill="#FFFFFF" height="74.5024" rx="2.5" ry="2.5" style="stroke:#555555;stroke-width:1;" width="180.7017" x="391" y="262.1719"/><rect fill="#EEEEEE" height="42.1509" rx="2.5" ry="2.5" style="stroke:#EEEEEE;stroke-width:1;" width="180.7017" x="391" y="262.1719"/><rect fill="#EEEEEE" height="2.5" style="stroke:#EEEEEE;stroke-width:1;" width="180.7017" x="391" y="301.8228"/><rect fill="none" height="74.5024" rx="2.5" ry="2.5" style="stroke:#555555;stroke-width:1;" width="180.7017" x="391" y="262.1719"/><ellipse cx="434.9102" cy="283.2473" fill="#FFFFFF" rx="9" ry="9" style="stroke:#000000;stroke-width:1;"/><path d="M436.3164,284.8254 L438.1289,285.4036 Q437.707,286.9192 436.7383,287.6692 Q435.7695,288.4036 434.2695,288.4036 Q432.4102,288.4036 431.207,287.1379 Q430.0195,285.8723 430.0195,283.6692 Q430.0195,281.3567 431.2227,280.0754 Q432.4258,278.7786 434.3789,278.7786 Q436.082,278.7786 437.1602,279.7942 Q437.7852,280.3879 438.1133,281.5129 L436.2539,281.9504 Q436.082,281.2317 435.5508,280.8098 Q435.0352,280.3879 434.2852,280.3879 Q433.2539,280.3879 432.5977,281.1379 Q431.957,281.8723 431.957,283.5442 Q431.957,285.2942 432.5977,286.0442 Q433.2383,286.7942 434.2539,286.7942 Q435.0039,286.7942 435.5352,286.3254 Q436.082,285.8411 436.3164,284.8254 Z " fill="#000000"/><text fill="#000000" font-family="Verdana" font-size="13" font-style="italic" lengthAdjust="spacing" textLength="89.3813" x="450.4102" y="280.2417">&#171;component&#187;</text><text fill="#111111" font-family="sans-serif" font-size="13" lengthAdjust="spacing" textLength="62.1436" x="464.0291" y="296.4663">FileUpload</text><line style="stroke:#555555;stroke-width:1;" x1="392" x2="570.7017" y1="304.3228" y2="304.3228"/><line style="stroke:#555555;stroke-width:1;" x1="392" x2="570.7017" y1="312.3228" y2="312.3228"/><text fill="#000000" font-family="sans-serif" font-size="13" lengthAdjust="spacing" textLength="168.7017" x="397" y="329.8179">+submit(file, title, description)</text></g><!--class FileCard--><g class="entity" data-qualified-name="Browser.FileCard" data-source-line="44" id="ent0007"><rect fill="#FFFFFF" height="90.854" rx="2.5" ry="2.5" style="stroke:#555555;stroke-width:1;" width="113.3813" x="425" y="372.1719"/><rect fill="#EEEEEE" height="42.1509" rx="2.5" ry="2.5" style="stroke:#EEEEEE;stroke-width:1;" width="113.3813" x="425" y="372.1719"/><rect fill="#EEEEEE" height="2.5" style="stroke:#EEEEEE;stroke-width:1;" width="113.3813" x="425" y="411.8228"/><rect fill="none" height="90.854" rx="2.5" ry="2.5" style="stroke:#555555;stroke-width:1;" width="113.3813" x="425" y="372.1719"/><ellipse cx="438" cy="393.2473" fill="#FFFFFF" rx="9" ry="9" style="stroke:#000000;stroke-width:1;"/><path d="M439.4063,394.8254 L441.2188,395.4036 Q440.7969,396.9192 439.8281,397.6692 Q438.8594,398.4036 437.3594,398.4036 Q435.5,398.4036 434.2969,397.1379 Q433.1094,395.8723 433.1094,393.6692 Q433.1094,391.3567 434.3125,390.0754 Q435.5156,388.7786 437.4688,388.7786 Q439.1719,388.7786 440.25,389.7942 Q440.875,390.3879 441.2031,391.5129 L439.3438,391.9504 Q439.1719,391.2317 438.6406,390.8098 Q438.125,390.3879 437.375,390.3879 Q436.3438,390.3879 435.6875,391.1379 Q435.0469,391.8723 435.0469,393.5442 Q435.0469,395.2942 435.6875,396.0442 Q436.3281,396.7942 437.3438,396.7942 Q438.0938,396.7942 438.625,396.3254 Q439.1719,395.8411 439.4063,394.8254 Z " fill="#000000"/><text fill="#000000" font-family="Verdana" font-size="13" font-style="italic" lengthAdjust="spacing" textLength="89.3813" x="448" y="390.2417">&#171;component&#187;</text><text fill="#111111" font-family="sans-serif" font-size="13" lengthAdjust="spacing" textLength="49.1245" x="468.1284" y="406.4663">FileCard</text><line style="stroke:#555555;stroke-width:1;" x1="426" x2="537.3813" y1="414.3228" y2="414.3228"/><line style="stroke:#555555;stroke-width:1;" x1="426" x2="537.3813" y1="422.3228" y2="422.3228"/><text fill="#000000" font-family="sans-serif" font-size="13" lengthAdjust="spacing" textLength="71.9063" x="431" y="439.8179">+download()</text><text fill="#000000" font-family="sans-serif" font-size="13" lengthAdjust="spacing" textLength="51.6699" x="431" y="456.1694">+delete()</text></g><!--class FolderEntry--><g class="entity" data-qualified-name="Browser.FolderEntry" data-source-line="49" id="ent0008"><rect fill="#FFFFFF" height="74.5024" rx="2.5" ry="2.5" style="stroke:#555555;stroke-width:1;" width="130.8599" x="416" y="152.1719"/><rect fill="#EEEEEE" height="42.1509" rx="2.5" ry="2.5" style="stroke:#EEEEEE;stroke-width:1;" width="130.8599" x="416" y="152.1719"/><rect fill="#EEEEEE" height="2.5" style="stroke:#EEEEEE;stroke-width:1;" width="130.8599" x="416" y="191.8228"/><rect fill="none" height="74.5024" rx="2.5" ry="2.5" style="stroke:#555555;stroke-width:1;" width="130.8599" x="416" y="152.1719"/><ellipse cx="436.8653" cy="173.2473" fill="#FFFFFF" rx="9" ry="9" style="stroke:#000000;stroke-width:1;"/><path d="M438.2716,174.8254 L440.0841,175.4036 Q439.6622,176.9192 438.6935,177.6692 Q437.7247,178.4036 436.2247,178.4036 Q434.3653,178.4036 433.1622,177.1379 Q431.9747,175.8723 431.9747,173.6692 Q431.9747,171.3567 433.1778,170.0754 Q434.381,168.7786 436.3341,168.7786 Q438.0372,168.7786 439.1153,169.7942 Q439.7403,170.3879 440.0685,171.5129 L438.2091,171.9504 Q438.0372,171.2317 437.506,170.8098 Q436.9903,170.3879 436.2403,170.3879 Q435.2091,170.3879 434.5528,171.1379 Q433.9122,171.8723 433.9122,173.5442 Q433.9122,175.2942 434.5528,176.0442 Q435.1935,176.7942 436.2091,176.7942 Q436.9591,176.7942 437.4903,176.3254 Q438.0372,175.8411 438.2716,174.8254 Z " fill="#000000"/><text fill="#000000" font-family="Verdana" font-size="13" font-style="italic" lengthAdjust="spacing" textLength="89.3813" x="448.6132" y="170.2417">&#171;component&#187;</text><text fill="#111111" font-family="sans-serif" font-size="13" lengthAdjust="spacing" textLength="67.1899" x="459.7089" y="186.4663">FolderEntry</text><line style="stroke:#555555;stroke-width:1;" x1="417" x2="545.8599" y1="194.3228" y2="194.3228"/><line style="stroke:#555555;stroke-width:1;" x1="417" x2="545.8599" y1="202.3228" y2="202.3228"/><text fill="#000000" font-family="sans-serif" font-size="13" lengthAdjust="spacing" textLength="118.8599" x="422" y="219.8179">+navigate(uri: string)</text></g><!--class CatalogTTL--><g class="entity" data-qualified-name="Solid Pod .user-owned..CatalogTTL" data-source-line="62" id="ent0015"><rect fill="#FFFFFF" height="172.6118" rx="2.5" ry="2.5" style="stroke:#555555;stroke-width:1;" width="352.3105" x="632" y="188.1719"/><rect fill="#EEEEEE" height="42.1509" rx="2.5" ry="2.5" style="stroke:#EEEEEE;stroke-width:1;" width="352.3105" x="632" y="188.1719"/><rect fill="#EEEEEE" height="2.5" style="stroke:#EEEEEE;stroke-width:1;" width="352.3105" x="632" y="227.8228"/><rect fill="none" height="172.6118" rx="2.5" ry="2.5" style="stroke:#555555;stroke-width:1;" width="352.3105" x="632" y="188.1719"/><ellipse cx="765.2312" cy="209.2473" fill="#FFFFFF" rx="9" ry="9" style="stroke:#000000;stroke-width:1;"/><path d="M766.6375,210.8254 L768.45,211.4036 Q768.0281,212.9192 767.0593,213.6692 Q766.0906,214.4036 764.5906,214.4036 Q762.7312,214.4036 761.5281,213.1379 Q760.3406,211.8723 760.3406,209.6692 Q760.3406,207.3567 761.5437,206.0754 Q762.7468,204.7786 764.7,204.7786 Q766.4031,204.7786 767.4812,205.7942 Q768.1062,206.3879 768.4343,207.5129 L766.575,207.9504 Q766.4031,207.2317 765.8718,206.8098 Q765.3562,206.3879 764.6062,206.3879 Q763.575,206.3879 762.9187,207.1379 Q762.2781,207.8723 762.2781,209.5442 Q762.2781,211.2942 762.9187,212.0442 Q763.5593,212.7942 764.575,212.7942 Q765.325,212.7942 765.8562,212.3254 Q766.4031,211.8411 766.6375,210.8254 Z " fill="#000000"/><text fill="#000000" font-family="Verdana" font-size="13" font-style="italic" lengthAdjust="spacing" textLength="82.3481" x="780.7312" y="206.2417">&#171;catalog.ttl&#187;</text><text fill="#111111" font-family="sans-serif" font-size="13" lengthAdjust="spacing" textLength="67.9199" x="787.9453" y="222.4663">CatalogTTL</text><line style="stroke:#555555;stroke-width:1;" x1="633" x2="983.3105" y1="230.3228" y2="230.3228"/><text fill="#000000" font-family="sans-serif" font-size="13" lengthAdjust="spacing" textLength="152.4644" x="638" y="247.8179">instanceUri a dcat:Dataset</text><text fill="#000000" font-family="sans-serif" font-size="13" lengthAdjust="spacing" textLength="244.918" x="638" y="264.1694">dcterms:conformsTo schema:ImageObject</text><text fill="#000000" font-family="sans-serif" font-size="13" lengthAdjust="spacing" textLength="242.0361" x="638" y="280.521">dcterms:conformsTo schema:VideoObject</text><text fill="#000000" font-family="sans-serif" font-size="13" lengthAdjust="spacing" textLength="242.0361" x="638" y="296.8726">dcterms:conformsTo schema:AudioObject</text><text fill="#000000" font-family="sans-serif" font-size="13" lengthAdjust="spacing" textLength="291.8716" x="638" y="313.2241">dcterms:conformsTo schema:TextDigitalDocument</text><text fill="#000000" font-family="sans-serif" font-size="13" lengthAdjust="spacing" textLength="340.3105" x="638" y="329.5757">dcterms:conformsTo schema:SpreadsheetDigitalDocument</text><text fill="#000000" font-family="sans-serif" font-size="13" lengthAdjust="spacing" textLength="266.5889" x="638" y="345.9272">dcterms:conformsTo schema:DigitalDocument</text><line style="stroke:#555555;stroke-width:1;" x1="633" x2="983.3105" y1="352.7837" y2="352.7837"/></g><!--class AppContainer--><g class="entity" data-qualified-name="Solid Pod .user-owned..AppContainer" data-source-line="72" id="ent0016"><rect fill="#FFFFFF" height="58.1509" rx="2.5" ry="2.5" style="stroke:#555555;stroke-width:1;" width="132.7036" x="741.5" y="94.6719"/><rect fill="#EEEEEE" height="42.1509" rx="2.5" ry="2.5" style="stroke:#EEEEEE;stroke-width:1;" width="132.7036" x="741.5" y="94.6719"/><rect fill="#EEEEEE" height="2.5" style="stroke:#EEEEEE;stroke-width:1;" width="132.7036" x="741.5" y="134.3228"/><rect fill="none" height="58.1509" rx="2.5" ry="2.5" style="stroke:#555555;stroke-width:1;" width="132.7036" x="741.5" y="94.6719"/><ellipse cx="754.5" cy="115.7473" fill="#FFFFFF" rx="9" ry="9" style="stroke:#000000;stroke-width:1;"/><path d="M755.9063,117.3254 L757.7188,117.9036 Q757.2969,119.4192 756.3281,120.1692 Q755.3594,120.9036 753.8594,120.9036 Q752,120.9036 750.7969,119.6379 Q749.6094,118.3723 749.6094,116.1692 Q749.6094,113.8567 750.8125,112.5754 Q752.0156,111.2786 753.9688,111.2786 Q755.6719,111.2786 756.75,112.2942 Q757.375,112.8879 757.7031,114.0129 L755.8438,114.4504 Q755.6719,113.7317 755.1406,113.3098 Q754.625,112.8879 753.875,112.8879 Q752.8438,112.8879 752.1875,113.6379 Q751.5469,114.3723 751.5469,116.0442 Q751.5469,117.7942 752.1875,118.5442 Q752.8281,119.2942 753.8438,119.2942 Q754.5938,119.2942 755.125,118.8254 Q755.6719,118.3411 755.9063,117.3254 Z " fill="#000000"/><text fill="#000000" font-family="Verdana" font-size="13" font-style="italic" lengthAdjust="spacing" textLength="108.7036" x="764.5" y="112.7417">&#171;my-solid-app/&#187;</text><text fill="#111111" font-family="sans-serif" font-size="13" lengthAdjust="spacing" textLength="79.498" x="779.1028" y="128.9663">AppContainer</text><line style="stroke:#555555;stroke-width:1;" x1="742.5" x2="873.2036" y1="136.8228" y2="136.8228"/><line style="stroke:#555555;stroke-width:1;" x1="742.5" x2="873.2036" y1="144.8228" y2="144.8228"/></g><!--class FileContainer--><g class="entity" data-qualified-name="Solid Pod .user-owned..FileContainer" data-source-line="74" id="ent0017"><rect fill="#FFFFFF" height="58.1509" rx="2.5" ry="2.5" style="stroke:#555555;stroke-width:1;" width="105.3145" x="1044" y="237.6719"/><rect fill="#EEEEEE" height="42.1509" rx="2.5" ry="2.5" style="stroke:#EEEEEE;stroke-width:1;" width="105.3145" x="1044" y="237.6719"/><rect fill="#EEEEEE" height="2.5" style="stroke:#EEEEEE;stroke-width:1;" width="105.3145" x="1044" y="277.3228"/><rect fill="none" height="58.1509" rx="2.5" ry="2.5" style="stroke:#555555;stroke-width:1;" width="105.3145" x="1044" y="237.6719"/><ellipse cx="1057" cy="258.7473" fill="#FFFFFF" rx="9" ry="9" style="stroke:#000000;stroke-width:1;"/><path d="M1058.4063,260.3254 L1060.2188,260.9036 Q1059.7969,262.4192 1058.8281,263.1692 Q1057.8594,263.9036 1056.3594,263.9036 Q1054.5,263.9036 1053.2969,262.6379 Q1052.1094,261.3723 1052.1094,259.1692 Q1052.1094,256.8567 1053.3125,255.5754 Q1054.5156,254.2786 1056.4688,254.2786 Q1058.1719,254.2786 1059.25,255.2942 Q1059.875,255.8879 1060.2031,257.0129 L1058.3438,257.4504 Q1058.1719,256.7317 1057.6406,256.3098 Q1057.125,255.8879 1056.375,255.8879 Q1055.3438,255.8879 1054.6875,256.6379 Q1054.0469,257.3723 1054.0469,259.0442 Q1054.0469,260.7942 1054.6875,261.5442 Q1055.3281,262.2942 1056.3438,262.2942 Q1057.0938,262.2942 1057.625,261.8254 Q1058.1719,261.3411 1058.4063,260.3254 Z " fill="#000000"/><text fill="#000000" font-family="Verdana" font-size="13" font-style="italic" lengthAdjust="spacing" textLength="74.6611" x="1070.3267" y="255.7417">&#171;file-slug/&#187;</text><text fill="#111111" font-family="sans-serif" font-size="13" lengthAdjust="spacing" textLength="77.3145" x="1069" y="271.9663">FileContainer</text><line style="stroke:#555555;stroke-width:1;" x1="1045" x2="1148.3145" y1="279.8228" y2="279.8228"/><line style="stroke:#555555;stroke-width:1;" x1="1045" x2="1148.3145" y1="287.8228" y2="287.8228"/></g><!--class IndexTTL--><g class="entity" data-qualified-name="Solid Pod .user-owned..IndexTTL" data-source-line="76" id="ent0018"><rect fill="#FFFFFF" height="156.2603" rx="2.5" ry="2.5" style="stroke:#555555;stroke-width:1;" width="168.7744" x="1209" y="259.6719"/><rect fill="#EEEEEE" height="42.1509" rx="2.5" ry="2.5" style="stroke:#EEEEEE;stroke-width:1;" width="168.7744" x="1209" y="259.6719"/><rect fill="#EEEEEE" height="2.5" style="stroke:#EEEEEE;stroke-width:1;" width="168.7744" x="1209" y="299.3228"/><rect fill="none" height="156.2603" rx="2.5" ry="2.5" style="stroke:#555555;stroke-width:1;" width="168.7744" x="1209" y="259.6719"/><ellipse cx="1256.322" cy="280.7473" fill="#FFFFFF" rx="9" ry="9" style="stroke:#000000;stroke-width:1;"/><path d="M1257.7283,282.3254 L1259.5408,282.9036 Q1259.1189,284.4192 1258.1501,285.1692 Q1257.1814,285.9036 1255.6814,285.9036 Q1253.822,285.9036 1252.6189,284.6379 Q1251.4314,283.3723 1251.4314,281.1692 Q1251.4314,278.8567 1252.6345,277.5754 Q1253.8376,276.2786 1255.7908,276.2786 Q1257.4939,276.2786 1258.572,277.2942 Q1259.197,277.8879 1259.5251,279.0129 L1257.6658,279.4504 Q1257.4939,278.7317 1256.9626,278.3098 Q1256.447,277.8879 1255.697,277.8879 Q1254.6658,277.8879 1254.0095,278.6379 Q1253.3689,279.3723 1253.3689,281.0442 Q1253.3689,282.7942 1254.0095,283.5442 Q1254.6501,284.2942 1255.6658,284.2942 Q1256.4158,284.2942 1256.947,283.8254 Q1257.4939,283.3411 1257.7283,282.3254 Z " fill="#000000"/><text fill="#000000" font-family="Verdana" font-size="13" font-style="italic" lengthAdjust="spacing" textLength="70.6304" x="1271.822" y="277.7417">&#171;index.ttl&#187;</text><text fill="#111111" font-family="sans-serif" font-size="13" lengthAdjust="spacing" textLength="54.9136" x="1279.6804" y="293.9663">IndexTTL</text><line style="stroke:#555555;stroke-width:1;" x1="1210" x2="1376.7744" y1="301.8228" y2="301.8228"/><text fill="#000000" font-family="sans-serif" font-size="13" lengthAdjust="spacing" textLength="81.6499" x="1215" y="319.3179">schema:name</text><text fill="#000000" font-family="sans-serif" font-size="13" lengthAdjust="spacing" textLength="143.0698" x="1215" y="335.6694">schema:encodingFormat</text><text fill="#000000" font-family="sans-serif" font-size="13" lengthAdjust="spacing" textLength="117.0635" x="1215" y="352.021">schema:contentSize</text><text fill="#000000" font-family="sans-serif" font-size="13" lengthAdjust="spacing" textLength="115.6289" x="1215" y="368.3726">schema:uploadDate</text><text fill="#000000" font-family="sans-serif" font-size="13" lengthAdjust="spacing" textLength="101.8862" x="1215" y="384.7241">schema:publisher</text><line style="stroke:#555555;stroke-width:1;" x1="1210" x2="1376.7744" y1="391.5806" y2="391.5806"/><text fill="#000000" font-family="sans-serif" font-size="13" lengthAdjust="spacing" textLength="156.7744" x="1215" y="409.0757">rdf:type (schema.org class)</text></g><!--class BinaryFile--><g class="entity" data-qualified-name="Solid Pod .user-owned..BinaryFile" data-source-line="85" id="ent0019"><rect fill="#FFFFFF" height="58.1509" rx="2.5" ry="2.5" style="stroke:#555555;stroke-width:1;" width="85.7954" x="1250.5" y="166.6719"/><rect fill="#EEEEEE" height="42.1509" rx="2.5" ry="2.5" style="stroke:#EEEEEE;stroke-width:1;" width="85.7954" x="1250.5" y="166.6719"/><rect fill="#EEEEEE" height="2.5" style="stroke:#EEEEEE;stroke-width:1;" width="85.7954" x="1250.5" y="206.3228"/><rect fill="none" height="58.1509" rx="2.5" ry="2.5" style="stroke:#555555;stroke-width:1;" width="85.7954" x="1250.5" y="166.6719"/><ellipse cx="1263.5" cy="187.7473" fill="#FFFFFF" rx="9" ry="9" style="stroke:#000000;stroke-width:1;"/><path d="M1264.9063,189.3254 L1266.7188,189.9036 Q1266.2969,191.4192 1265.3281,192.1692 Q1264.3594,192.9036 1262.8594,192.9036 Q1261,192.9036 1259.7969,191.6379 Q1258.6094,190.3723 1258.6094,188.1692 Q1258.6094,185.8567 1259.8125,184.5754 Q1261.0156,183.2786 1262.9688,183.2786 Q1264.6719,183.2786 1265.75,184.2942 Q1266.375,184.8879 1266.7031,186.0129 L1264.8438,186.4504 Q1264.6719,185.7317 1264.1406,185.3098 Q1263.625,184.8879 1262.875,184.8879 Q1261.8438,184.8879 1261.1875,185.6379 Q1260.5469,186.3723 1260.5469,188.0442 Q1260.5469,189.7942 1261.1875,190.5442 Q1261.8281,191.2942 1262.8438,191.2942 Q1263.5938,191.2942 1264.125,190.8254 Q1264.6719,190.3411 1264.9063,189.3254 Z " fill="#000000"/><text fill="#000000" font-family="Verdana" font-size="13" font-style="italic" lengthAdjust="spacing" textLength="61.4961" x="1273.6497" y="184.7417">&#171;file.ext&#187;</text><text fill="#111111" font-family="sans-serif" font-size="13" lengthAdjust="spacing" textLength="57.7954" x="1275.5" y="200.9663">BinaryFile</text><line style="stroke:#555555;stroke-width:1;" x1="1251.5" x2="1335.2954" y1="208.8228" y2="208.8228"/><line style="stroke:#555555;stroke-width:1;" x1="1251.5" x2="1335.2954" y1="216.8228" y2="216.8228"/></g><!--class WebIDProfile--><g class="entity" data-qualified-name="Solid Pod .user-owned..WebIDProfile" data-source-line="87" id="ent0020"><rect fill="#FFFFFF" height="90.854" rx="2.5" ry="2.5" style="stroke:#555555;stroke-width:1;" width="115.876" x="750" y="396.1719"/><rect fill="#EEEEEE" height="42.1509" rx="2.5" ry="2.5" style="stroke:#EEEEEE;stroke-width:1;" width="115.876" x="750" y="396.1719"/><rect fill="#EEEEEE" height="2.5" style="stroke:#EEEEEE;stroke-width:1;" width="115.876" x="750" y="435.8228"/><rect fill="none" height="90.854" rx="2.5" ry="2.5" style="stroke:#555555;stroke-width:1;" width="115.876" x="750" y="396.1719"/><ellipse cx="763" cy="417.2473" fill="#FFFFFF" rx="9" ry="9" style="stroke:#000000;stroke-width:1;"/><path d="M764.4063,418.8254 L766.2188,419.4036 Q765.7969,420.9192 764.8281,421.6692 Q763.8594,422.4036 762.3594,422.4036 Q760.5,422.4036 759.2969,421.1379 Q758.1094,419.8723 758.1094,417.6692 Q758.1094,415.3567 759.3125,414.0754 Q760.5156,412.7786 762.4688,412.7786 Q764.1719,412.7786 765.25,413.7942 Q765.875,414.3879 766.2031,415.5129 L764.3438,415.9504 Q764.1719,415.2317 763.6406,414.8098 Q763.125,414.3879 762.375,414.3879 Q761.3438,414.3879 760.6875,415.1379 Q760.0469,415.8723 760.0469,417.5442 Q760.0469,419.2942 760.6875,420.0442 Q761.3281,420.7942 762.3438,420.7942 Q763.0938,420.7942 763.625,420.3254 Q764.1719,419.8411 764.4063,418.8254 Z " fill="#000000"/><text fill="#000000" font-family="Verdana" font-size="13" font-style="italic" lengthAdjust="spacing" textLength="91.876" x="773" y="414.2417">&#171;profile/card&#187;</text><text fill="#111111" font-family="sans-serif" font-size="13" lengthAdjust="spacing" textLength="76.5781" x="780.6489" y="430.4663">WebIDProfile</text><line style="stroke:#555555;stroke-width:1;" x1="751" x2="864.876" y1="438.3228" y2="438.3228"/><text fill="#000000" font-family="sans-serif" font-size="13" lengthAdjust="spacing" textLength="46.2427" x="756" y="455.8179">vcard:fn</text><text fill="#000000" font-family="sans-serif" font-size="13" lengthAdjust="spacing" textLength="57.8145" x="756" y="472.1694">foaf:name</text><line style="stroke:#555555;stroke-width:1;" x1="751" x2="864.876" y1="479.0259" y2="479.0259"/></g><!--link App to Header--><g class="link" data-entity-1="ent0003" data-entity-2="ent0004" data-link-type="association" data-source-line="53" id="lnk9"><path codeLine="53" d="M140.09,330.9219 C159.39,330.9219 181.12,330.9219 201,330.9219" fill="none" id="App-Header" style="stroke:#000000;stroke-width:1;"/></g><!--link App to FileExplorer--><g class="link" data-entity-1="ent0003" data-entity-2="ent0005" data-link-type="association" data-source-line="54" id="lnk10"><path codeLine="54" d="M140.09,284.4219 C158.98,284.4219 180.18,284.4219 199.71,284.4219" fill="none" id="App-FileExplorer" style="stroke:#000000;stroke-width:1;"/></g><!--link FileExplorer to FileUpload--><g class="link" data-entity-1="ent0005" data-entity-2="ent0006" data-link-type="association" data-source-line="55" id="lnk11"><path codeLine="55" d="M331.19,271.5019 C349.93,271.5019 370.69,271.5019 390.65,271.5019" fill="none" id="FileExplorer-FileUpload" style="stroke:#000000;stroke-width:1;"/></g><!--link FileExplorer to FileCard--><g class="link" data-entity-1="ent0005" data-entity-2="ent0007" data-link-type="association" data-source-line="56" id="lnk12"><path codeLine="56" d="M331.05,280.8419 C347.71,280.8419 361,280.8419 361,280.8419 C361,280.8419 361,394.1719 361,394.1719 C361,394.1719 393.52,394.1719 424.78,394.1719" fill="none" id="FileExplorer-FileCard" style="stroke:#000000;stroke-width:1;"/></g><!--link FileExplorer to FolderEntry--><g class="link" data-entity-1="ent0005" data-entity-2="ent0008" data-link-type="association" data-source-line="57" id="lnk13"><path codeLine="57" d="M331.19,213.1719 C358,213.1719 388.94,213.1719 415.75,213.1719" fill="none" id="FileExplorer-FolderEntry" style="stroke:#000000;stroke-width:1;"/></g><!--link AppContainer to FileContainer--><g class="link" data-entity-1="ent0016" data-entity-2="ent0017" data-link-type="association" data-source-line="92" id="lnk21"><path codeLine="92" d="M874.67,123.6719 C960.01,123.6719 1097,123.6719 1097,123.6719 C1097,123.6719 1097,195.5519 1097,237.3919" fill="none" id="AppContainer-FileContainer" style="stroke:#000000;stroke-width:1;"/><text fill="#000000" font-family="sans-serif" font-size="13" lengthAdjust="spacing" textLength="19.5127" x="1076.0529" y="226.7539">1..*</text></g><!--link FileContainer to IndexTTL--><g class="link" data-entity-1="ent0017" data-entity-2="ent0018" data-link-type="association" data-source-line="93" id="lnk22"><path codeLine="93" d="M1149.03,277.6719 C1167.38,277.6719 1188.48,277.6719 1208.78,277.6719" fill="none" id="FileContainer-IndexTTL" style="stroke:#000000;stroke-width:1;"/></g><!--link FileContainer to BinaryFile--><g class="link" data-entity-1="ent0017" data-entity-2="ent0019" data-link-type="association" data-source-line="94" id="lnk23"><path codeLine="94" d="M1149.17,248.6719 C1207.67,248.6719 1294,248.6719 1294,248.6719 C1294,248.6719 1294,237.2219 1294,224.9619" fill="none" id="FileContainer-BinaryFile" style="stroke:#000000;stroke-width:1;"/></g><!--link FileUpload to CatalogTTL--><g class="link" data-entity-1="ent0006" data-entity-2="ent0015" data-link-type="association" data-source-line="97" id="lnk24"><path codeLine="97" d="M572.01,299.6719 C590.79,299.6719 611.18,299.6719 631.85,299.6719" fill="none" id="FileUpload-CatalogTTL" style="stroke:#000000;stroke-width:1;stroke-dasharray:7,7;"/><text fill="#000000" font-family="sans-serif" font-size="13" lengthAdjust="spacing" textLength="49.8799" x="551.93" y="314.167">appends</text></g><!--link FileUpload to AppContainer--><g class="link" data-entity-1="ent0006" data-entity-2="ent0016" data-link-type="association" data-source-line="98" id="lnk25"><path codeLine="98" d="M560,261.8519 C560,212.6819 560,133.0019 560,133.0019 C560,133.0019 667.76,133.0019 741.21,133.0019" fill="none" id="FileUpload-AppContainer" style="stroke:#000000;stroke-width:1;stroke-dasharray:7,7;"/><text fill="#000000" font-family="sans-serif" font-size="13" lengthAdjust="spacing" textLength="59.9917" x="526.18" y="147.497">uploads to</text></g><!--link FileCard to FileContainer--><g class="link" data-entity-1="ent0007" data-entity-2="ent0017" data-link-type="association" data-source-line="99" id="lnk26"><path codeLine="99" d="M538.03,384.1719 C690.19,384.1719 1097,384.1719 1097,384.1719 C1097,384.1719 1097,330.5119 1097,295.7119" fill="none" id="FileCard-FileContainer" style="stroke:#000000;stroke-width:1;stroke-dasharray:7,7;"/><text fill="#000000" font-family="sans-serif" font-size="13" lengthAdjust="spacing" textLength="32.519" x="828.74" y="380.667">reads</text></g><!--link FileCard to CatalogTTL--><g class="link" data-entity-1="ent0007" data-entity-2="ent0015" data-link-type="association" data-source-line="100" id="lnk27"><path codeLine="100" d="M482,371.9819 C482,359.4119 482,349.1719 482,349.1719 C482,349.1719 554.83,349.1719 631.64,349.1719" fill="none" id="FileCard-CatalogTTL" style="stroke:#000000;stroke-width:1;stroke-dasharray:7,7;"/><text fill="#000000" font-family="sans-serif" font-size="13" lengthAdjust="spacing" textLength="106.9517" x="438.42" y="363.667">removes on delete</text></g><!--link FileCard to WebIDProfile--><g class="link" data-entity-1="ent0007" data-entity-2="ent0020" data-link-type="association" data-source-line="101" id="lnk28"><path codeLine="101" d="M538.37,429.6719 C597.66,429.6719 690.1,429.6719 749.86,429.6719" fill="none" id="FileCard-WebIDProfile" style="stroke:#000000;stroke-width:1;stroke-dasharray:7,7;"/><text fill="#000000" font-family="sans-serif" font-size="13" lengthAdjust="spacing" textLength="140.9053" x="503.11" y="444.167">resolves publisher name</text></g><!--link FileExplorer to AppContainer--><g class="link" data-entity-1="ent0005" data-entity-2="ent0016" data-link-type="association" data-source-line="102" id="lnk29"><path codeLine="102" d="M266,198.9119 C266,161.1819 266,113.8419 266,113.8419 C266,113.8419 596.4,113.8419 741.27,113.8419" fill="none" id="FileExplorer-AppContainer" style="stroke:#000000;stroke-width:1;stroke-dasharray:7,7;"/><text fill="#000000" font-family="sans-serif" font-size="13" lengthAdjust="spacing" textLength="48.4072" x="412.1" y="128.337">browses</text></g><?plantuml-src bLLjJzim4FwUN-6LBzr6mn2QD4K8gIzKgpHjI2tZinjVKW_7Zcodq4tyzvtjliGb272_n7UFx-svkrfk1H2Z16SfqtmDPAZp5RUGsqP3adomAwY0r89ocPXxBckgQKKO5BGHTgga_KbHRwWq0mEQ5zsWEVyBvFoYfSm5DMPehURBni8iLz9ZlhGWIvhVbreraesLK9hSkRXQUi4bs4qDH6cxKicnSV8l8MJKQGFbIZFGGNRorH-Kkb2tidD_KFOTA2AFxPnS-vCyjTtM2A8bT3e-cNvplsFNGtzYrnV-R6Lpkq62Haemvqj0OObLHFDoPGdZ6ddYIYR9pdLlfDK34j738D12ACImhidbPQwgMacGzkhge0hPnLeVFo6VXIgvx7DZ6j0PCKYLB3_kLQgnVNTxEXYRSW7NZpKcyP99ITUyf1RwZUP79ZK8HLcNoTlQQReDccPPSTil47PAh6lcK-mxasjUky9qM1jJ_O8jfXxaFWPt1m4Owh4Df0BqjRHwyxuSlGr7nM2mBVlXtgwS8xvToAqwLE45fKkgItM8rNNFladcRjx9ZMAats2p331nO1-ZdXbJIv7bnUA7op9SKcl5FaykZQKoXrlD2IKC8Ta4OGQiLxFSWgvCXeDTAFnOA69ot2KqcrKOmw_b7spTLv2_EGFr9kImOVnjo0KysWalEIOqKNbJ8NMll9ZN6jaoAu1tFdoEVefcSepZZMlLpqgr6VWbFA1rVTOUKCzk2-WwVM14KqQecMJm6BZYxZDYIhCYytko7m9BbIx3kz3est0bBlBs7MIk6FRk5BEYjgt1L2s4fTuMDxv3iGaYQTqi1SVgwJZ_4PTKRrnsswHI9AQTqXqiPvCRhOe0gSFNMOwTlizixMvP8VsbKBJO9R6RjKFbS1fwvsdwgHTNT3iq4MvNp2xT8MmtKAtjbARjaI4a8yWaI6QEG55G6GarCxZJa_roGbJi5t6-1ID8v2r0AhK6GvGaOND5yAYS0OuDv_1xWeWlNhH3dWUyzFyl9laF?></g></svg>