<?plantuml 1.2026.2?><svg xmlns="http://www.w3.org/2000/svg" xmlns:xlink="http://www.w3.org/1999/xlink" contentStyleType="text/css" data-diagram-type="CLASS" height="662px" preserveAspectRatio="none" style="width:1289px;height:662px;background:#FFFFFF;" version="1.1" viewBox="0 0 1289 662" width="1289px" zoomAndPan="magnify"><title>solid.drive Architecture</title><defs/><g><g class="title" data-source-line="1"><text fill="#000000" font-family="sans-serif" font-size="22" font-weight="bold" lengthAdjust="spacing" textLength="245.7383" x="517.1309" y="37.8379">solid.drive Architecture</text></g><!--cluster Browser--><g class="cluster" data-qualified-name="Browser" data-source-line="41" id="ent0002"><path d="M13.5,222.6719 L66.519,222.6719 A3.75,3.75 0 0 1 69.019,225.1719 L76.019,245.0234 L625.5,245.0234 A2.5,2.5 0 0 1 628,247.5234 L628,653.1719 A2.5,2.5 0 0 1 625.5,655.6719 L13.5,655.6719 A2.5,2.5 0 0 1 11,653.1719 L11,225.1719 A2.5,2.5 0 0 1 13.5,222.6719" fill="#F8F8F8" style="stroke:#AAAAAA;stroke-width:1;"/><line style="stroke:#AAAAAA;stroke-width:1;" x1="11" x2="76.019" y1="245.0234" y2="245.0234"/><text fill="#333333" font-family="sans-serif" font-size="13" font-weight="bold" lengthAdjust="spacing" textLength="52.019" x="15" y="238.167">Browser</text></g><!--cluster Solid Pod (user-owned)--><g class="cluster" data-qualified-name="Solid Pod .user-owned." data-source-line="75" id="ent0014"><path d="M678.5,59.6719 L824.6646,59.6719 A3.75,3.75 0 0 1 827.1646,62.1719 L834.1646,82.0234 L1279.5,82.0234 A2.5,2.5 0 0 1 1282,84.5234 L1282,506.1719 A2.5,2.5 0 0 1 1279.5,508.6719 L678.5,508.6719 A2.5,2.5 0 0 1 676,506.1719 L676,62.1719 A2.5,2.5 0 0 1 678.5,59.6719" fill="#F8F8F8" style="stroke:#AAAAAA;stroke-width:1;"/><line style="stroke:#AAAAAA;stroke-width:1;" x1="676" x2="834.1646" y1="82.0234" y2="82.0234"/><text fill="#333333" font-family="sans-serif" font-size="13" font-weight="bold" lengthAdjust="spacing" textLength="145.1646" x="680" y="75.167">Solid Pod (user-owned)</text></g><!--class App--><g class="entity" data-qualified-name="Browser.App" data-source-line="43" id="ent0003"><rect fill="#FFFFFF" height="58.1509" rx="2.5" ry="2.5" style="stroke:#555555;stroke-width:1;" width="113.3813" x="27" y="355.6719"/><rect fill="#EEEEEE" height="42.1509" rx="2.5" ry="2.5" style="stroke:#EEEEEE;stroke-width:1;" width="113.3813" x="27" y="355.6719"/><rect fill="#EEEEEE" height="2.5" style="stroke:#EEEEEE;stroke-width:1;" width="113.3813" x="27" y="395.3228"/><rect fill="none" height="58.1509" rx="2.5" ry="2.5" style="stroke:#555555;stroke-width:1;" width="113.3813" x="27" y="355.6719"/><ellipse cx="40" cy="376.7473" fill="#FFFFFF" rx="9" ry="9" style="stroke:#000000;stroke-width:1;"/><path d="M41.4063,378.3254 L43.2188,378.9036 Q42.7969,380.4192 41.8281,381.1692 Q40.8594,381.9036 39.3594,381.9036 Q37.5,381.9036 36.2969,380.6379 Q35.1094,379.3723 35.1094,377.1692 Q35.1094,374.8567 36.3125,373.5754 Q37.5156,372.2786 39.4688,372.2786 Q41.1719,372.2786 42.25,373.2942 Q42.875,373.8879 43.2031,375.0129 L41.3438,375.4504 Q41.1719,374.7317 40.6406,374.3098 Q40.125,373.8879 39.375,373.8879 Q38.3438,373.8879 37.6875,374.6379 Q37.0469,375.3723 37.0469,377.0442 Q37.0469,378.7942 37.6875,379.5442 Q38.3281,380.2942 39.3438,380.2942 Q40.0938,380.2942 40.625,379.8254 Q41.1719,379.3411 41.4063,378.3254 Z " fill="#000000"/><text fill="#000000" font-family="Verdana" font-size="13" font-style="italic" lengthAdjust="spacing" textLength="89.3813" x="50" y="373.7417">&#171;component&#187;</text><text fill="#111111" font-family="sans-serif" font-size="13" lengthAdjust="spacing" textLength="23.1309" x="83.1252" y="389.9663">App</text><line style="stroke:#555555;stroke-width:1;" x1="28" x2="139.3813" y1="397.8228" y2="397.8228"/><line style="stroke:#555555;stroke-width:1;" x1="28" x2="139.3813" y1="405.8228" y2="405.8228"/></g><!--class Header--><g class="entity" data-qualified-name="Browser.Header" data-source-line="45" id="ent0004"><rect fill="#FFFFFF" height="90.854" rx="2.5" ry="2.5" style="stroke:#555555;stroke-width:1;" width="129.4063" x="221" y="419.1719"/><rect fill="#EEEEEE" height="42.1509" rx="2.5" ry="2.5" style="stroke:#EEEEEE;stroke-width:1;" width="129.4063" x="221" y="419.1719"/><rect fill="#EEEEEE" height="2.5" style="stroke:#EEEEEE;stroke-width:1;" width="129.4063" x="221" y="458.8228"/><rect fill="none" height="90.854" rx="2.5" ry="2.5" style="stroke:#555555;stroke-width:1;" width="129.4063" x="221" y="419.1719"/><ellipse cx="241.2112" cy="440.2473" fill="#FFFFFF" rx="9" ry="9" style="stroke:#000000;stroke-width:1;"/><path d="M242.6175,441.8254 L244.43,442.4036 Q244.0081,443.9192 243.0393,444.6692 Q242.0706,445.4036 240.5706,445.4036 Q238.7112,445.4036 237.5081,444.1379 Q236.3206,442.8723 236.3206,440.6692 Q236.3206,438.3567 237.5237,437.0754 Q238.7268,435.7786 240.68,435.7786 Q242.3831,435.7786 243.4612,436.7942 Q244.0862,437.3879 244.4143,438.5129 L242.555,438.9504 Q242.3831,438.2317 241.8518,437.8098 Q241.3362,437.3879 240.5862,437.3879 Q239.555,437.3879 238.8987,438.1379 Q238.2581,438.8723 238.2581,440.5442 Q238.2581,442.2942 238.8987,443.0442 Q239.5393,443.7942 240.555,443.7942 Q241.305,443.7942 241.8362,443.3254 Q242.3831,442.8411 242.6175,441.8254 Z " fill="#000000"/><text fill="#000000" font-family="Verdana" font-size="13" font-style="italic" lengthAdjust="spacing" textLength="89.3813" x="252.8137" y="437.2417">&#171;component&#187;</text><text fill="#111111" font-family="sans-serif" font-size="13" lengthAdjust="spacing" textLength="42.6372" x="276.1858" y="453.4663">Header</text><line style="stroke:#555555;stroke-width:1;" x1="222" x2="349.4063" y1="461.3228" y2="461.3228"/><line style="stroke:#555555;stroke-width:1;" x1="222" x2="349.4063" y1="469.3228" y2="469.3228"/><text fill="#000000" font-family="sans-serif" font-size="13" lengthAdjust="spacing" textLength="117.4063" x="227" y="486.8179">+login(issuer: string)</text><text fill="#000000" font-family="sans-serif" font-size="13" lengthAdjust="spacing" textLength="51.6699" x="227" y="503.1694">+logout()</text></g><!--class FileExplorer--><g class="entity" data-qualified-name="Browser.FileExplorer" data-source-line="50" id="ent0005"><rect fill="#FFFFFF" height="90.854" rx="2.5" ry="2.5" style="stroke:#555555;stroke-width:1;" width="130.8599" x="220" y="258.1719"/><rect fill="#EEEEEE" height="42.1509" rx="2.5" ry="2.5" style="stroke:#EEEEEE;stroke-width:1;" width="130.8599" x="220" y="258.1719"/><rect fill="#EEEEEE" height="2.5" style="stroke:#EEEEEE;stroke-width:1;" width="130.8599" x="220" y="297.8228"/><rect fill="none" height="90.854" rx="2.5" ry="2.5" style="stroke:#555555;stroke-width:1;" width="130.8599" x="220" y="258.1719"/><ellipse cx="240.8653" cy="279.2473" fill="#FFFFFF" rx="9" ry="9" style="stroke:#000000;stroke-width:1;"/><path d="M242.2716,280.8254 L244.0841,281.4036 Q243.6622,282.9192 242.6935,283.6692 Q241.7247,284.4036 240.2247,284.4036 Q238.3653,284.4036 237.1622,283.1379 Q235.9747,281.8723 235.9747,279.6692 Q235.9747,277.3567 237.1778,276.0754 Q238.381,274.7786 240.3341,274.7786 Q242.0372,274.7786 243.1153,275.7942 Q243.7403,276.3879 244.0685,277.5129 L242.2091,277.9504 Q242.0372,277.2317 241.506,276.8098 Q240.9903,276.3879 240.2403,276.3879 Q239.2091,276.3879 238.5528,277.1379 Q237.9122,277.8723 237.9122,279.5442 Q237.9122,281.2942 238.5528,282.0442 Q239.1935,282.7942 240.2091,282.7942 Q240.9591,282.7942 241.4903,282.3254 Q242.0372,281.8411 242.2716,280.8254 Z " fill="#000000"/><text fill="#000000" font-family="Verdana" font-size="13" font-style="italic" lengthAdjust="spacing" textLength="89.3813" x="252.6132" y="276.2417">&#171;component&#187;</text><text fill="#111111" font-family="sans-serif" font-size="13" lengthAdjust="spacing" textLength="69.3545" x="262.6266" y="292.4663">FileExplorer</text><line style="stroke:#555555;stroke-width:1;" x1="221" x2="349.8599" y1="300.3228" y2="300.3228"/><line style="stroke:#555555;stroke-width:1;" x1="221" x2="349.8599" y1="308.3228" y2="308.3228"/><text fill="#000000" font-family="sans-serif" font-size="13" lengthAdjust="spacing" textLength="118.8599" x="226" y="325.8179">+navigate(uri: string)</text><text fill="#000000" font-family="sans-serif" font-size="13" lengthAdjust="spacing" textLength="52.3872" x="226" y="342.1694">+reload()</text></g><!--class FileUpload--><g class="entity" data-qualified-name="Browser.FileUpload" data-source-line="55" id="ent0006"><rect fill="#FFFFFF" height="74.5024" rx="2.5" ry="2.5" style="stroke:#555555;stroke-width:1;" width="180.7017" x="431" y="403.1719"/><rect fill="#EEEEEE" height="42.1509" rx="2.5" ry="2.5" style="stroke:#EEEEEE;stroke-width:1;" width="180.7017" x="431" y="403.1719"/><rect fill="#EEEEEE" height="2.5" style="stroke:#EEEEEE;stroke-width:1;" width="180.7017" x="431" y="442.8228"/><rect fill="none" height="74.5024" rx="2.5" ry="2.5" style="stroke:#555555;stroke-width:1;" width="180.7017" x="431" y="403.1719"/><ellipse cx="474.9102" cy="424.2473" fill="#FFFFFF" rx="9" ry="9" style="stroke:#000000;stroke-width:1;"/><path d="M476.3164,425.8254 L478.1289,426.4036 Q477.707,427.9192 476.7383,428.6692 Q475.7695,429.4036 474.2695,429.4036 Q472.4102,429.4036 471.207,428.1379 Q470.0195,426.8723 470.0195,424.6692 Q470.0195,422.3567 471.2227,421.0754 Q472.4258,419.7786 474.3789,419.7786 Q476.082,419.7786 477.1602,420.7942 Q477.7852,421.3879 478.1133,422.5129 L476.2539,422.9504 Q476.082,422.2317 475.5508,421.8098 Q475.0352,421.3879 474.2852,421.3879 Q473.2539,421.3879 472.5977,422.1379 Q471.957,422.8723 471.957,424.5442 Q471.957,426.2942 472.5977,427.0442 Q473.2383,427.7942 474.2539,427.7942 Q475.0039,427.7942 475.5352,427.3254 Q476.082,426.8411 476.3164,425.8254 Z " fill="#000000"/><text fill="#000000" font-family="Verdana" font-size="13" font-style="italic" lengthAdjust="spacing" textLength="89.3813" x="490.4102" y="421.2417">&#171;component&#187;</text><text fill="#111111" font-family="sans-serif" font-size="13" lengthAdjust="spacing" textLength="62.1436" x="504.0291" y="437.4663">FileUpload</text><line style="stroke:#555555;stroke-width:1;" x1="432" x2="610.7017" y1="445.3228" y2="445.3228"/><line style="stroke:#555555;stroke-width:1;" x1="432" x2="610.7017" y1="453.3228" y2="453.3228"/><text fill="#000000" font-family="sans-serif" font-size="13" lengthAdjust="spacing" textLength="168.7017" x="437" y="470.8179">+submit(file, title, description)</text></g><!--class FileCard--><g class="entity" data-qualified-name="Browser.FileCard" data-source-line="59" id="ent0007"><rect fill="#FFFFFF" height="90.854" rx="2.5" ry="2.5" style="stroke:#555555;stroke-width:1;" width="113.3813" x="465" y="548.1719"/><rect fill="#EEEEEE" height="42.1509" rx="2.5" ry="2.5" style="stroke:#EEEEEE;stroke-width:1;" width="113.3813" x="465" y="548.1719"/><rect fill="#EEEEEE" height="2.5" style="stroke:#EEEEEE;stroke-width:1;" width="113.3813" x="465" y="587.8228"/><rect fill="none" height="90.854" rx="2.5" ry="2.5" style="stroke:#555555;stroke-width:1;" width="113.3813" x="465" y="548.1719"/><ellipse cx="478" cy="569.2473" fill="#FFFFFF" rx="9" ry="9" style="stroke:#000000;stroke-width:1;"/><path d="M479.4063,570.8254 L481.2188,571.4036 Q480.7969,572.9192 479.8281,573.6692 Q478.8594,574.4036 477.3594,574.4036 Q475.5,574.4036 474.2969,573.1379 Q473.1094,571.8723 473.1094,569.6692 Q473.1094,567.3567 474.3125,566.0754 Q475.5156,564.7786 477.4688,564.7786 Q479.1719,564.7786 480.25,565.7942 Q480.875,566.3879 481.2031,567.5129 L479.3438,567.9504 Q479.1719,567.2317 478.6406,566.8098 Q478.125,566.3879 477.375,566.3879 Q476.3438,566.3879 475.6875,567.1379 Q475.0469,567.8723 475.0469,569.5442 Q475.0469,571.2942 475.6875,572.0442 Q476.3281,572.7942 477.3438,572.7942 Q478.0938,572.7942 478.625,572.3254 Q479.1719,571.8411 479.4063,570.8254 Z " fill="#000000"/><text fill="#000000" font-family="Verdana" font-size="13" font-style="italic" lengthAdjust="spacing" textLength="89.3813" x="488" y="566.2417">&#171;component&#187;</text><text fill="#111111" font-family="sans-serif" font-size="13" lengthAdjust="spacing" textLength="49.1245" x="508.1284" y="582.4663">FileCard</text><line style="stroke:#555555;stroke-width:1;" x1="466" x2="577.3813" y1="590.3228" y2="590.3228"/><line style="stroke:#555555;stroke-width:1;" x1="466" x2="577.3813" y1="598.3228" y2="598.3228"/><text fill="#000000" font-family="sans-serif" font-size="13" lengthAdjust="spacing" textLength="71.9063" x="471" y="615.8179">+download()</text><text fill="#000000" font-family="sans-serif" font-size="13" lengthAdjust="spacing" textLength="51.6699" x="471" y="632.1694">+delete()</text></g><!--class FolderEntry--><g class="entity" data-qualified-name="Browser.FolderEntry" data-source-line="64" id="ent0008"><rect fill="#FFFFFF" height="74.5024" rx="2.5" ry="2.5" style="stroke:#555555;stroke-width:1;" width="130.8599" x="456" y="258.1719"/><rect fill="#EEEEEE" height="42.1509" rx="2.5" ry="2.5" style="stroke:#EEEEEE;stroke-width:1;" width="130.8599" x="456" y="258.1719"/><rect fill="#EEEEEE" height="2.5" style="stroke:#EEEEEE;stroke-width:1;" width="130.8599" x="456" y="297.8228"/><rect fill="none" height="74.5024" rx="2.5" ry="2.5" style="stroke:#555555;stroke-width:1;" width="130.8599" x="456" y="258.1719"/><ellipse cx="476.8653" cy="279.2473" fill="#FFFFFF" rx="9" ry="9" style="stroke:#000000;stroke-width:1;"/><path d="M478.2716,280.8254 L480.0841,281.4036 Q479.6622,282.9192 478.6935,283.6692 Q477.7247,284.4036 476.2247,284.4036 Q474.3653,284.4036 473.1622,283.1379 Q471.9747,281.8723 471.9747,279.6692 Q471.9747,277.3567 473.1778,276.0754 Q474.381,274.7786 476.3341,274.7786 Q478.0372,274.7786 479.1153,275.7942 Q479.7403,276.3879 480.0685,277.5129 L478.2091,277.9504 Q478.0372,277.2317 477.506,276.8098 Q476.9903,276.3879 476.2403,276.3879 Q475.2091,276.3879 474.5528,277.1379 Q473.9122,277.8723 473.9122,279.5442 Q473.9122,281.2942 474.5528,282.0442 Q475.1935,282.7942 476.2091,282.7942 Q476.9591,282.7942 477.4903,282.3254 Q478.0372,281.8411 478.2716,280.8254 Z " fill="#000000"/><text fill="#000000" font-family="Verdana" font-size="13" font-style="italic" lengthAdjust="spacing" textLength="89.3813" x="488.6132" y="276.2417">&#171;component&#187;</text><text fill="#111111" font-family="sans-serif" font-size="13" lengthAdjust="spacing" textLength="67.1899" x="499.7089" y="292.4663">FolderEntry</text><line style="stroke:#555555;stroke-width:1;" x1="457" x2="585.8599" y1="300.3228" y2="300.3228"/><line style="stroke:#555555;stroke-width:1;" x1="457" x2="585.8599" y1="308.3228" y2="308.3228"/><text fill="#000000" font-family="sans-serif" font-size="13" lengthAdjust="spacing" textLength="118.8599" x="462" y="325.8179">+navigate(uri: string)</text></g><!--class CatalogTTL--><g class="entity" data-qualified-name="Solid Pod .user-owned..CatalogTTL" data-source-line="77" id="ent0015"><rect fill="#FFFFFF" height="74.5024" rx="2.5" ry="2.5" style="stroke:#555555;stroke-width:1;" width="127.6162" x="1117.5" y="417.1719"/><rect fill="#EEEEEE" height="42.1509" rx="2.5" ry="2.5" style="stroke:#EEEEEE;stroke-width:1;" width="127.6162" x="1117.5" y="417.1719"/><rect fill="#EEEEEE" height="2.5" style="stroke:#EEEEEE;stroke-width:1;" width="127.6162" x="1117.5" y="456.8228"/><rect fill="none" height="74.5024" rx="2.5" ry="2.5" style="stroke:#555555;stroke-width:1;" width="127.6162" x="1117.5" y="417.1719"/><ellipse cx="1140.0706" cy="438.2473" fill="#FFFFFF" rx="9" ry="9" style="stroke:#000000;stroke-width:1;"/><path d="M1141.4769,439.8254 L1143.2894,440.4036 Q1142.8675,441.9192 1141.8988,442.6692 Q1140.93,443.4036 1139.43,443.4036 Q1137.5706,443.4036 1136.3675,442.1379 Q1135.18,440.8723 1135.18,438.6692 Q1135.18,436.3567 1136.3831,435.0754 Q1137.5863,433.7786 1139.5394,433.7786 Q1141.2425,433.7786 1142.3206,434.7942 Q1142.9456,435.3879 1143.2738,436.5129 L1141.4144,436.9504 Q1141.2425,436.2317 1140.7113,435.8098 Q1140.1956,435.3879 1139.4456,435.3879 Q1138.4144,435.3879 1137.7581,436.1379 Q1137.1175,436.8723 1137.1175,438.5442 Q1137.1175,440.2942 1137.7581,441.0442 Q1138.3988,441.7942 1139.4144,441.7942 Q1140.1644,441.7942 1140.6956,441.3254 Q1141.2425,440.8411 1141.4769,439.8254 Z " fill="#000000"/><text fill="#000000" font-family="Verdana" font-size="13" font-style="italic" lengthAdjust="spacing" textLength="82.3481" x="1152.1974" y="435.2417">&#171;catalog.ttl&#187;</text><text fill="#111111" font-family="sans-serif" font-size="13" lengthAdjust="spacing" textLength="67.9199" x="1159.4115" y="451.4663">CatalogTTL</text><line style="stroke:#555555;stroke-width:1;" x1="1118.5" x2="1244.1162" y1="459.3228" y2="459.3228"/><text fill="#000000" font-family="sans-serif" font-size="13" lengthAdjust="spacing" textLength="115.6162" x="1123.5" y="476.8179">dcat:Dataset entries</text><line style="stroke:#555555;stroke-width:1;" x1="1118.5" x2="1244.1162" y1="483.6743" y2="483.6743"/></g><!--class AppContainer--><g class="entity" data-qualified-name="Solid Pod .user-owned..AppContainer" data-source-line="81" id="ent0016"><rect fill="#FFFFFF" height="58.1509" rx="2.5" ry="2.5" style="stroke:#555555;stroke-width:1;" width="132.7036" x="695.5" y="102.6719"/><rect fill="#EEEEEE" height="42.1509" rx="2.5" ry="2.5" style="stroke:#EEEEEE;stroke-width:1;" width="132.7036" x="695.5" y="102.6719"/><rect fill="#EEEEEE" height="2.5" style="stroke:#EEEEEE;stroke-width:1;" width="132.7036" x="695.5" y="142.3228"/><rect fill="none" height="58.1509" rx="2.5" ry="2.5" style="stroke:#555555;stroke-width:1;" width="132.7036" x="695.5" y="102.6719"/><ellipse cx="708.5" cy="123.7473" fill="#FFFFFF" rx="9" ry="9" style="stroke:#000000;stroke-width:1;"/><path d="M709.9063,125.3254 L711.7188,125.9036 Q711.2969,127.4192 710.3281,128.1692 Q709.3594,128.9036 707.8594,128.9036 Q706,128.9036 704.7969,127.6379 Q703.6094,126.3723 703.6094,124.1692 Q703.6094,121.8567 704.8125,120.5754 Q706.0156,119.2786 707.9688,119.2786 Q709.6719,119.2786 710.75,120.2942 Q711.375,120.8879 711.7031,122.0129 L709.8438,122.4504 Q709.6719,121.7317 709.1406,121.3098 Q708.625,120.8879 707.875,120.8879 Q706.8438,120.8879 706.1875,121.6379 Q705.5469,122.3723 705.5469,124.0442 Q705.5469,125.7942 706.1875,126.5442 Q706.8281,127.2942 707.8438,127.2942 Q708.5938,127.2942 709.125,126.8254 Q709.6719,126.3411 709.9063,125.3254 Z " fill="#000000"/><text fill="#000000" font-family="Verdana" font-size="13" font-style="italic" lengthAdjust="spacing" textLength="108.7036" x="718.5" y="120.7417">&#171;my-solid-app/&#187;</text><text fill="#111111" font-family="sans-serif" font-size="13" lengthAdjust="spacing" textLength="79.498" x="733.1028" y="136.9663">AppContainer</text><line style="stroke:#555555;stroke-width:1;" x1="696.5" x2="827.2036" y1="144.8228" y2="144.8228"/><line style="stroke:#555555;stroke-width:1;" x1="696.5" x2="827.2036" y1="152.8228" y2="152.8228"/></g><!--class FileContainer--><g class="entity" data-qualified-name="Solid Pod .user-owned..FileContainer" data-source-line="83" id="ent0017"><rect fill="#FFFFFF" height="58.1509" rx="2.5" ry="2.5" style="stroke:#555555;stroke-width:1;" width="105.3145" x="912" y="102.6719"/><rect fill="#EEEEEE" height="42.1509" rx="2.5" ry="2.5" style="stroke:#EEEEEE;stroke-width:1;" width="105.3145" x="912" y="102.6719"/><rect fill="#EEEEEE" height="2.5" style="stroke:#EEEEEE;stroke-width:1;" width="105.3145" x="912" y="142.3228"/><rect fill="none" height="58.1509" rx="2.5" ry="2.5" style="stroke:#555555;stroke-width:1;" width="105.3145" x="912" y="102.6719"/><ellipse cx="925" cy="123.7473" fill="#FFFFFF" rx="9" ry="9" style="stroke:#000000;stroke-width:1;"/><path d="M926.4063,125.3254 L928.2188,125.9036 Q927.7969,127.4192 926.8281,128.1692 Q925.8594,128.9036 924.3594,128.9036 Q922.5,128.9036 921.2969,127.6379 Q920.1094,126.3723 920.1094,124.1692 Q920.1094,121.8567 921.3125,120.5754 Q922.5156,119.2786 924.4688,119.2786 Q926.1719,119.2786 927.25,120.2942 Q927.875,120.8879 928.2031,122.0129 L926.3438,122.4504 Q926.1719,121.7317 925.6406,121.3098 Q925.125,120.8879 924.375,120.8879 Q923.3438,120.8879 922.6875,121.6379 Q922.0469,122.3723 922.0469,124.0442 Q922.0469,125.7942 922.6875,126.5442 Q923.3281,127.2942 924.3438,127.2942 Q925.0938,127.2942 925.625,126.8254 Q926.1719,126.3411 926.4063,125.3254 Z " fill="#000000"/><text fill="#000000" font-family="Verdana" font-size="13" font-style="italic" lengthAdjust="spacing" textLength="74.6611" x="938.3267" y="120.7417">&#171;file-slug/&#187;</text><text fill="#111111" font-family="sans-serif" font-size="13" lengthAdjust="spacing" textLength="77.3145" x="937" y="136.9663">FileContainer</text><line style="stroke:#555555;stroke-width:1;" x1="913" x2="1016.3145" y1="144.8228" y2="144.8228"/><line style="stroke:#555555;stroke-width:1;" x1="913" x2="1016.3145" y1="152.8228" y2="152.8228"/></g><!--class IndexTTL--><g class="entity" data-qualified-name="Solid Pod .user-owned..IndexTTL" data-source-line="85" id="ent0018"><rect fill="#FFFFFF" height="123.5571" rx="2.5" ry="2.5" style="stroke:#555555;stroke-width:1;" width="168.7744" x="1097" y="222.6719"/><rect fill="#EEEEEE" height="42.1509" rx="2.5" ry="2.5" style="stroke:#EEEEEE;stroke-width:1;" width="168.7744" x="1097" y="222.6719"/><rect fill="#EEEEEE" height="2.5" style="stroke:#EEEEEE;stroke-width:1;" width="168.7744" x="1097" y="262.3228"/><rect fill="none" height="123.5571" rx="2.5" ry="2.5" style="stroke:#555555;stroke-width:1;" width="168.7744" x="1097" y="222.6719"/><ellipse cx="1144.322" cy="243.7473" fill="#FFFFFF" rx="9" ry="9" style="stroke:#000000;stroke-width:1;"/><path d="M1145.7283,245.3254 L1147.5408,245.9036 Q1147.1189,247.4192 1146.1501,248.1692 Q1145.1814,248.9036 1143.6814,248.9036 Q1141.822,248.9036 1140.6189,247.6379 Q1139.4314,246.3723 1139.4314,244.1692 Q1139.4314,241.8567 1140.6345,240.5754 Q1141.8376,239.2786 1143.7908,239.2786 Q1145.4939,239.2786 1146.572,240.2942 Q1147.197,240.8879 1147.5251,242.0129 L1145.6658,242.4504 Q1145.4939,241.7317 1144.9626,241.3098 Q1144.447,240.8879 1143.697,240.8879 Q1142.6658,240.8879 1142.0095,241.6379 Q1141.3689,242.3723 1141.3689,244.0442 Q1141.3689,245.7942 1142.0095,246.5442 Q1142.6501,247.2942 1143.6658,247.2942 Q1144.4158,247.2942 1144.947,246.8254 Q1145.4939,246.3411 1145.7283,245.3254 Z " fill="#000000"/><text fill="#000000" font-family="Verdana" font-size="13" font-style="italic" lengthAdjust="spacing" textLength="70.6304" x="1159.822" y="240.7417">&#171;index.ttl&#187;</text><text fill="#111111" font-family="sans-serif" font-size="13" lengthAdjust="spacing" textLength="54.9136" x="1167.6804" y="256.9663">IndexTTL</text><line style="stroke:#555555;stroke-width:1;" x1="1098" x2="1264.7744" y1="264.8228" y2="264.8228"/><text fill="#000000" font-family="sans-serif" font-size="13" lengthAdjust="spacing" textLength="81.6499" x="1103" y="282.3179">schema:name</text><text fill="#000000" font-family="sans-serif" font-size="13" lengthAdjust="spacing" textLength="115.6289" x="1103" y="298.6694">schema:uploadDate</text><text fill="#000000" font-family="sans-serif" font-size="13" lengthAdjust="spacing" textLength="101.8862" x="1103" y="315.021">schema:publisher</text><line style="stroke:#555555;stroke-width:1;" x1="1098" x2="1264.7744" y1="321.8774" y2="321.8774"/><text fill="#000000" font-family="sans-serif" font-size="13" lengthAdjust="spacing" textLength="156.7744" x="1103" y="339.3726">rdf:type (schema.org class)</text></g><!--class BinaryFile--><g class="entity" data-qualified-name="Solid Pod .user-owned..BinaryFile" data-source-line="92" id="ent0019"><rect fill="#FFFFFF" height="58.1509" rx="2.5" ry="2.5" style="stroke:#555555;stroke-width:1;" width="85.7954" x="1138.5" y="94.6719"/><rect fill="#EEEEEE" height="42.1509" rx="2.5" ry="2.5" style="stroke:#EEEEEE;stroke-width:1;" width="85.7954" x="1138.5" y="94.6719"/><rect fill="#EEEEEE" height="2.5" style="stroke:#EEEEEE;stroke-width:1;" width="85.7954" x="1138.5" y="134.3228"/><rect fill="none" height="58.1509" rx="2.5" ry="2.5" style="stroke:#555555;stroke-width:1;" width="85.7954" x="1138.5" y="94.6719"/><ellipse cx="1151.5" cy="115.7473" fill="#FFFFFF" rx="9" ry="9" style="stroke:#000000;stroke-width:1;"/><path d="M1152.9063,117.3254 L1154.7188,117.9036 Q1154.2969,119.4192 1153.3281,120.1692 Q1152.3594,120.9036 1150.8594,120.9036 Q1149,120.9036 1147.7969,119.6379 Q1146.6094,118.3723 1146.6094,116.1692 Q1146.6094,113.8567 1147.8125,112.5754 Q1149.0156,111.2786 1150.9688,111.2786 Q1152.6719,111.2786 1153.75,112.2942 Q1154.375,112.8879 1154.7031,114.0129 L1152.8438,114.4504 Q1152.6719,113.7317 1152.1406,113.3098 Q1151.625,112.8879 1150.875,112.8879 Q1149.8438,112.8879 1149.1875,113.6379 Q1148.5469,114.3723 1148.5469,116.0442 Q1148.5469,117.7942 1149.1875,118.5442 Q1149.8281,119.2942 1150.8438,119.2942 Q1151.5938,119.2942 1152.125,118.8254 Q1152.6719,118.3411 1152.9063,117.3254 Z " fill="#000000"/><text fill="#000000" font-family="Verdana" font-size="13" font-style="italic" lengthAdjust="spacing" textLength="61.4961" x="1161.6497" y="112.7417">&#171;file.ext&#187;</text><text fill="#111111" font-family="sans-serif" font-size="13" lengthAdjust="spacing" textLength="57.7954" x="1163.5" y="128.9663">BinaryFile</text><line style="stroke:#555555;stroke-width:1;" x1="1139.5" x2="1223.2954" y1="136.8228" y2="136.8228"/><line style="stroke:#555555;stroke-width:1;" x1="1139.5" x2="1223.2954" y1="144.8228" y2="144.8228"/></g><!--class WebIDProfile--><g class="entity" data-qualified-name="Solid Pod .user-owned..WebIDProfile" data-source-line="94" id="ent0020"><rect fill="#FFFFFF" height="90.854" rx="2.5" ry="2.5" style="stroke:#555555;stroke-width:1;" width="139.9116" x="692" y="248.1719"/><rect fill="#EEEEEE" height="42.1509" rx="2.5" ry="2.5" style="stroke:#EEEEEE;stroke-width:1;" width="139.9116" x="692" y="248.1719"/><rect fill="#EEEEEE" height="2.5" style="stroke:#EEEEEE;stroke-width:1;" width="139.9116" x="692" y="287.8228"/><rect fill="none" height="90.854" rx="2.5" ry="2.5" style="stroke:#555555;stroke-width:1;" width="139.9116" x="692" y="248.1719"/><ellipse cx="715.816" cy="269.2473" fill="#FFFFFF" rx="9" ry="9" style="stroke:#000000;stroke-width:1;"/><path d="M717.2223,270.8254 L719.0348,271.4036 Q718.6129,272.9192 717.6442,273.6692 Q716.6754,274.4036 715.1754,274.4036 Q713.316,274.4036 712.1129,273.1379 Q710.9254,271.8723 710.9254,269.6692 Q710.9254,267.3567 712.1285,266.0754 Q713.3317,264.7786 715.2848,264.7786 Q716.9879,264.7786 718.066,265.7942 Q718.691,266.3879 719.0192,267.5129 L717.1598,267.9504 Q716.9879,267.2317 716.4567,266.8098 Q715.941,266.3879 715.191,266.3879 Q714.1598,266.3879 713.5035,267.1379 Q712.8629,267.8723 712.8629,269.5442 Q712.8629,271.2942 713.5035,272.0442 Q714.1442,272.7942 715.1598,272.7942 Q715.9098,272.7942 716.441,272.3254 Q716.9879,271.8411 717.2223,270.8254 Z " fill="#000000"/><text fill="#000000" font-family="Verdana" font-size="13" font-style="italic" lengthAdjust="spacing" textLength="91.876" x="728.2196" y="266.2417">&#171;profile/card&#187;</text><text fill="#111111" font-family="sans-serif" font-size="13" lengthAdjust="spacing" textLength="76.5781" x="735.8685" y="282.4663">WebIDProfile</text><line style="stroke:#555555;stroke-width:1;" x1="693" x2="830.9116" y1="290.3228" y2="290.3228"/><text fill="#000000" font-family="sans-serif" font-size="13" lengthAdjust="spacing" textLength="60.7026" x="698" y="307.8179">sp:storage</text><line style="stroke:#555555;stroke-width:1;" x1="693" x2="830.9116" y1="314.6743" y2="314.6743"/><text fill="#000000" font-family="sans-serif" font-size="13" lengthAdjust="spacing" textLength="127.9116" x="698" y="332.1694">dcat:catalog (optional)</text></g><!--link App to Header--><g class="link" data-entity-1="ent0003" data-entity-2="ent0004" data-link-type="association" data-source-line="68" id="lnk9"><path codeLine="68" d="M140.19,408.4219 C206.4,408.4219 307,408.4219 307,408.4219 C307,408.4219 307,412.7519 307,419.0019" fill="none" id="App-Header" style="stroke:#000000;stroke-width:1;"/></g><!--link App to FileExplorer--><g class="link" data-entity-1="ent0003" data-entity-2="ent0005" data-link-type="association" data-source-line="69" id="lnk10"><path codeLine="69" d="M140.12,379.4219 C193.05,379.4219 264,379.4219 264,379.4219 C264,379.4219 264,365.4319 264,349.4819" fill="none" id="App-FileExplorer" style="stroke:#000000;stroke-width:1;"/></g><!--link FileExplorer to FileUpload--><g class="link" data-entity-1="ent0005" data-entity-2="ent0006" data-link-type="association" data-source-line="70" id="lnk11"><path codeLine="70" d="M351.34,341.6719 C394.89,341.6719 444,341.6719 444,341.6719 C444,341.6719 444,374.9819 444,402.9619" fill="none" id="FileExplorer-FileUpload" style="stroke:#000000;stroke-width:1;"/></g><!--link FileExplorer to FileCard--><g class="link" data-entity-1="ent0005" data-entity-2="ent0007" data-link-type="association" data-source-line="71" id="lnk12"><path codeLine="71" d="M351.11,344.1719 C372.57,344.1719 391,344.1719 391,344.1719 C391,344.1719 391,593.6719 391,593.6719 C391,593.6719 429.47,593.6719 464.64,593.6719" fill="none" id="FileExplorer-FileCard" style="stroke:#000000;stroke-width:1;"/></g><!--link FileExplorer to FolderEntry--><g class="link" data-entity-1="ent0005" data-entity-2="ent0008" data-link-type="association" data-source-line="72" id="lnk13"><path codeLine="72" d="M351.24,295.6719 C383.84,295.6719 423.1,295.6719 455.7,295.6719" fill="none" id="FileExplorer-FolderEntry" style="stroke:#000000;stroke-width:1;"/></g><!--link AppContainer to FileContainer--><g class="link" data-entity-1="ent0016" data-entity-2="ent0017" data-link-type="association" data-source-line="99" id="lnk21"><path codeLine="99" d="M828.59,131.6719 C855.68,131.6719 886.53,131.6719 911.99,131.6719" fill="none" id="AppContainer-FileContainer" style="stroke:#000000;stroke-width:1;"/><text fill="#000000" font-family="sans-serif" font-size="14" lengthAdjust="spacing" textLength="21.0137" x="882.8976" y="147.3235">1..*</text></g><!--link FileContainer to IndexTTL--><g class="link" data-entity-1="ent0017" data-entity-2="ent0018" data-link-type="association" data-source-line="100" id="lnk22"><path codeLine="100" d="M1017.33,156.6719 C1061.73,156.6719 1118,156.6719 1118,156.6719 C1118,156.6719 1118,189.9319 1118,222.5419" fill="none" id="FileContainer-IndexTTL" style="stroke:#000000;stroke-width:1;"/></g><!--link FileContainer to BinaryFile--><g class="link" data-entity-1="ent0017" data-entity-2="ent0019" data-link-type="association" data-source-line="101" id="lnk23"><path codeLine="101" d="M1017.03,127.6719 C1054.16,127.6719 1103.33,127.6719 1138.21,127.6719" fill="none" id="FileContainer-BinaryFile" style="stroke:#000000;stroke-width:1;"/></g><!--link WebIDProfile to CatalogTTL--><g class="link" data-entity-1="ent0020" data-entity-2="ent0015" data-link-type="association" data-source-line="102" id="lnk24"><path codeLine="102" d="M786,339.1819 C786,381.3219 786,437.5019 786,437.5019 C786,437.5019 1005.01,437.5019 1117.08,437.5019" fill="none" id="WebIDProfile-CatalogTTL" style="stroke:#000000;stroke-width:1;"/><text fill="#000000" font-family="sans-serif" font-size="14" lengthAdjust="spacing" textLength="75.4961" x="826.38" y="453.0351">dcat:catalog</text></g><!--link FileUpload to CatalogTTL--><g class="link" data-entity-1="ent0006" data-entity-2="ent0015" data-link-type="association" data-source-line="104" id="lnk25"><path codeLine="104" d="M612.23,457.8419 C747.56,457.8419 998.97,457.8419 1117.07,457.8419" fill="none" id="FileUpload-CatalogTTL" style="stroke:#000000;stroke-width:1;stroke-dasharray:7,7;"/><text fill="#000000" font-family="sans-serif" font-size="14" lengthAdjust="spacing" textLength="53.7168" x="810.65" y="473.3751">appends</text></g><!--link FileUpload to AppContainer--><g class="link" data-entity-1="ent0006" data-entity-2="ent0016" data-link-type="association" data-source-line="105" id="lnk26"><path codeLine="105" d="M596,403.0619 C596,322.6719 596,141.3419 596,141.3419 C596,141.3419 649.26,141.3419 695.44,141.3419" fill="none" id="FileUpload-AppContainer" style="stroke:#000000;stroke-width:1;stroke-dasharray:7,7;"/><text fill="#000000" font-family="sans-serif" font-size="14" lengthAdjust="spacing" textLength="49.041" x="597" y="238.0151">uploads</text><text fill="#000000" font-family="sans-serif" font-size="14" lengthAdjust="spacing" textLength="11.6758" x="615.6826" y="255.6245">to</text></g><!--link FileUpload to WebIDProfile--><g class="link" data-entity-1="ent0006" data-entity-2="ent0020" data-link-type="association" data-source-line="106" id="lnk27"><path codeLine="106" d="M604,402.9519 C604,359.9919 604,295.6719 604,295.6719 C604,295.6719 649.58,295.6719 691.78,295.6719" fill="none" id="FileUpload-WebIDProfile" style="stroke:#000000;stroke-width:1;stroke-dasharray:7,7;"/><text fill="#000000" font-family="sans-serif" font-size="14" lengthAdjust="spacing" textLength="28.0068" x="613.5688" y="320.9551">links</text><text fill="#000000" font-family="sans-serif" font-size="14" lengthAdjust="spacing" textLength="45.1445" x="605" y="338.5645">catalog</text></g><!--link FileCard to IndexTTL--><g class="link" data-entity-1="ent0007" data-entity-2="ent0018" data-link-type="association" data-source-line="108" id="lnk28"><path codeLine="108" d="M578,608.8419 C725,608.8419 1108,608.8419 1108,608.8419 C1108,608.8419 1108,440.9219 1108,346.7919" fill="none" id="FileCard-IndexTTL" style="stroke:#000000;stroke-width:1;stroke-dasharray:7,7;"/><text fill="#000000" font-family="sans-serif" font-size="14" lengthAdjust="spacing" textLength="35.0205" x="938.02" y="624.3751">reads</text></g><!--link FileCard to CatalogTTL--><g class="link" data-entity-1="ent0007" data-entity-2="ent0015" data-link-type="association" data-source-line="109" id="lnk29"><path codeLine="109" d="M522,547.9719 C522,518.3219 522,485.1719 522,485.1719 C522,485.1719 951.64,485.1719 1117.36,485.1719" fill="none" id="FileCard-CatalogTTL" style="stroke:#000000;stroke-width:1;stroke-dasharray:7,7;"/><text fill="#000000" font-family="sans-serif" font-size="14" lengthAdjust="spacing" textLength="53.6826" x="734.28" y="500.7051">removes</text></g><!--link FileCard to WebIDProfile--><g class="link" data-entity-1="ent0007" data-entity-2="ent0020" data-link-type="association" data-source-line="110" id="lnk30"><path codeLine="110" d="M578.08,578.5019 C642.52,578.5019 739,578.5019 739,578.5019 C739,578.5019 739,419.9519 739,339.4319" fill="none" id="FileCard-WebIDProfile" style="stroke:#000000;stroke-width:1;stroke-dasharray:7,7;"/><text fill="#000000" font-family="sans-serif" font-size="14" lengthAdjust="spacing" textLength="52.1309" x="684.3413" y="554.9651">resolves</text><text fill="#000000" font-family="sans-serif" font-size="14" lengthAdjust="spacing" textLength="56.8135" x="682" y="572.5745">publisher</text></g><!--link FileExplorer to AppContainer--><g class="link" data-entity-1="ent0005" data-entity-2="ent0016" data-link-type="association" data-source-line="112" id="lnk31"><path codeLine="112" d="M264,257.8319 C264,204.0119 264,122.0019 264,122.0019 C264,122.0019 559.65,122.0019 695.35,122.0019" fill="none" id="FileExplorer-AppContainer" style="stroke:#000000;stroke-width:1;stroke-dasharray:7,7;"/><text fill="#000000" font-family="sans-serif" font-size="14" lengthAdjust="spacing" textLength="52.1309" x="358.76" y="137.5351">browses</text></g><!--link FileExplorer to WebIDProfile--><g class="link" data-entity-1="ent0005" data-entity-2="ent0020" data-link-type="association" data-source-line="113" id="lnk32"><path codeLine="113" d="M308,257.8319 C308,254.9519 308,253.1719 308,253.1719 C308,253.1719 564.04,253.1719 691.56,253.1719" fill="none" id="FileExplorer-WebIDProfile" style="stroke:#000000;stroke-width:1;stroke-dasharray:7,7;"/><text fill="#000000" font-family="sans-serif" font-size="14" lengthAdjust="spacing" textLength="52.1309" x="433.9568" y="231.7051">resolves</text><text fill="#000000" font-family="sans-serif" font-size="14" lengthAdjust="spacing" textLength="73.1445" x="423.45" y="249.3145">catalog URI</text></g><?plantuml-src bLHHJzim47xFh_3AIxUHGiMceGWXjGKqf6r20yGBBsvoJQswjcKxG3VnttTsqiOEATBSb_hko_cxxpxRCik16CbPCIeqUm8oqVcIMSXjfI59FjWbh84eJfb8p8e9HJLTam8MjEBsIWhxYsBUK65I0vej-a6tx0-GyKcGp3arPcAjPlFAmdKkXSSS1v0vpLUbbfKePf9BJHuSho3FcG2xKK2ajakPT8kJlmaXqzuQ69Uw05t73hxwXL57jOcD_SBOTw28xDOvkFGhUGsFLGYY9VGUV71rwdxTeoT-nKUV-DN4Rkq61pILl8ZFebhBPt_IJwfB9iXusq2jzPSOpkaS-BkAxFrKo08CAF8jd8scOkM2fyV9EnFXiB34Ig9PkRIaO1fjnQH8agrIWobsWRuP83NaKCzjeXGvEylbMaa1mfwVjwbw677MTqN8PovHXY4pfWAT4OFE4kN7NKfMTkXshssnAyRXyaMX2FjA2lh4IcfXM6dMAQc1IrhqbRnNBjDVq5JpDRF31S8EYNLtxn2lYSarKqwOdcepglVKAkIps75mU-20LBirq3cWBuNLc__hqTTmeqZJHlPs7ohdh1CAsQHh5VOaNLDzgPQhi-3E9BVkUI8tiY332isIOkDGV8myCwEMufJlxdwuBklDo5g-wxF0O7Q12GEMe02QWOcLmjvcU0VmeVDsM6zI_oocLAcZq8E-WG3eXfaQNfKHwbeKy5BJOUvlH4ONYypVaw79yNsb8wdB-hjwbdKq4_YqXllAQufDH55LpJapIp-9e9qf4rHl7Dc6umXUehlq0FFhYnij5pL4rV-ESfpDZgXHcR5IunHQ4HjroL1wpr9Uk-MrjaUh30vqC1wDFWrYnPgvHxYjM7svjW_CHfnJp0Pppo9wIHBSnT4e13Oh8pXP48Nf8ACc6cIjl7aKLdRG4QC6ZS_W2h4H4t-F4R_pHR0oel62cGZtbc-DMyid297k5NZ3mW7Hl8Xy5AqzakY-zNIQaRb_Zaq7sNj6TCZM4_U_hvD_?></g></svg>